<svg width="242" height="242" viewBox="0 0 242 242" fill="none" xmlns="http://www.w3.org/2000/svg">
<rect y="0.0703125" width="114.945" height="114.945" rx="28.7362" fill="#4ADE80"/>
<rect y="0.0703125" width="114.945" height="114.945" rx="28.7362" fill="url(#paint0_linear_172_437)"/>
<mask id="mask0_172_437" style="mask-type:alpha" maskUnits="userSpaceOnUse" x="19" y="16" width="77" height="82">
<mask id="path-2-outside-1_172_437" maskUnits="userSpaceOnUse" x="19" y="16" width="77" height="82" fill="black">
<rect fill="white" x="19" y="16" width="77" height="82"/>
<path fill-rule="evenodd" clip-rule="evenodd" d="M30.0476 54.7922C29.8661 54.64 29.6845 54.4876 29.503 54.3354C28.0241 53.0255 26.5791 51.6756 25.222 50.262C24.0698 49.0545 22.8707 47.7391 21.9249 46.3268C21.8409 46.222 21.7941 46.1138 21.7102 46.009C21.2776 45.3368 21.2602 44.4972 21.859 43.8655C22.4579 43.2339 23.2974 43.2165 23.9871 43.6233C24.0879 43.7078 24.2226 43.7523 24.3033 43.82C25.7029 44.6507 27.0953 45.6128 28.4473 46.5411C30.1592 47.7367 31.871 48.9326 33.5998 50.1082C33.0325 49.3918 32.4652 48.6751 31.935 47.9553C30.5858 46.2044 29.2704 44.4132 28.046 42.5954C27.013 41.0412 25.9702 39.3756 25.2041 37.6672C25.1605 37.5963 25.1169 37.5253 25.1104 37.4512C24.7487 36.7352 24.8257 35.9062 25.5221 35.322C26.1847 34.7781 27.0912 34.8857 27.6963 35.3934C27.777 35.4611 27.8576 35.5288 27.9585 35.6134C29.2591 36.8079 30.5089 38.0628 31.7418 39.3379C33.0118 40.6097 34.2817 41.8816 35.5348 43.1736C35.5146 43.1567 35.4912 43.1028 35.488 43.0656C34.3015 41.0389 33.1319 38.992 32.0703 36.8983C31.1896 35.1625 30.2822 33.3357 29.6345 31.4861C29.3373 30.6524 29.0603 29.8356 30.1381 29.1246C30.8813 28.6484 31.7572 28.8335 32.2946 29.4219C32.3954 29.5065 32.4423 29.6145 32.5431 29.6991C33.7721 31.1428 34.9333 32.6671 36.0575 34.1947C37.0743 35.5635 38.0911 36.9322 39.091 38.3211C38.2819 36.3362 37.493 34.3681 36.7581 32.3766C36.0498 30.4763 35.352 28.4816 34.8631 26.5246C34.6538 25.6272 34.5492 24.6458 35.7207 24.1509C36.2069 23.9401 36.6246 24.0157 36.894 24.1043C37.5103 24.312 37.7112 24.6869 38.0332 25.1633C39.1873 26.8192 40.2398 28.5959 41.2149 30.3421C42.0326 31.7844 42.8333 33.2468 43.597 34.7125C43.1113 32.7926 42.6627 30.8695 42.2141 28.9465C41.7526 26.875 41.3047 24.7463 41.0253 22.6215C40.9071 21.6975 40.9881 20.6999 42.1927 20.3702C42.9046 20.1771 43.662 20.5033 44.0511 21.1046C44.1616 21.3006 44.1414 21.2837 44.1649 21.3377C44.2117 21.4457 44.2585 21.5537 44.3425 21.6585C45.3443 23.4958 46.1937 25.5147 46.9994 27.4626C47.5944 28.9243 48.1726 30.4062 48.734 31.9082C48.521 30.1141 48.328 28.3368 48.1892 26.5362C48.0178 24.3646 47.8401 22.1188 47.8914 19.9277C47.9249 19.0277 48.0694 18.118 49.304 17.9165C50.2619 17.758 50.789 18.4407 50.8293 18.4746C50.9736 18.6301 51.0204 18.7382 51.0641 18.8091C51.1513 18.951 51.1344 18.9712 51.1779 19.0421C51.2247 19.1501 51.2513 19.2412 51.2982 19.3493C52.0565 21.3948 52.6423 23.6049 53.1644 25.7271C53.68 27.7751 54.1044 29.8499 54.5459 31.9044C54.627 29.8415 54.7284 27.7956 54.8869 25.7633C55.0462 23.5254 55.2466 21.1157 55.6889 18.9091C55.7131 18.7575 55.7542 18.5857 55.7781 18.4341C55.9527 17.6525 56.5114 16.987 57.4282 17.0002C58.325 16.9965 58.9026 17.6187 59.1022 18.4049C59.1354 18.5702 59.1854 18.7153 59.2186 18.8806C59.7067 21.0432 59.9516 23.4139 60.1836 25.6363C60.3724 27.5821 60.5274 29.5682 60.6422 31.5205C61.0129 29.5631 61.4005 27.5856 61.8286 25.6419C62.301 23.5635 62.8036 21.4076 63.5253 19.4009C63.5695 19.2662 63.6138 19.1315 63.6751 18.9766C63.7025 18.8621 63.6854 18.8823 63.8007 18.704C63.8515 18.6435 63.8789 18.529 64.0142 18.3676C64.0479 18.3273 64.5864 17.6448 65.5332 17.7862C66.8204 17.9726 66.945 18.9709 66.9892 19.9015C67.1032 22.0594 66.981 24.2941 66.8354 26.4747C66.708 28.2239 66.5808 29.9731 66.4131 31.6884C66.9373 30.2035 67.4615 28.7186 68.0429 27.2474C68.8049 25.2745 69.6005 23.2612 70.5776 21.4003C70.6758 21.2422 70.7372 21.0873 70.8354 20.9292C70.9202 20.8284 70.8999 20.8115 71.0352 20.6501C71.4923 20.1055 72.238 19.8721 72.9149 20.1306C74.2479 20.6307 74.0155 21.6041 73.9112 22.5477C73.7019 24.6405 73.2901 26.7697 72.8751 28.8617C72.4978 30.7449 72.0802 32.5943 71.6627 34.4436C72.3925 32.9594 73.1626 31.5091 73.9328 30.0587C74.8796 28.2752 75.8801 26.4683 77.022 24.7799C77.1065 24.679 77.1879 24.5411 77.2524 24.4233C77.3201 24.3426 77.3201 24.3426 77.4385 24.2014C77.8956 23.6569 78.7018 23.4742 79.3816 23.7698C80.607 24.3167 80.4117 25.2869 80.2097 26.183C79.7647 28.1468 79.1173 30.1471 78.4435 32.0563C77.7558 34.0227 77.031 35.9924 76.2692 37.9653C77.2313 36.5729 78.1934 35.1805 79.1589 33.8252C80.2563 32.2714 81.374 30.7346 82.5725 29.2655C82.657 29.1646 82.7418 29.0638 82.8263 28.9629C83.3511 28.3377 84.2284 28.1114 84.9785 28.5691C86.1022 29.237 85.8229 30.1025 85.5435 30.9679C84.9403 32.8334 84.0746 34.6847 83.2189 36.4415C82.187 38.5315 81.0809 40.628 79.9514 42.6704C79.9514 42.6704 79.9175 42.7107 79.9006 42.731C81.1152 41.4472 82.3129 40.1838 83.5275 38.9001C84.742 37.6164 85.9769 36.3497 87.2149 35.1201C87.2994 35.0192 87.4042 34.9353 87.509 34.8514C88.0975 34.314 88.9813 34.1619 89.6806 34.6801C90.4002 35.2151 90.5121 36.0651 90.1656 36.8055C90.1182 36.9031 90.0706 37.0008 90.0432 37.1153C89.3128 38.8051 88.3194 40.4806 87.3331 42.0246C86.1673 43.8647 84.9206 45.637 83.6336 47.3755C83.1154 48.0751 82.5804 48.7947 82.0454 49.5142C83.7349 48.3197 85.3674 47.1117 87.0569 45.9174C88.395 44.978 89.7639 43.9611 91.1659 43.1096C91.2907 43.0427 91.3955 42.9587 91.5034 42.9119C92.1993 42.5333 93.0621 42.5699 93.6229 43.2123C94.1838 43.8547 94.164 44.6975 93.7169 45.3534C93.649 45.434 93.5814 45.5148 93.5171 45.6325C92.6322 47.0553 91.4613 48.41 90.3144 49.613C88.9645 51.0579 87.5338 52.4355 86.0999 53.7757C85.9274 53.9402 85.7549 54.1048 85.5822 54.2693C86.7305 53.7204 87.9155 53.1682 89.0838 52.6361C90.3228 52.0606 91.6161 51.4616 92.902 50.994C93.7528 50.6764 94.7003 50.6124 95.287 51.5516C95.7196 52.2238 95.5653 53.0221 95.0945 53.624C95.0268 53.7048 94.9592 53.7854 94.8915 53.8662C93.9229 55.1843 92.4589 56.3962 91.1814 57.3865C89.5522 58.6316 87.8255 59.8293 86.0891 60.9157C86.0011 60.9794 85.8763 61.0465 85.7884 61.1102C86.9253 60.8612 88.0622 60.6123 89.1822 60.3835C90.3394 60.1513 91.5506 59.8959 92.7375 59.7919C93.5534 59.7206 94.3251 59.784 94.7806 60.7158C95.1019 61.398 94.9241 62.1423 94.4268 62.6531C94.3591 62.734 94.2743 62.8345 94.1867 62.8985C92.1709 64.8503 88.5548 66.4562 85.9756 67.5228C85.0743 67.9006 84.1697 68.2415 83.265 68.5822C84.5965 68.6339 85.9245 68.6486 87.2731 68.6802C88.1899 68.6934 89.3091 68.6702 90.1988 68.7979C90.9737 68.8982 91.6569 69.231 91.9002 70.088C92.0866 70.7257 91.8789 71.3421 91.4326 71.7923C91.3647 71.8729 91.297 71.9537 91.2093 72.0174C89.5553 73.6199 85.0551 74.5182 80.8629 75.0906L85.4321 76.6904L85.533 76.7752C85.533 76.7752 85.7452 76.8499 85.8258 76.9176C86.4179 77.277 86.7899 77.8986 86.7033 78.6164C86.5819 79.58 85.92 79.9184 85.1372 80.1551C76.5799 82.5294 68.4592 79.4276 62.104 73.648C61.6804 73.2926 61.1222 72.8929 60.4961 72.5738L61.4066 95.3693C61.4376 96.1515 61.3847 96.8289 60.6214 97.2881C59.9829 97.6804 59.5045 97.5541 58.9084 97.3634C58.4843 97.2136 58.1101 97.2089 57.6949 97.3761C57.0435 97.6199 56.4129 97.6752 55.8111 97.2044C55.1083 96.6494 55.1507 96.0662 55.1599 95.3179L55.5875 72.6483C54.9627 72.9832 54.3985 73.3689 53.9656 73.762C47.7061 79.5426 39.6457 82.4715 31.1597 80.7472C30.341 80.5758 29.5804 80.2125 29.4557 79.2143C29.3738 78.4926 29.767 77.8602 30.3717 77.5082C30.4595 77.4445 30.5507 77.4179 30.6385 77.3539L30.7466 77.3073L35.0302 75.643C30.9325 75.1604 26.5089 74.37 24.8186 72.7799C24.7379 72.712 24.6572 72.6444 24.5765 72.5767C24.1263 72.1301 23.9059 71.5327 24.0563 70.9029C24.2784 70.0238 24.9605 69.7026 25.716 69.5804C26.62 69.4451 27.7223 69.4422 28.636 69.4182C29.9779 69.3756 31.2995 69.3161 32.6382 69.2363C31.7324 68.9232 30.8435 68.5896 29.9345 68.2394C27.322 67.2158 23.6762 65.7034 21.6228 63.8085C21.5421 63.7408 21.4615 63.6731 21.3606 63.5884C20.8499 63.0913 20.6197 62.3825 20.912 61.6653C21.3132 60.6958 22.109 60.6076 22.9348 60.6474C24.1179 60.7121 25.3341 60.942 26.493 61.1584C27.6318 61.3577 28.7738 61.5944 29.9327 61.8106C29.8319 61.7261 29.677 61.6647 29.5762 61.5802C27.7999 60.502 26.0542 59.3467 24.3963 58.1274C23.0781 57.1587 21.609 55.9605 20.5987 54.6658C20.5147 54.5611 20.4308 54.4563 20.3638 54.3312C19.9176 53.7162 19.8462 52.9002 20.3506 52.258C20.8551 51.6159 21.6276 51.4734 22.3414 51.7288C22.4559 51.7562 22.5737 51.8204 22.6882 51.8478C23.9812 52.3141 25.2637 52.8747 26.5059 53.4015C27.6706 53.8976 28.8184 54.4139 29.9662 54.9302L30.0476 54.7922ZM52.8206 72.4232C47.0447 77.7501 39.5206 80.6137 31.4724 78.9818C30.9199 78.8618 30.9974 78.8926 31.4601 78.6277L41.5464 74.7178C41.6245 74.5427 41.5406 74.4379 41.2946 74.4034C37.0752 74.0251 28.0663 73.3742 25.9492 71.3913C25.6064 71.1035 25.5289 71.073 26.0079 70.9938C27.4819 70.7526 35.3228 70.8703 38.7681 69.8774C38.9849 69.578 38.8912 69.3621 38.5444 69.2429C34.5979 67.9248 25.8791 65.2489 22.7874 62.3796C22.384 62.0412 22.3638 62.0244 22.8929 62.0902C25.7307 62.2716 33.8621 64.2142 37.7203 64.7363C37.9565 64.6594 37.9403 64.4741 37.7152 64.2508C32.951 61.4904 24.4988 56.7353 22.0085 53.4771C21.5889 52.9531 21.6526 53.0411 22.2116 53.2351C25.5685 54.4365 33.9155 58.4159 38.1945 60.116C38.3597 60.0829 38.5017 59.9957 38.3039 59.6579C34.2603 56.1616 26.1878 49.7662 23.28 45.3671C22.9345 44.8368 22.8974 44.84 23.4492 45.1654C25.8515 46.5625 31.5414 50.7183 36.4017 53.9373C37.5924 54.7301 38.7395 55.452 39.7656 56.0726C40.1229 56.0974 40.3995 56.0545 40.0742 55.541C36.271 50.7343 29.0756 42.1876 26.6931 36.9576C26.5292 36.5795 26.405 36.4408 26.8116 36.8164C30.3705 40.112 38.0325 48.2254 42.4886 52.3768C42.7749 52.4452 43.0209 52.4797 42.8134 52.0308C39.4678 46.474 33.1168 36.4703 31.1535 30.9047C31.0033 30.4693 30.8556 30.2766 31.2518 30.7465C34.7506 34.851 41.5338 44.6673 45.3356 49.8852C45.6519 50.0816 45.7566 49.9979 45.67 49.6504C43.0451 43.3576 37.9191 31.9761 36.4725 26.1222C36.3861 25.7747 36.3562 25.6465 36.3763 25.6634C36.3965 25.6803 36.5038 25.8391 36.6749 26.0858C39.9426 30.7524 45.5144 41.8895 48.4465 48.0619C48.6684 48.2481 48.7564 48.1843 48.7337 47.9245C46.9978 40.8999 43.4461 28.5023 42.6881 22.4013C42.6062 21.6796 42.6257 21.9022 42.9139 22.4189C45.7214 27.5931 49.8911 39.5816 51.9343 46.4858C52.0409 46.8502 52.274 46.7365 52.2416 46.3655C51.3869 38.9461 49.384 26.0952 49.5736 19.93C49.5789 19.3502 49.562 19.3704 49.759 19.9138C51.9475 25.7028 54.152 38.7229 55.5025 46.043C55.6333 46.2557 55.7616 46.2257 55.9106 46.0072C55.9079 37.8591 56.2265 24.4126 57.2858 19.2179C57.4403 18.4195 57.4032 18.4227 57.5859 19.229C58.7813 24.5629 59.4537 38.0161 59.5919 46.0027C59.642 46.148 59.7531 46.1383 59.8547 46.0172C61.0316 38.962 62.974 25.9154 65.0674 19.9388C65.3057 19.2451 65.3025 19.208 65.3133 19.9733C65.5924 26.1536 63.8592 39.2379 63.1735 46.5677C63.2607 46.7096 63.3752 46.737 63.4597 46.6362C65.3407 39.725 69.293 27.4371 72.0247 22.1334C72.4557 21.2921 72.3059 21.7163 72.233 22.3768C71.6161 28.3552 68.3646 40.75 66.773 47.7668C66.7862 47.915 66.9207 47.9592 67.0829 47.8892C69.8989 41.6249 75.2129 30.3766 78.3709 25.671C78.7842 25.0555 78.7163 25.1362 78.5691 25.8032C77.2313 31.6577 72.3649 43.1099 69.8925 49.4561C69.8949 49.6988 70.0129 49.7633 70.2288 49.6696C73.8809 44.4163 80.448 34.4599 83.84 30.2946C84.2631 29.7904 84.1446 29.9315 83.9843 30.4502C82.1552 36.03 76.0325 46.153 72.804 51.7617C72.7527 52.0279 72.8567 52.1496 73.1334 52.1066C77.4728 47.8771 84.9205 39.6566 88.3839 36.3073C88.8676 35.8538 88.7628 35.9378 88.5453 36.4427C86.262 41.7444 79.2474 50.4318 75.6108 55.2167C75.5052 55.506 75.6126 55.6651 75.8754 55.6793C81.0372 52.5179 89.0208 46.3624 92.0342 44.4914C92.5848 44.1628 92.46 44.2299 92.1651 44.7041C89.3586 49.1546 81.4477 55.7151 77.4643 59.3154C77.3322 59.5139 77.3653 59.6792 77.5976 59.7711C81.8885 57.9752 90.1554 53.7759 93.5205 52.5097C94.1722 52.2657 93.9223 52.3997 93.6072 52.8573C91.2025 56.1324 82.8658 61.0294 78.1805 63.869C78.028 64.0504 77.8927 64.2118 78.1687 64.3745C82.0035 63.7774 90.0982 61.6676 92.9173 61.4209C93.4365 61.3754 93.4502 61.3182 93.0545 61.7079C90.024 64.6642 81.3606 67.5341 77.4451 68.9232C77.0905 69.1412 77.0157 69.3532 77.2408 69.5765C80.7031 70.4882 88.5456 70.1947 90.0045 70.4221C90.4761 70.4743 90.4021 70.4809 90.074 70.7897C88.0582 72.7415 79.2734 73.5848 74.8488 74.0653C74.4441 74.1383 74.3288 74.3165 74.4968 74.5261L84.7934 78.148C85.2444 78.3889 85.241 78.3518 84.7484 78.4884C76.7039 80.7433 69.1493 77.7038 63.2612 72.3508C63.2412 72.3337 63.2006 72.3 63.1604 72.266C66.0698 73.2636 68.9405 74.6759 72.0081 74.7065C72.6621 74.7054 72.685 73.8997 72.011 73.8839C68.9805 73.85 66.0661 72.3668 63.2375 71.4371C66.9115 71.5641 70.8017 71.5975 74.2985 70.3384C74.9162 70.1349 74.6424 69.3553 74.0247 69.5588C70.3828 70.8679 66.203 70.7291 62.4145 70.5746C66.813 69.7974 71.1058 68.4498 75.0107 66.0899C75.5784 65.7413 75.1424 65.0317 74.575 65.3806C70.7238 67.7171 66.465 69.0241 62.0832 69.7813C66.5966 67.9661 70.833 65.334 74.4878 62.2485C74.9915 61.8119 74.4509 61.1863 73.9473 61.6229C70.3262 64.6681 66.1609 67.2566 61.7015 69.0483C66.0361 66.2584 69.7898 62.809 73.0431 58.7677C73.4662 58.2635 72.804 57.7422 72.418 58.2432C69.3001 62.1229 65.7051 65.4649 61.5495 68.1647C65.1822 64.6136 68.2001 60.4436 70.6661 55.9481C70.9712 55.3794 70.2446 54.9757 69.9391 55.5445C67.5716 59.882 64.6722 63.9106 61.1812 67.3745C64.1654 63.245 66.52 58.759 68.357 53.9076C68.585 53.3083 67.8107 53.0024 67.5827 53.6016C65.7562 58.3588 63.4521 62.784 60.519 66.8532C62.7665 62.2087 64.4613 57.4441 65.8507 52.3889C66.0213 51.7757 65.2164 51.5471 65.0658 52.1772C63.663 57.2898 61.9987 61.9767 59.7141 66.6247C61.1604 61.5828 62.2394 56.6105 62.901 51.3573C62.9942 50.7138 62.162 50.5995 62.0888 51.2601C61.4376 56.4191 60.325 61.4317 58.9092 66.3959C59.4055 61.1758 59.6762 55.9378 59.8726 50.7064C59.9084 50.0493 59.0659 50.0295 59.0467 50.6667C58.84 55.9923 58.553 61.0447 58.0462 66.3593C57.4137 61.051 57.0496 56.0368 56.7139 50.7025C56.6754 50.0519 55.8563 50.0861 55.8777 50.757C56.2036 55.9799 56.587 61.2166 57.1728 66.4169C55.6389 61.4865 54.4556 56.5068 53.6876 51.3597C53.592 50.6954 52.7826 50.841 52.8748 51.4682C53.6494 56.6895 54.8326 61.6692 56.3732 66.6739C53.9885 62.0607 52.2176 57.4128 50.7076 52.3307C50.521 51.6927 49.7382 51.9294 49.9246 52.5674C51.4111 57.5955 53.2087 62.3345 55.553 66.9138C52.5294 62.8985 50.1473 58.5284 48.2213 53.8191C47.9807 53.2046 47.2042 53.5155 47.4449 54.1298C49.3975 58.9302 51.84 63.3514 54.8871 67.4206C51.3016 64.0339 48.3385 60.0694 45.8685 55.763C45.54 55.2122 44.8272 55.6111 45.1558 56.1616C47.6926 60.5931 50.7803 64.6963 54.5238 68.1813C50.2953 65.561 46.6453 62.2922 43.4523 58.4786C43.0157 57.9749 42.3902 58.5155 42.8066 59.0023C46.1239 62.9543 49.9522 66.3385 54.3558 69.037C49.8914 67.3532 45.6353 64.8474 41.9573 61.8985C41.4531 61.4754 40.9317 62.1379 41.4327 62.5239C45.1542 65.5436 49.4675 68.063 53.9925 69.7976C49.5989 69.1354 45.3048 67.904 41.4255 65.6455C40.8535 65.3032 40.4499 66.0299 41.0017 66.3553C44.9383 68.6275 49.2356 69.8961 53.6865 70.572C49.8761 70.8118 45.7087 71.0269 42.0519 69.8145C41.4356 69.6067 41.1667 70.3777 41.7829 70.5854C45.3051 71.7536 49.2026 71.6557 52.8645 71.4287C50.0562 72.4408 47.1618 73.9648 44.1613 74.059C43.4903 74.0804 43.5247 74.8997 44.1956 74.8784C47.3074 74.7744 50.1139 73.3142 53.0301 72.2552C52.9964 72.2957 52.9625 72.336 52.9285 72.3763L52.8206 72.4232ZM57.227 71.3087L56.755 95.1784C56.7497 95.7581 56.6449 95.8421 57.0261 95.7152C57.8397 95.4011 58.6251 95.4072 59.3963 95.676C59.7634 95.8121 59.7328 95.8895 59.701 95.3129L58.7473 71.3813C58.7039 70.2452 57.2242 70.2065 57.2102 71.3289L57.227 71.3087Z"/>
</mask>
<path fill-rule="evenodd" clip-rule="evenodd" d="M30.0476 54.7922C29.8661 54.64 29.6845 54.4876 29.503 54.3354C28.0241 53.0255 26.5791 51.6756 25.222 50.262C24.0698 49.0545 22.8707 47.7391 21.9249 46.3268C21.8409 46.222 21.7941 46.1138 21.7102 46.009C21.2776 45.3368 21.2602 44.4972 21.859 43.8655C22.4579 43.2339 23.2974 43.2165 23.9871 43.6233C24.0879 43.7078 24.2226 43.7523 24.3033 43.82C25.7029 44.6507 27.0953 45.6128 28.4473 46.5411C30.1592 47.7367 31.871 48.9326 33.5998 50.1082C33.0325 49.3918 32.4652 48.6751 31.935 47.9553C30.5858 46.2044 29.2704 44.4132 28.046 42.5954C27.013 41.0412 25.9702 39.3756 25.2041 37.6672C25.1605 37.5963 25.1169 37.5253 25.1104 37.4512C24.7487 36.7352 24.8257 35.9062 25.5221 35.322C26.1847 34.7781 27.0912 34.8857 27.6963 35.3934C27.777 35.4611 27.8576 35.5288 27.9585 35.6134C29.2591 36.8079 30.5089 38.0628 31.7418 39.3379C33.0118 40.6097 34.2817 41.8816 35.5348 43.1736C35.5146 43.1567 35.4912 43.1028 35.488 43.0656C34.3015 41.0389 33.1319 38.992 32.0703 36.8983C31.1896 35.1625 30.2822 33.3357 29.6345 31.4861C29.3373 30.6524 29.0603 29.8356 30.1381 29.1246C30.8813 28.6484 31.7572 28.8335 32.2946 29.4219C32.3954 29.5065 32.4423 29.6145 32.5431 29.6991C33.7721 31.1428 34.9333 32.6671 36.0575 34.1947C37.0743 35.5635 38.0911 36.9322 39.091 38.3211C38.2819 36.3362 37.493 34.3681 36.7581 32.3766C36.0498 30.4763 35.352 28.4816 34.8631 26.5246C34.6538 25.6272 34.5492 24.6458 35.7207 24.1509C36.2069 23.9401 36.6246 24.0157 36.894 24.1043C37.5103 24.312 37.7112 24.6869 38.0332 25.1633C39.1873 26.8192 40.2398 28.5959 41.2149 30.3421C42.0326 31.7844 42.8333 33.2468 43.597 34.7125C43.1113 32.7926 42.6627 30.8695 42.2141 28.9465C41.7526 26.875 41.3047 24.7463 41.0253 22.6215C40.9071 21.6975 40.9881 20.6999 42.1927 20.3702C42.9046 20.1771 43.662 20.5033 44.0511 21.1046C44.1616 21.3006 44.1414 21.2837 44.1649 21.3377C44.2117 21.4457 44.2585 21.5537 44.3425 21.6585C45.3443 23.4958 46.1937 25.5147 46.9994 27.4626C47.5944 28.9243 48.1726 30.4062 48.734 31.9082C48.521 30.1141 48.328 28.3368 48.1892 26.5362C48.0178 24.3646 47.8401 22.1188 47.8914 19.9277C47.9249 19.0277 48.0694 18.118 49.304 17.9165C50.2619 17.758 50.789 18.4407 50.8293 18.4746C50.9736 18.6301 51.0204 18.7382 51.0641 18.8091C51.1513 18.951 51.1344 18.9712 51.1779 19.0421C51.2247 19.1501 51.2513 19.2412 51.2982 19.3493C52.0565 21.3948 52.6423 23.6049 53.1644 25.7271C53.68 27.7751 54.1044 29.8499 54.5459 31.9044C54.627 29.8415 54.7284 27.7956 54.8869 25.7633C55.0462 23.5254 55.2466 21.1157 55.6889 18.9091C55.7131 18.7575 55.7542 18.5857 55.7781 18.4341C55.9527 17.6525 56.5114 16.987 57.4282 17.0002C58.325 16.9965 58.9026 17.6187 59.1022 18.4049C59.1354 18.5702 59.1854 18.7153 59.2186 18.8806C59.7067 21.0432 59.9516 23.4139 60.1836 25.6363C60.3724 27.5821 60.5274 29.5682 60.6422 31.5205C61.0129 29.5631 61.4005 27.5856 61.8286 25.6419C62.301 23.5635 62.8036 21.4076 63.5253 19.4009C63.5695 19.2662 63.6138 19.1315 63.6751 18.9766C63.7025 18.8621 63.6854 18.8823 63.8007 18.704C63.8515 18.6435 63.8789 18.529 64.0142 18.3676C64.0479 18.3273 64.5864 17.6448 65.5332 17.7862C66.8204 17.9726 66.945 18.9709 66.9892 19.9015C67.1032 22.0594 66.981 24.2941 66.8354 26.4747C66.708 28.2239 66.5808 29.9731 66.4131 31.6884C66.9373 30.2035 67.4615 28.7186 68.0429 27.2474C68.8049 25.2745 69.6005 23.2612 70.5776 21.4003C70.6758 21.2422 70.7372 21.0873 70.8354 20.9292C70.9202 20.8284 70.8999 20.8115 71.0352 20.6501C71.4923 20.1055 72.238 19.8721 72.9149 20.1306C74.2479 20.6307 74.0155 21.6041 73.9112 22.5477C73.7019 24.6405 73.2901 26.7697 72.8751 28.8617C72.4978 30.7449 72.0802 32.5943 71.6627 34.4436C72.3925 32.9594 73.1626 31.5091 73.9328 30.0587C74.8796 28.2752 75.8801 26.4683 77.022 24.7799C77.1065 24.679 77.1879 24.5411 77.2524 24.4233C77.3201 24.3426 77.3201 24.3426 77.4385 24.2014C77.8956 23.6569 78.7018 23.4742 79.3816 23.7698C80.607 24.3167 80.4117 25.2869 80.2097 26.183C79.7647 28.1468 79.1173 30.1471 78.4435 32.0563C77.7558 34.0227 77.031 35.9924 76.2692 37.9653C77.2313 36.5729 78.1934 35.1805 79.1589 33.8252C80.2563 32.2714 81.374 30.7346 82.5725 29.2655C82.657 29.1646 82.7418 29.0638 82.8263 28.9629C83.3511 28.3377 84.2284 28.1114 84.9785 28.5691C86.1022 29.237 85.8229 30.1025 85.5435 30.9679C84.9403 32.8334 84.0746 34.6847 83.2189 36.4415C82.187 38.5315 81.0809 40.628 79.9514 42.6704C79.9514 42.6704 79.9175 42.7107 79.9006 42.731C81.1152 41.4472 82.3129 40.1838 83.5275 38.9001C84.742 37.6164 85.9769 36.3497 87.2149 35.1201C87.2994 35.0192 87.4042 34.9353 87.509 34.8514C88.0975 34.314 88.9813 34.1619 89.6806 34.6801C90.4002 35.2151 90.5121 36.0651 90.1656 36.8055C90.1182 36.9031 90.0706 37.0008 90.0432 37.1153C89.3128 38.8051 88.3194 40.4806 87.3331 42.0246C86.1673 43.8647 84.9206 45.637 83.6336 47.3755C83.1154 48.0751 82.5804 48.7947 82.0454 49.5142C83.7349 48.3197 85.3674 47.1117 87.0569 45.9174C88.395 44.978 89.7639 43.9611 91.1659 43.1096C91.2907 43.0427 91.3955 42.9587 91.5034 42.9119C92.1993 42.5333 93.0621 42.5699 93.6229 43.2123C94.1838 43.8547 94.164 44.6975 93.7169 45.3534C93.649 45.434 93.5814 45.5148 93.5171 45.6325C92.6322 47.0553 91.4613 48.41 90.3144 49.613C88.9645 51.0579 87.5338 52.4355 86.0999 53.7757C85.9274 53.9402 85.7549 54.1048 85.5822 54.2693C86.7305 53.7204 87.9155 53.1682 89.0838 52.6361C90.3228 52.0606 91.6161 51.4616 92.902 50.994C93.7528 50.6764 94.7003 50.6124 95.287 51.5516C95.7196 52.2238 95.5653 53.0221 95.0945 53.624C95.0268 53.7048 94.9592 53.7854 94.8915 53.8662C93.9229 55.1843 92.4589 56.3962 91.1814 57.3865C89.5522 58.6316 87.8255 59.8293 86.0891 60.9157C86.0011 60.9794 85.8763 61.0465 85.7884 61.1102C86.9253 60.8612 88.0622 60.6123 89.1822 60.3835C90.3394 60.1513 91.5506 59.8959 92.7375 59.7919C93.5534 59.7206 94.3251 59.784 94.7806 60.7158C95.1019 61.398 94.9241 62.1423 94.4268 62.6531C94.3591 62.734 94.2743 62.8345 94.1867 62.8985C92.1709 64.8503 88.5548 66.4562 85.9756 67.5228C85.0743 67.9006 84.1697 68.2415 83.265 68.5822C84.5965 68.6339 85.9245 68.6486 87.2731 68.6802C88.1899 68.6934 89.3091 68.6702 90.1988 68.7979C90.9737 68.8982 91.6569 69.231 91.9002 70.088C92.0866 70.7257 91.8789 71.3421 91.4326 71.7923C91.3647 71.8729 91.297 71.9537 91.2093 72.0174C89.5553 73.6199 85.0551 74.5182 80.8629 75.0906L85.4321 76.6904L85.533 76.7752C85.533 76.7752 85.7452 76.8499 85.8258 76.9176C86.4179 77.277 86.7899 77.8986 86.7033 78.6164C86.5819 79.58 85.92 79.9184 85.1372 80.1551C76.5799 82.5294 68.4592 79.4276 62.104 73.648C61.6804 73.2926 61.1222 72.8929 60.4961 72.5738L61.4066 95.3693C61.4376 96.1515 61.3847 96.8289 60.6214 97.2881C59.9829 97.6804 59.5045 97.5541 58.9084 97.3634C58.4843 97.2136 58.1101 97.2089 57.6949 97.3761C57.0435 97.6199 56.4129 97.6752 55.8111 97.2044C55.1083 96.6494 55.1507 96.0662 55.1599 95.3179L55.5875 72.6483C54.9627 72.9832 54.3985 73.3689 53.9656 73.762C47.7061 79.5426 39.6457 82.4715 31.1597 80.7472C30.341 80.5758 29.5804 80.2125 29.4557 79.2143C29.3738 78.4926 29.767 77.8602 30.3717 77.5082C30.4595 77.4445 30.5507 77.4179 30.6385 77.3539L30.7466 77.3073L35.0302 75.643C30.9325 75.1604 26.5089 74.37 24.8186 72.7799C24.7379 72.712 24.6572 72.6444 24.5765 72.5767C24.1263 72.1301 23.9059 71.5327 24.0563 70.9029C24.2784 70.0238 24.9605 69.7026 25.716 69.5804C26.62 69.4451 27.7223 69.4422 28.636 69.4182C29.9779 69.3756 31.2995 69.3161 32.6382 69.2363C31.7324 68.9232 30.8435 68.5896 29.9345 68.2394C27.322 67.2158 23.6762 65.7034 21.6228 63.8085C21.5421 63.7408 21.4615 63.6731 21.3606 63.5884C20.8499 63.0913 20.6197 62.3825 20.912 61.6653C21.3132 60.6958 22.109 60.6076 22.9348 60.6474C24.1179 60.7121 25.3341 60.942 26.493 61.1584C27.6318 61.3577 28.7738 61.5944 29.9327 61.8106C29.8319 61.7261 29.677 61.6647 29.5762 61.5802C27.7999 60.502 26.0542 59.3467 24.3963 58.1274C23.0781 57.1587 21.609 55.9605 20.5987 54.6658C20.5147 54.5611 20.4308 54.4563 20.3638 54.3312C19.9176 53.7162 19.8462 52.9002 20.3506 52.258C20.8551 51.6159 21.6276 51.4734 22.3414 51.7288C22.4559 51.7562 22.5737 51.8204 22.6882 51.8478C23.9812 52.3141 25.2637 52.8747 26.5059 53.4015C27.6706 53.8976 28.8184 54.4139 29.9662 54.9302L30.0476 54.7922ZM52.8206 72.4232C47.0447 77.7501 39.5206 80.6137 31.4724 78.9818C30.9199 78.8618 30.9974 78.8926 31.4601 78.6277L41.5464 74.7178C41.6245 74.5427 41.5406 74.4379 41.2946 74.4034C37.0752 74.0251 28.0663 73.3742 25.9492 71.3913C25.6064 71.1035 25.5289 71.073 26.0079 70.9938C27.4819 70.7526 35.3228 70.8703 38.7681 69.8774C38.9849 69.578 38.8912 69.3621 38.5444 69.2429C34.5979 67.9248 25.8791 65.2489 22.7874 62.3796C22.384 62.0412 22.3638 62.0244 22.8929 62.0902C25.7307 62.2716 33.8621 64.2142 37.7203 64.7363C37.9565 64.6594 37.9403 64.4741 37.7152 64.2508C32.951 61.4904 24.4988 56.7353 22.0085 53.4771C21.5889 52.9531 21.6526 53.0411 22.2116 53.2351C25.5685 54.4365 33.9155 58.4159 38.1945 60.116C38.3597 60.0829 38.5017 59.9957 38.3039 59.6579C34.2603 56.1616 26.1878 49.7662 23.28 45.3671C22.9345 44.8368 22.8974 44.84 23.4492 45.1654C25.8515 46.5625 31.5414 50.7183 36.4017 53.9373C37.5924 54.7301 38.7395 55.452 39.7656 56.0726C40.1229 56.0974 40.3995 56.0545 40.0742 55.541C36.271 50.7343 29.0756 42.1876 26.6931 36.9576C26.5292 36.5795 26.405 36.4408 26.8116 36.8164C30.3705 40.112 38.0325 48.2254 42.4886 52.3768C42.7749 52.4452 43.0209 52.4797 42.8134 52.0308C39.4678 46.474 33.1168 36.4703 31.1535 30.9047C31.0033 30.4693 30.8556 30.2766 31.2518 30.7465C34.7506 34.851 41.5338 44.6673 45.3356 49.8852C45.6519 50.0816 45.7566 49.9979 45.67 49.6504C43.0451 43.3576 37.9191 31.9761 36.4725 26.1222C36.3861 25.7747 36.3562 25.6465 36.3763 25.6634C36.3965 25.6803 36.5038 25.8391 36.6749 26.0858C39.9426 30.7524 45.5144 41.8895 48.4465 48.0619C48.6684 48.2481 48.7564 48.1843 48.7337 47.9245C46.9978 40.8999 43.4461 28.5023 42.6881 22.4013C42.6062 21.6796 42.6257 21.9022 42.9139 22.4189C45.7214 27.5931 49.8911 39.5816 51.9343 46.4858C52.0409 46.8502 52.274 46.7365 52.2416 46.3655C51.3869 38.9461 49.384 26.0952 49.5736 19.93C49.5789 19.3502 49.562 19.3704 49.759 19.9138C51.9475 25.7028 54.152 38.7229 55.5025 46.043C55.6333 46.2557 55.7616 46.2257 55.9106 46.0072C55.9079 37.8591 56.2265 24.4126 57.2858 19.2179C57.4403 18.4195 57.4032 18.4227 57.5859 19.229C58.7813 24.5629 59.4537 38.0161 59.5919 46.0027C59.642 46.148 59.7531 46.1383 59.8547 46.0172C61.0316 38.962 62.974 25.9154 65.0674 19.9388C65.3057 19.2451 65.3025 19.208 65.3133 19.9733C65.5924 26.1536 63.8592 39.2379 63.1735 46.5677C63.2607 46.7096 63.3752 46.737 63.4597 46.6362C65.3407 39.725 69.293 27.4371 72.0247 22.1334C72.4557 21.2921 72.3059 21.7163 72.233 22.3768C71.6161 28.3552 68.3646 40.75 66.773 47.7668C66.7862 47.915 66.9207 47.9592 67.0829 47.8892C69.8989 41.6249 75.2129 30.3766 78.3709 25.671C78.7842 25.0555 78.7163 25.1362 78.5691 25.8032C77.2313 31.6577 72.3649 43.1099 69.8925 49.4561C69.8949 49.6988 70.0129 49.7633 70.2288 49.6696C73.8809 44.4163 80.448 34.4599 83.84 30.2946C84.2631 29.7904 84.1446 29.9315 83.9843 30.4502C82.1552 36.03 76.0325 46.153 72.804 51.7617C72.7527 52.0279 72.8567 52.1496 73.1334 52.1066C77.4728 47.8771 84.9205 39.6566 88.3839 36.3073C88.8676 35.8538 88.7628 35.9378 88.5453 36.4427C86.262 41.7444 79.2474 50.4318 75.6108 55.2167C75.5052 55.506 75.6126 55.6651 75.8754 55.6793C81.0372 52.5179 89.0208 46.3624 92.0342 44.4914C92.5848 44.1628 92.46 44.2299 92.1651 44.7041C89.3586 49.1546 81.4477 55.7151 77.4643 59.3154C77.3322 59.5139 77.3653 59.6792 77.5976 59.7711C81.8885 57.9752 90.1554 53.7759 93.5205 52.5097C94.1722 52.2657 93.9223 52.3997 93.6072 52.8573C91.2025 56.1324 82.8658 61.0294 78.1805 63.869C78.028 64.0504 77.8927 64.2118 78.1687 64.3745C82.0035 63.7774 90.0982 61.6676 92.9173 61.4209C93.4365 61.3754 93.4502 61.3182 93.0545 61.7079C90.024 64.6642 81.3606 67.5341 77.4451 68.9232C77.0905 69.1412 77.0157 69.3532 77.2408 69.5765C80.7031 70.4882 88.5456 70.1947 90.0045 70.4221C90.4761 70.4743 90.4021 70.4809 90.074 70.7897C88.0582 72.7415 79.2734 73.5848 74.8488 74.0653C74.4441 74.1383 74.3288 74.3165 74.4968 74.5261L84.7934 78.148C85.2444 78.3889 85.241 78.3518 84.7484 78.4884C76.7039 80.7433 69.1493 77.7038 63.2612 72.3508C63.2412 72.3337 63.2006 72.3 63.1604 72.266C66.0698 73.2636 68.9405 74.6759 72.0081 74.7065C72.6621 74.7054 72.685 73.8997 72.011 73.8839C68.9805 73.85 66.0661 72.3668 63.2375 71.4371C66.9115 71.5641 70.8017 71.5975 74.2985 70.3384C74.9162 70.1349 74.6424 69.3553 74.0247 69.5588C70.3828 70.8679 66.203 70.7291 62.4145 70.5746C66.813 69.7974 71.1058 68.4498 75.0107 66.0899C75.5784 65.7413 75.1424 65.0317 74.575 65.3806C70.7238 67.7171 66.465 69.0241 62.0832 69.7813C66.5966 67.9661 70.833 65.334 74.4878 62.2485C74.9915 61.8119 74.4509 61.1863 73.9473 61.6229C70.3262 64.6681 66.1609 67.2566 61.7015 69.0483C66.0361 66.2584 69.7898 62.809 73.0431 58.7677C73.4662 58.2635 72.804 57.7422 72.418 58.2432C69.3001 62.1229 65.7051 65.4649 61.5495 68.1647C65.1822 64.6136 68.2001 60.4436 70.6661 55.9481C70.9712 55.3794 70.2446 54.9757 69.9391 55.5445C67.5716 59.882 64.6722 63.9106 61.1812 67.3745C64.1654 63.245 66.52 58.759 68.357 53.9076C68.585 53.3083 67.8107 53.0024 67.5827 53.6016C65.7562 58.3588 63.4521 62.784 60.519 66.8532C62.7665 62.2087 64.4613 57.4441 65.8507 52.3889C66.0213 51.7757 65.2164 51.5471 65.0658 52.1772C63.663 57.2898 61.9987 61.9767 59.7141 66.6247C61.1604 61.5828 62.2394 56.6105 62.901 51.3573C62.9942 50.7138 62.162 50.5995 62.0888 51.2601C61.4376 56.4191 60.325 61.4317 58.9092 66.3959C59.4055 61.1758 59.6762 55.9378 59.8726 50.7064C59.9084 50.0493 59.0659 50.0295 59.0467 50.6667C58.84 55.9923 58.553 61.0447 58.0462 66.3593C57.4137 61.051 57.0496 56.0368 56.7139 50.7025C56.6754 50.0519 55.8563 50.0861 55.8777 50.757C56.2036 55.9799 56.587 61.2166 57.1728 66.4169C55.6389 61.4865 54.4556 56.5068 53.6876 51.3597C53.592 50.6954 52.7826 50.841 52.8748 51.4682C53.6494 56.6895 54.8326 61.6692 56.3732 66.6739C53.9885 62.0607 52.2176 57.4128 50.7076 52.3307C50.521 51.6927 49.7382 51.9294 49.9246 52.5674C51.4111 57.5955 53.2087 62.3345 55.553 66.9138C52.5294 62.8985 50.1473 58.5284 48.2213 53.8191C47.9807 53.2046 47.2042 53.5155 47.4449 54.1298C49.3975 58.9302 51.84 63.3514 54.8871 67.4206C51.3016 64.0339 48.3385 60.0694 45.8685 55.763C45.54 55.2122 44.8272 55.6111 45.1558 56.1616C47.6926 60.5931 50.7803 64.6963 54.5238 68.1813C50.2953 65.561 46.6453 62.2922 43.4523 58.4786C43.0157 57.9749 42.3902 58.5155 42.8066 59.0023C46.1239 62.9543 49.9522 66.3385 54.3558 69.037C49.8914 67.3532 45.6353 64.8474 41.9573 61.8985C41.4531 61.4754 40.9317 62.1379 41.4327 62.5239C45.1542 65.5436 49.4675 68.063 53.9925 69.7976C49.5989 69.1354 45.3048 67.904 41.4255 65.6455C40.8535 65.3032 40.4499 66.0299 41.0017 66.3553C44.9383 68.6275 49.2356 69.8961 53.6865 70.572C49.8761 70.8118 45.7087 71.0269 42.0519 69.8145C41.4356 69.6067 41.1667 70.3777 41.7829 70.5854C45.3051 71.7536 49.2026 71.6557 52.8645 71.4287C50.0562 72.4408 47.1618 73.9648 44.1613 74.059C43.4903 74.0804 43.5247 74.8997 44.1956 74.8784C47.3074 74.7744 50.1139 73.3142 53.0301 72.2552C52.9964 72.2957 52.9625 72.336 52.9285 72.3763L52.8206 72.4232ZM57.227 71.3087L56.755 95.1784C56.7497 95.7581 56.6449 95.8421 57.0261 95.7152C57.8397 95.4011 58.6251 95.4072 59.3963 95.676C59.7634 95.8121 59.7328 95.8895 59.701 95.3129L58.7473 71.3813C58.7039 70.2452 57.2242 70.2065 57.2102 71.3289L57.227 71.3087Z" fill="black"/>
<path fill-rule="evenodd" clip-rule="evenodd" d="M30.0476 54.7922C29.8661 54.64 29.6845 54.4876 29.503 54.3354C28.0241 53.0255 26.5791 51.6756 25.222 50.262C24.0698 49.0545 22.8707 47.7391 21.9249 46.3268C21.8409 46.222 21.7941 46.1138 21.7102 46.009C21.2776 45.3368 21.2602 44.4972 21.859 43.8655C22.4579 43.2339 23.2974 43.2165 23.9871 43.6233C24.0879 43.7078 24.2226 43.7523 24.3033 43.82C25.7029 44.6507 27.0953 45.6128 28.4473 46.5411C30.1592 47.7367 31.871 48.9326 33.5998 50.1082C33.0325 49.3918 32.4652 48.6751 31.935 47.9553C30.5858 46.2044 29.2704 44.4132 28.046 42.5954C27.013 41.0412 25.9702 39.3756 25.2041 37.6672C25.1605 37.5963 25.1169 37.5253 25.1104 37.4512C24.7487 36.7352 24.8257 35.9062 25.5221 35.322C26.1847 34.7781 27.0912 34.8857 27.6963 35.3934C27.777 35.4611 27.8576 35.5288 27.9585 35.6134C29.2591 36.8079 30.5089 38.0628 31.7418 39.3379C33.0118 40.6097 34.2817 41.8816 35.5348 43.1736C35.5146 43.1567 35.4912 43.1028 35.488 43.0656C34.3015 41.0389 33.1319 38.992 32.0703 36.8983C31.1896 35.1625 30.2822 33.3357 29.6345 31.4861C29.3373 30.6524 29.0603 29.8356 30.1381 29.1246C30.8813 28.6484 31.7572 28.8335 32.2946 29.4219C32.3954 29.5065 32.4423 29.6145 32.5431 29.6991C33.7721 31.1428 34.9333 32.6671 36.0575 34.1947C37.0743 35.5635 38.0911 36.9322 39.091 38.3211C38.2819 36.3362 37.493 34.3681 36.7581 32.3766C36.0498 30.4763 35.352 28.4816 34.8631 26.5246C34.6538 25.6272 34.5492 24.6458 35.7207 24.1509C36.2069 23.9401 36.6246 24.0157 36.894 24.1043C37.5103 24.312 37.7112 24.6869 38.0332 25.1633C39.1873 26.8192 40.2398 28.5959 41.2149 30.3421C42.0326 31.7844 42.8333 33.2468 43.597 34.7125C43.1113 32.7926 42.6627 30.8695 42.2141 28.9465C41.7526 26.875 41.3047 24.7463 41.0253 22.6215C40.9071 21.6975 40.9881 20.6999 42.1927 20.3702C42.9046 20.1771 43.662 20.5033 44.0511 21.1046C44.1616 21.3006 44.1414 21.2837 44.1649 21.3377C44.2117 21.4457 44.2585 21.5537 44.3425 21.6585C45.3443 23.4958 46.1937 25.5147 46.9994 27.4626C47.5944 28.9243 48.1726 30.4062 48.734 31.9082C48.521 30.1141 48.328 28.3368 48.1892 26.5362C48.0178 24.3646 47.8401 22.1188 47.8914 19.9277C47.9249 19.0277 48.0694 18.118 49.304 17.9165C50.2619 17.758 50.789 18.4407 50.8293 18.4746C50.9736 18.6301 51.0204 18.7382 51.0641 18.8091C51.1513 18.951 51.1344 18.9712 51.1779 19.0421C51.2247 19.1501 51.2513 19.2412 51.2982 19.3493C52.0565 21.3948 52.6423 23.6049 53.1644 25.7271C53.68 27.7751 54.1044 29.8499 54.5459 31.9044C54.627 29.8415 54.7284 27.7956 54.8869 25.7633C55.0462 23.5254 55.2466 21.1157 55.6889 18.9091C55.7131 18.7575 55.7542 18.5857 55.7781 18.4341C55.9527 17.6525 56.5114 16.987 57.4282 17.0002C58.325 16.9965 58.9026 17.6187 59.1022 18.4049C59.1354 18.5702 59.1854 18.7153 59.2186 18.8806C59.7067 21.0432 59.9516 23.4139 60.1836 25.6363C60.3724 27.5821 60.5274 29.5682 60.6422 31.5205C61.0129 29.5631 61.4005 27.5856 61.8286 25.6419C62.301 23.5635 62.8036 21.4076 63.5253 19.4009C63.5695 19.2662 63.6138 19.1315 63.6751 18.9766C63.7025 18.8621 63.6854 18.8823 63.8007 18.704C63.8515 18.6435 63.8789 18.529 64.0142 18.3676C64.0479 18.3273 64.5864 17.6448 65.5332 17.7862C66.8204 17.9726 66.945 18.9709 66.9892 19.9015C67.1032 22.0594 66.981 24.2941 66.8354 26.4747C66.708 28.2239 66.5808 29.9731 66.4131 31.6884C66.9373 30.2035 67.4615 28.7186 68.0429 27.2474C68.8049 25.2745 69.6005 23.2612 70.5776 21.4003C70.6758 21.2422 70.7372 21.0873 70.8354 20.9292C70.9202 20.8284 70.8999 20.8115 71.0352 20.6501C71.4923 20.1055 72.238 19.8721 72.9149 20.1306C74.2479 20.6307 74.0155 21.6041 73.9112 22.5477C73.7019 24.6405 73.2901 26.7697 72.8751 28.8617C72.4978 30.7449 72.0802 32.5943 71.6627 34.4436C72.3925 32.9594 73.1626 31.5091 73.9328 30.0587C74.8796 28.2752 75.8801 26.4683 77.022 24.7799C77.1065 24.679 77.1879 24.5411 77.2524 24.4233C77.3201 24.3426 77.3201 24.3426 77.4385 24.2014C77.8956 23.6569 78.7018 23.4742 79.3816 23.7698C80.607 24.3167 80.4117 25.2869 80.2097 26.183C79.7647 28.1468 79.1173 30.1471 78.4435 32.0563C77.7558 34.0227 77.031 35.9924 76.2692 37.9653C77.2313 36.5729 78.1934 35.1805 79.1589 33.8252C80.2563 32.2714 81.374 30.7346 82.5725 29.2655C82.657 29.1646 82.7418 29.0638 82.8263 28.9629C83.3511 28.3377 84.2284 28.1114 84.9785 28.5691C86.1022 29.237 85.8229 30.1025 85.5435 30.9679C84.9403 32.8334 84.0746 34.6847 83.2189 36.4415C82.187 38.5315 81.0809 40.628 79.9514 42.6704C79.9514 42.6704 79.9175 42.7107 79.9006 42.731C81.1152 41.4472 82.3129 40.1838 83.5275 38.9001C84.742 37.6164 85.9769 36.3497 87.2149 35.1201C87.2994 35.0192 87.4042 34.9353 87.509 34.8514C88.0975 34.314 88.9813 34.1619 89.6806 34.6801C90.4002 35.2151 90.5121 36.0651 90.1656 36.8055C90.1182 36.9031 90.0706 37.0008 90.0432 37.1153C89.3128 38.8051 88.3194 40.4806 87.3331 42.0246C86.1673 43.8647 84.9206 45.637 83.6336 47.3755C83.1154 48.0751 82.5804 48.7947 82.0454 49.5142C83.7349 48.3197 85.3674 47.1117 87.0569 45.9174C88.395 44.978 89.7639 43.9611 91.1659 43.1096C91.2907 43.0427 91.3955 42.9587 91.5034 42.9119C92.1993 42.5333 93.0621 42.5699 93.6229 43.2123C94.1838 43.8547 94.164 44.6975 93.7169 45.3534C93.649 45.434 93.5814 45.5148 93.5171 45.6325C92.6322 47.0553 91.4613 48.41 90.3144 49.613C88.9645 51.0579 87.5338 52.4355 86.0999 53.7757C85.9274 53.9402 85.7549 54.1048 85.5822 54.2693C86.7305 53.7204 87.9155 53.1682 89.0838 52.6361C90.3228 52.0606 91.6161 51.4616 92.902 50.994C93.7528 50.6764 94.7003 50.6124 95.287 51.5516C95.7196 52.2238 95.5653 53.0221 95.0945 53.624C95.0268 53.7048 94.9592 53.7854 94.8915 53.8662C93.9229 55.1843 92.4589 56.3962 91.1814 57.3865C89.5522 58.6316 87.8255 59.8293 86.0891 60.9157C86.0011 60.9794 85.8763 61.0465 85.7884 61.1102C86.9253 60.8612 88.0622 60.6123 89.1822 60.3835C90.3394 60.1513 91.5506 59.8959 92.7375 59.7919C93.5534 59.7206 94.3251 59.784 94.7806 60.7158C95.1019 61.398 94.9241 62.1423 94.4268 62.6531C94.3591 62.734 94.2743 62.8345 94.1867 62.8985C92.1709 64.8503 88.5548 66.4562 85.9756 67.5228C85.0743 67.9006 84.1697 68.2415 83.265 68.5822C84.5965 68.6339 85.9245 68.6486 87.2731 68.6802C88.1899 68.6934 89.3091 68.6702 90.1988 68.7979C90.9737 68.8982 91.6569 69.231 91.9002 70.088C92.0866 70.7257 91.8789 71.3421 91.4326 71.7923C91.3647 71.8729 91.297 71.9537 91.2093 72.0174C89.5553 73.6199 85.0551 74.5182 80.8629 75.0906L85.4321 76.6904L85.533 76.7752C85.533 76.7752 85.7452 76.8499 85.8258 76.9176C86.4179 77.277 86.7899 77.8986 86.7033 78.6164C86.5819 79.58 85.92 79.9184 85.1372 80.1551C76.5799 82.5294 68.4592 79.4276 62.104 73.648C61.6804 73.2926 61.1222 72.8929 60.4961 72.5738L61.4066 95.3693C61.4376 96.1515 61.3847 96.8289 60.6214 97.2881C59.9829 97.6804 59.5045 97.5541 58.9084 97.3634C58.4843 97.2136 58.1101 97.2089 57.6949 97.3761C57.0435 97.6199 56.4129 97.6752 55.8111 97.2044C55.1083 96.6494 55.1507 96.0662 55.1599 95.3179L55.5875 72.6483C54.9627 72.9832 54.3985 73.3689 53.9656 73.762C47.7061 79.5426 39.6457 82.4715 31.1597 80.7472C30.341 80.5758 29.5804 80.2125 29.4557 79.2143C29.3738 78.4926 29.767 77.8602 30.3717 77.5082C30.4595 77.4445 30.5507 77.4179 30.6385 77.3539L30.7466 77.3073L35.0302 75.643C30.9325 75.1604 26.5089 74.37 24.8186 72.7799C24.7379 72.712 24.6572 72.6444 24.5765 72.5767C24.1263 72.1301 23.9059 71.5327 24.0563 70.9029C24.2784 70.0238 24.9605 69.7026 25.716 69.5804C26.62 69.4451 27.7223 69.4422 28.636 69.4182C29.9779 69.3756 31.2995 69.3161 32.6382 69.2363C31.7324 68.9232 30.8435 68.5896 29.9345 68.2394C27.322 67.2158 23.6762 65.7034 21.6228 63.8085C21.5421 63.7408 21.4615 63.6731 21.3606 63.5884C20.8499 63.0913 20.6197 62.3825 20.912 61.6653C21.3132 60.6958 22.109 60.6076 22.9348 60.6474C24.1179 60.7121 25.3341 60.942 26.493 61.1584C27.6318 61.3577 28.7738 61.5944 29.9327 61.8106C29.8319 61.7261 29.677 61.6647 29.5762 61.5802C27.7999 60.502 26.0542 59.3467 24.3963 58.1274C23.0781 57.1587 21.609 55.9605 20.5987 54.6658C20.5147 54.5611 20.4308 54.4563 20.3638 54.3312C19.9176 53.7162 19.8462 52.9002 20.3506 52.258C20.8551 51.6159 21.6276 51.4734 22.3414 51.7288C22.4559 51.7562 22.5737 51.8204 22.6882 51.8478C23.9812 52.3141 25.2637 52.8747 26.5059 53.4015C27.6706 53.8976 28.8184 54.4139 29.9662 54.9302L30.0476 54.7922ZM52.8206 72.4232C47.0447 77.7501 39.5206 80.6137 31.4724 78.9818C30.9199 78.8618 30.9974 78.8926 31.4601 78.6277L41.5464 74.7178C41.6245 74.5427 41.5406 74.4379 41.2946 74.4034C37.0752 74.0251 28.0663 73.3742 25.9492 71.3913C25.6064 71.1035 25.5289 71.073 26.0079 70.9938C27.4819 70.7526 35.3228 70.8703 38.7681 69.8774C38.9849 69.578 38.8912 69.3621 38.5444 69.2429C34.5979 67.9248 25.8791 65.2489 22.7874 62.3796C22.384 62.0412 22.3638 62.0244 22.8929 62.0902C25.7307 62.2716 33.8621 64.2142 37.7203 64.7363C37.9565 64.6594 37.9403 64.4741 37.7152 64.2508C32.951 61.4904 24.4988 56.7353 22.0085 53.4771C21.5889 52.9531 21.6526 53.0411 22.2116 53.2351C25.5685 54.4365 33.9155 58.4159 38.1945 60.116C38.3597 60.0829 38.5017 59.9957 38.3039 59.6579C34.2603 56.1616 26.1878 49.7662 23.28 45.3671C22.9345 44.8368 22.8974 44.84 23.4492 45.1654C25.8515 46.5625 31.5414 50.7183 36.4017 53.9373C37.5924 54.7301 38.7395 55.452 39.7656 56.0726C40.1229 56.0974 40.3995 56.0545 40.0742 55.541C36.271 50.7343 29.0756 42.1876 26.6931 36.9576C26.5292 36.5795 26.405 36.4408 26.8116 36.8164C30.3705 40.112 38.0325 48.2254 42.4886 52.3768C42.7749 52.4452 43.0209 52.4797 42.8134 52.0308C39.4678 46.474 33.1168 36.4703 31.1535 30.9047C31.0033 30.4693 30.8556 30.2766 31.2518 30.7465C34.7506 34.851 41.5338 44.6673 45.3356 49.8852C45.6519 50.0816 45.7566 49.9979 45.67 49.6504C43.0451 43.3576 37.9191 31.9761 36.4725 26.1222C36.3861 25.7747 36.3562 25.6465 36.3763 25.6634C36.3965 25.6803 36.5038 25.8391 36.6749 26.0858C39.9426 30.7524 45.5144 41.8895 48.4465 48.0619C48.6684 48.2481 48.7564 48.1843 48.7337 47.9245C46.9978 40.8999 43.4461 28.5023 42.6881 22.4013C42.6062 21.6796 42.6257 21.9022 42.9139 22.4189C45.7214 27.5931 49.8911 39.5816 51.9343 46.4858C52.0409 46.8502 52.274 46.7365 52.2416 46.3655C51.3869 38.9461 49.384 26.0952 49.5736 19.93C49.5789 19.3502 49.562 19.3704 49.759 19.9138C51.9475 25.7028 54.152 38.7229 55.5025 46.043C55.6333 46.2557 55.7616 46.2257 55.9106 46.0072C55.9079 37.8591 56.2265 24.4126 57.2858 19.2179C57.4403 18.4195 57.4032 18.4227 57.5859 19.229C58.7813 24.5629 59.4537 38.0161 59.5919 46.0027C59.642 46.148 59.7531 46.1383 59.8547 46.0172C61.0316 38.962 62.974 25.9154 65.0674 19.9388C65.3057 19.2451 65.3025 19.208 65.3133 19.9733C65.5924 26.1536 63.8592 39.2379 63.1735 46.5677C63.2607 46.7096 63.3752 46.737 63.4597 46.6362C65.3407 39.725 69.293 27.4371 72.0247 22.1334C72.4557 21.2921 72.3059 21.7163 72.233 22.3768C71.6161 28.3552 68.3646 40.75 66.773 47.7668C66.7862 47.915 66.9207 47.9592 67.0829 47.8892C69.8989 41.6249 75.2129 30.3766 78.3709 25.671C78.7842 25.0555 78.7163 25.1362 78.5691 25.8032C77.2313 31.6577 72.3649 43.1099 69.8925 49.4561C69.8949 49.6988 70.0129 49.7633 70.2288 49.6696C73.8809 44.4163 80.448 34.4599 83.84 30.2946C84.2631 29.7904 84.1446 29.9315 83.9843 30.4502C82.1552 36.03 76.0325 46.153 72.804 51.7617C72.7527 52.0279 72.8567 52.1496 73.1334 52.1066C77.4728 47.8771 84.9205 39.6566 88.3839 36.3073C88.8676 35.8538 88.7628 35.9378 88.5453 36.4427C86.262 41.7444 79.2474 50.4318 75.6108 55.2167C75.5052 55.506 75.6126 55.6651 75.8754 55.6793C81.0372 52.5179 89.0208 46.3624 92.0342 44.4914C92.5848 44.1628 92.46 44.2299 92.1651 44.7041C89.3586 49.1546 81.4477 55.7151 77.4643 59.3154C77.3322 59.5139 77.3653 59.6792 77.5976 59.7711C81.8885 57.9752 90.1554 53.7759 93.5205 52.5097C94.1722 52.2657 93.9223 52.3997 93.6072 52.8573C91.2025 56.1324 82.8658 61.0294 78.1805 63.869C78.028 64.0504 77.8927 64.2118 78.1687 64.3745C82.0035 63.7774 90.0982 61.6676 92.9173 61.4209C93.4365 61.3754 93.4502 61.3182 93.0545 61.7079C90.024 64.6642 81.3606 67.5341 77.4451 68.9232C77.0905 69.1412 77.0157 69.3532 77.2408 69.5765C80.7031 70.4882 88.5456 70.1947 90.0045 70.4221C90.4761 70.4743 90.4021 70.4809 90.074 70.7897C88.0582 72.7415 79.2734 73.5848 74.8488 74.0653C74.4441 74.1383 74.3288 74.3165 74.4968 74.5261L84.7934 78.148C85.2444 78.3889 85.241 78.3518 84.7484 78.4884C76.7039 80.7433 69.1493 77.7038 63.2612 72.3508C63.2412 72.3337 63.2006 72.3 63.1604 72.266C66.0698 73.2636 68.9405 74.6759 72.0081 74.7065C72.6621 74.7054 72.685 73.8997 72.011 73.8839C68.9805 73.85 66.0661 72.3668 63.2375 71.4371C66.9115 71.5641 70.8017 71.5975 74.2985 70.3384C74.9162 70.1349 74.6424 69.3553 74.0247 69.5588C70.3828 70.8679 66.203 70.7291 62.4145 70.5746C66.813 69.7974 71.1058 68.4498 75.0107 66.0899C75.5784 65.7413 75.1424 65.0317 74.575 65.3806C70.7238 67.7171 66.465 69.0241 62.0832 69.7813C66.5966 67.9661 70.833 65.334 74.4878 62.2485C74.9915 61.8119 74.4509 61.1863 73.9473 61.6229C70.3262 64.6681 66.1609 67.2566 61.7015 69.0483C66.0361 66.2584 69.7898 62.809 73.0431 58.7677C73.4662 58.2635 72.804 57.7422 72.418 58.2432C69.3001 62.1229 65.7051 65.4649 61.5495 68.1647C65.1822 64.6136 68.2001 60.4436 70.6661 55.9481C70.9712 55.3794 70.2446 54.9757 69.9391 55.5445C67.5716 59.882 64.6722 63.9106 61.1812 67.3745C64.1654 63.245 66.52 58.759 68.357 53.9076C68.585 53.3083 67.8107 53.0024 67.5827 53.6016C65.7562 58.3588 63.4521 62.784 60.519 66.8532C62.7665 62.2087 64.4613 57.4441 65.8507 52.3889C66.0213 51.7757 65.2164 51.5471 65.0658 52.1772C63.663 57.2898 61.9987 61.9767 59.7141 66.6247C61.1604 61.5828 62.2394 56.6105 62.901 51.3573C62.9942 50.7138 62.162 50.5995 62.0888 51.2601C61.4376 56.4191 60.325 61.4317 58.9092 66.3959C59.4055 61.1758 59.6762 55.9378 59.8726 50.7064C59.9084 50.0493 59.0659 50.0295 59.0467 50.6667C58.84 55.9923 58.553 61.0447 58.0462 66.3593C57.4137 61.051 57.0496 56.0368 56.7139 50.7025C56.6754 50.0519 55.8563 50.0861 55.8777 50.757C56.2036 55.9799 56.587 61.2166 57.1728 66.4169C55.6389 61.4865 54.4556 56.5068 53.6876 51.3597C53.592 50.6954 52.7826 50.841 52.8748 51.4682C53.6494 56.6895 54.8326 61.6692 56.3732 66.6739C53.9885 62.0607 52.2176 57.4128 50.7076 52.3307C50.521 51.6927 49.7382 51.9294 49.9246 52.5674C51.4111 57.5955 53.2087 62.3345 55.553 66.9138C52.5294 62.8985 50.1473 58.5284 48.2213 53.8191C47.9807 53.2046 47.2042 53.5155 47.4449 54.1298C49.3975 58.9302 51.84 63.3514 54.8871 67.4206C51.3016 64.0339 48.3385 60.0694 45.8685 55.763C45.54 55.2122 44.8272 55.6111 45.1558 56.1616C47.6926 60.5931 50.7803 64.6963 54.5238 68.1813C50.2953 65.561 46.6453 62.2922 43.4523 58.4786C43.0157 57.9749 42.3902 58.5155 42.8066 59.0023C46.1239 62.9543 49.9522 66.3385 54.3558 69.037C49.8914 67.3532 45.6353 64.8474 41.9573 61.8985C41.4531 61.4754 40.9317 62.1379 41.4327 62.5239C45.1542 65.5436 49.4675 68.063 53.9925 69.7976C49.5989 69.1354 45.3048 67.904 41.4255 65.6455C40.8535 65.3032 40.4499 66.0299 41.0017 66.3553C44.9383 68.6275 49.2356 69.8961 53.6865 70.572C49.8761 70.8118 45.7087 71.0269 42.0519 69.8145C41.4356 69.6067 41.1667 70.3777 41.7829 70.5854C45.3051 71.7536 49.2026 71.6557 52.8645 71.4287C50.0562 72.4408 47.1618 73.9648 44.1613 74.059C43.4903 74.0804 43.5247 74.8997 44.1956 74.8784C47.3074 74.7744 50.1139 73.3142 53.0301 72.2552C52.9964 72.2957 52.9625 72.336 52.9285 72.3763L52.8206 72.4232ZM57.227 71.3087L56.755 95.1784C56.7497 95.7581 56.6449 95.8421 57.0261 95.7152C57.8397 95.4011 58.6251 95.4072 59.3963 95.676C59.7634 95.8121 59.7328 95.8895 59.701 95.3129L58.7473 71.3813C58.7039 70.2452 57.2242 70.2065 57.2102 71.3289L57.227 71.3087Z" stroke="black" stroke-width="0.864921" mask="url(#path-2-outside-1_172_437)"/>
</mask>
<g mask="url(#mask0_172_437)">
<path d="M13.5139 9.00366H104.316V106.026H13.5139V9.00366Z" fill="url(#paint1_linear_172_437)"/>
</g>
<g clip-path="url(#clip0_172_437)">
<rect x="126.945" y="0.0703125" width="114.945" height="114.945" rx="28.7362" fill="#FFD400"/>
<rect x="126.945" y="0.0703125" width="114.945" height="114.945" rx="28.7362" fill="url(#paint2_linear_172_437)"/>
<mask id="mask1_172_437" style="mask-type:alpha" maskUnits="userSpaceOnUse" x="154" y="12" width="59" height="105">
<path fill-rule="evenodd" clip-rule="evenodd" d="M202.061 115.571L202.357 105.125C202.979 104.924 203.527 104.559 203.984 104.047C204.751 103.17 204.916 102.348 204.97 101.361C212.955 98.2185 212.59 86.1408 204.166 83.9482L204.039 83.8933H203.911C202.412 83.6375 200.914 83.4183 199.416 83.2173L199.069 82.7422C204.13 79.4898 209.082 74.8122 209.94 68.9104C210.562 64.6896 208.899 60.8343 206.195 57.655C206.067 57.4723 205.884 57.1982 205.921 56.9789C206.155 55.7696 206.978 54.1501 207.544 53.0365L207.565 52.9957C207.721 52.6886 207.88 52.3806 208.04 52.0715C208.593 51.0017 209.154 49.9167 209.593 48.8114C211.987 43.4578 212.462 38.2686 210.287 32.787L210.242 32.663L210.241 32.6608C210.184 32.5074 210.13 32.3605 210.086 32.2023C209.684 31.0329 208.826 30.1376 207.474 30.1376C205.683 30.1193 204.97 31.4532 204.66 32.8967C204.148 35.3451 202.577 37.1357 200.676 38.5792C200.384 37.9397 200.256 37.2454 200.366 36.4231C200.534 35.2658 201.04 34.1547 201.532 33.0756L201.663 32.787C202.613 30.6858 203.271 28.822 203.198 26.4832C203.052 21.9153 200.622 18.6812 197.917 15.2643C197.771 15.1 197.644 14.9357 197.516 14.7714C196.712 13.803 195.451 13.3823 194.227 13.9853C193.002 14.5883 192.6 15.7942 192.82 17.0184C192.829 17.1073 192.845 17.1914 192.86 17.2725C192.872 17.3413 192.884 17.4082 192.893 17.4752C193.55 22.701 190.28 28.621 185.675 31.0695C182.734 32.6226 180.175 34.1574 177.8 36.5327C175.333 38.9994 173.305 41.8499 171.643 44.9012C171.601 44.8474 171.558 44.791 171.515 44.734C171.367 44.54 171.209 44.3312 171.04 44.1338C170.983 44.0706 170.927 44.0068 170.873 43.9443C170.772 43.8268 170.672 43.711 170.565 43.604C169.815 42.8365 168.701 42.5076 167.659 42.8731C166.6 43.2385 165.997 44.1521 165.869 45.2301C165.86 45.3215 165.85 45.4083 165.841 45.4951L165.841 45.4995C165.832 45.5849 165.823 45.6702 165.814 45.76L165.759 46.2534C165.284 49.6885 163.914 51.6984 161.611 54.293C161.357 54.5863 161.105 54.882 160.854 55.1767C160.277 55.8545 159.701 56.5305 159.09 57.1799C156.952 59.4274 155.509 62.1681 155.728 65.3292C155.91 67.8689 157.098 70.1346 158.651 72.108C159.053 72.7292 159.492 73.3505 159.93 73.9352C162.379 77.2059 165.302 80.0197 168.354 82.7057L167.933 83.2538C166.563 83.4365 165.193 83.6375 163.822 83.8933H163.694L163.566 83.9299C155.253 86.086 154.778 97.8713 162.452 101.215C162.507 102.238 162.635 103.115 163.438 104.029C163.895 104.559 164.462 104.906 165.083 105.125L165.385 115.571H168.853L168.518 103.974C178.641 102.914 188.818 102.914 198.923 103.974L198.941 104.011L198.599 115.571H202.061ZM162.031 72.3456C164.389 75.5066 167.184 78.2108 170.126 80.7689L170.144 80.7872C171.564 79.9785 173.867 79.8061 175.333 79.6963L175.406 79.6909C178.184 79.4716 180.998 79.4351 183.793 79.4351C186.625 79.4533 189.457 79.5264 192.271 79.8005L192.473 79.8192C193.843 79.9455 195.83 80.1287 197.205 80.842C205.774 75.4883 211.402 67.7045 204.166 59.2629C203.582 58.459 203.143 57.6185 203.362 56.4856C203.663 54.8643 204.713 52.817 205.702 50.8885C206.274 49.7747 206.825 48.6997 207.199 47.77C209.739 42.1057 209.611 37.4281 207.382 32.6226C206.834 36.9165 204.239 39.4928 201.078 41.521C200.446 42.0102 199.764 42.4996 199.071 42.9972C197.459 44.1536 195.783 45.3563 194.519 46.7102C194.283 44.6321 196.393 42.3776 197.87 40.8C198.107 40.5466 198.328 40.3107 198.52 40.0958C197.899 38.9629 197.57 37.6656 197.789 36.076C197.997 34.56 198.577 33.274 199.156 31.9912C199.903 30.3364 200.647 28.687 200.585 26.5564C200.466 22.6655 198.166 19.7694 195.876 16.8849L195.873 16.8808C195.701 16.6649 195.53 16.449 195.359 16.2328C196.675 22.7375 192.783 30.2838 186.918 33.39C184.213 34.8335 181.875 36.1673 179.664 38.3965C176.74 41.3383 173.506 45.8331 171.167 52.5206L171.163 52.479C170.783 48.9126 170.666 47.8147 168.536 45.2302C168.509 45.4327 168.483 45.6332 168.458 45.8323C168.088 48.7059 167.753 51.3127 163.566 56.0288C163.193 56.4456 162.859 56.8419 162.53 57.2306C162.038 57.8132 161.56 58.3787 160.99 58.9706C159.199 60.8343 158.176 62.8625 158.341 65.1282C158.45 66.7909 159.199 68.5999 160.771 70.5549C161.173 71.1762 161.593 71.7609 162.031 72.3456ZM164.37 86.7255C170.93 85.611 177.435 85.0811 183.885 85.0993C190.335 85.0993 196.84 85.611 203.399 86.7255C208.99 88.169 209.356 96.8847 203.399 98.785C197.004 97.6887 190.499 97.3598 183.885 97.378C177.27 97.3598 170.766 97.6704 164.37 98.785C158.414 96.8847 158.779 88.169 164.37 86.7255ZM196.931 84.0761L196.929 84.0739L196.949 84.0761H196.931ZM196.929 84.0739L196.273 83.1991C195.031 81.5363 172.776 81.445 171.314 82.9981L170.473 84.1309C174.932 83.6193 179.408 83.3818 183.903 83.3818C188.263 83.3818 192.605 83.6004 196.929 84.0739ZM167.239 102.421C178.257 101.179 189.257 101.197 200.256 102.421C201.936 102.602 201.953 101.849 201.981 100.709C201.984 100.584 201.987 100.454 201.992 100.32C196.017 99.3697 189.951 99.0956 183.867 99.1321C177.691 99.1139 171.533 99.3879 165.449 100.375C165.451 100.432 165.453 100.488 165.454 100.544C165.456 100.608 165.458 100.671 165.46 100.732C165.49 101.897 165.51 102.622 167.239 102.439V102.421Z" fill="black"/>
<path d="M192.461 115.571L192.509 110.735C192.509 109.474 193.605 108.432 194.958 108.432C195.159 108.432 195.341 108.451 195.524 108.487C195.25 107.501 194.281 106.788 193.149 106.788C191.797 106.788 190.718 107.83 190.7 109.09L190.622 115.571H192.461Z" fill="black"/>
<path d="M183.296 115.571L183.264 110.716C183.264 109.456 184.36 108.414 185.712 108.414C185.913 108.414 186.096 108.432 186.278 108.469C186.004 107.482 185.036 106.77 183.903 106.77C182.551 106.77 181.436 107.811 181.455 109.072L181.49 115.571H183.296Z" fill="black"/>
<path d="M174.145 115.571L174.018 110.698C174 109.437 175.114 108.396 176.466 108.396C176.667 108.396 176.85 108.414 177.033 108.451C176.759 107.464 175.79 106.751 174.676 106.751C173.324 106.751 172.209 107.793 172.227 109.054L172.38 115.571H174.145Z" fill="black"/>
<path d="M196.929 84.0739L196.931 84.0761H196.949L196.929 84.0739ZM196.929 84.0739L196.273 83.1991C195.031 81.5363 172.776 81.445 171.314 82.9981L170.473 84.1309C174.932 83.6193 179.408 83.3818 183.903 83.3818C188.263 83.3818 192.605 83.6004 196.929 84.0739ZM202.061 115.571L202.357 105.125C202.979 104.924 203.527 104.559 203.984 104.047C204.751 103.17 204.916 102.348 204.97 101.361C212.955 98.2185 212.59 86.1408 204.166 83.9482L204.039 83.8933H203.911C202.412 83.6375 200.914 83.4183 199.416 83.2173L199.069 82.7422C204.13 79.4898 209.082 74.8122 209.94 68.9104C210.562 64.6896 208.899 60.8343 206.195 57.655C206.067 57.4723 205.884 57.1982 205.921 56.9789C206.155 55.7696 206.978 54.1501 207.544 53.0365L207.565 52.9957C207.721 52.6886 207.88 52.3806 208.04 52.0715C208.593 51.0017 209.154 49.9167 209.593 48.8114C211.987 43.4578 212.462 38.2686 210.287 32.787L210.242 32.663L210.241 32.6608C210.184 32.5074 210.13 32.3605 210.086 32.2023C209.684 31.0329 208.826 30.1376 207.474 30.1376C205.683 30.1193 204.97 31.4532 204.66 32.8967C204.148 35.3451 202.577 37.1357 200.676 38.5792C200.384 37.9397 200.256 37.2454 200.366 36.4231C200.534 35.2658 201.04 34.1547 201.532 33.0756L201.663 32.787C202.613 30.6858 203.271 28.822 203.198 26.4832C203.052 21.9153 200.622 18.6812 197.917 15.2643C197.771 15.1 197.644 14.9357 197.516 14.7714C196.712 13.803 195.451 13.3823 194.227 13.9853C193.002 14.5883 192.6 15.7942 192.82 17.0184C192.829 17.1073 192.845 17.1914 192.86 17.2725C192.872 17.3413 192.884 17.4082 192.893 17.4752C193.55 22.701 190.28 28.621 185.675 31.0695C182.734 32.6226 180.175 34.1574 177.8 36.5327C175.333 38.9994 173.305 41.8499 171.643 44.9012C171.601 44.8474 171.558 44.791 171.515 44.734C171.367 44.54 171.209 44.3312 171.04 44.1338C170.983 44.0706 170.927 44.0068 170.873 43.9443C170.772 43.8268 170.672 43.711 170.565 43.604C169.815 42.8365 168.701 42.5076 167.659 42.8731C166.6 43.2385 165.997 44.1521 165.869 45.2301C165.86 45.3215 165.85 45.4083 165.841 45.4951L165.841 45.4995C165.832 45.5849 165.823 45.6702 165.814 45.76L165.759 46.2534C165.284 49.6885 163.914 51.6984 161.611 54.293C161.357 54.5863 161.105 54.882 160.854 55.1767C160.277 55.8545 159.701 56.5305 159.09 57.1799C156.952 59.4274 155.509 62.1681 155.728 65.3292C155.91 67.8689 157.098 70.1346 158.651 72.108C159.053 72.7292 159.492 73.3505 159.93 73.9352C162.379 77.2059 165.302 80.0197 168.354 82.7057L167.933 83.2538C166.563 83.4365 165.193 83.6375 163.822 83.8933H163.694L163.566 83.9299C155.253 86.086 154.778 97.8713 162.452 101.215C162.507 102.238 162.635 103.115 163.438 104.029C163.895 104.559 164.462 104.906 165.083 105.125L165.385 115.571H168.853L168.518 103.974C178.641 102.914 188.818 102.914 198.923 103.974L198.941 104.011L198.599 115.571H202.061ZM192.509 110.735L192.461 115.571H190.622L190.7 109.09C190.718 107.83 191.796 106.788 193.149 106.788C194.281 106.788 195.25 107.501 195.524 108.487C195.341 108.451 195.159 108.432 194.958 108.432C193.605 108.432 192.509 109.474 192.509 110.735ZM183.264 110.716L183.296 115.571H181.49L181.455 109.072C181.436 107.811 182.551 106.77 183.903 106.77C185.036 106.77 186.004 107.482 186.278 108.469C186.096 108.432 185.913 108.414 185.712 108.414C184.36 108.414 183.264 109.456 183.264 110.716ZM174.018 110.698L174.145 115.571H172.38L172.227 109.054C172.209 107.793 173.324 106.751 174.676 106.751C175.79 106.751 176.759 107.464 177.033 108.451C176.85 108.414 176.667 108.396 176.466 108.396C175.114 108.396 174 109.437 174.018 110.698ZM170.126 80.7689C167.184 78.2108 164.389 75.5066 162.031 72.3456C161.593 71.7609 161.173 71.1762 160.771 70.5549C159.199 68.5999 158.45 66.7909 158.341 65.1282C158.176 62.8625 159.199 60.8343 160.99 58.9706C161.56 58.3787 162.038 57.8132 162.53 57.2306C162.859 56.8419 163.193 56.4456 163.566 56.0288C167.753 51.3127 168.088 48.7059 168.458 45.8323C168.483 45.6332 168.509 45.4327 168.536 45.2302C170.666 47.8147 170.783 48.9126 171.163 52.479L171.167 52.5206C173.506 45.8331 176.74 41.3383 179.664 38.3965C181.875 36.1673 184.213 34.8335 186.918 33.39C192.783 30.2838 196.675 22.7375 195.359 16.2328C195.53 16.449 195.701 16.6649 195.873 16.8808L195.876 16.8849C198.166 19.7694 200.466 22.6655 200.585 26.5564C200.647 28.687 199.903 30.3364 199.156 31.9912C198.577 33.274 197.997 34.56 197.789 36.076C197.57 37.6656 197.899 38.9629 198.52 40.0958C198.328 40.3107 198.107 40.5466 197.87 40.8C196.393 42.3776 194.283 44.6321 194.519 46.7102C195.783 45.3563 197.459 44.1536 199.071 42.9972C199.764 42.4996 200.446 42.0102 201.078 41.521C204.239 39.4928 206.834 36.9165 207.382 32.6226C209.611 37.4281 209.739 42.1057 207.199 47.77C206.825 48.6997 206.274 49.7747 205.702 50.8885C204.713 52.817 203.663 54.8643 203.362 56.4856C203.143 57.6185 203.582 58.459 204.166 59.2629C211.402 67.7045 205.774 75.4883 197.205 80.842C195.83 80.1287 193.843 79.9455 192.473 79.8192L192.271 79.8005C189.457 79.5264 186.625 79.4533 183.793 79.4351C180.998 79.4351 178.184 79.4716 175.406 79.6909L175.333 79.6963C173.867 79.8061 171.564 79.9785 170.144 80.7872L170.126 80.7689ZM183.885 85.0993C177.435 85.0811 170.93 85.611 164.37 86.7255C158.779 88.169 158.414 96.8847 164.37 98.785C170.766 97.6704 177.27 97.3598 183.885 97.378C190.499 97.3598 197.004 97.6886 203.399 98.785C209.356 96.8847 208.99 88.169 203.399 86.7255C196.84 85.611 190.335 85.0993 183.885 85.0993ZM200.256 102.421C189.257 101.197 178.257 101.179 167.239 102.421V102.439C165.51 102.622 165.49 101.897 165.46 100.732C165.458 100.671 165.456 100.608 165.454 100.544C165.453 100.488 165.451 100.432 165.449 100.375C171.533 99.3879 177.691 99.1139 183.867 99.1321C189.951 99.0956 196.017 99.3697 201.992 100.32C201.987 100.454 201.984 100.584 201.981 100.709C201.953 101.849 201.936 102.602 200.256 102.421Z" stroke="black" stroke-width="1.5"/>
</mask>
<g mask="url(#mask1_172_437)">
<rect x="142.265" y="9.5564" width="80" height="109" fill="url(#paint3_linear_172_437)"/>
</g>
</g>
<g clip-path="url(#clip1_172_437)">
<rect y="127.015" width="114.945" height="114.945" rx="28.7362" fill="#22D3EE"/>
<path d="M33.5193 198.971L37.2144 195.802L44.4506 204.255L40.7525 207.426L38.9059 209.01L40.4884 210.857L49.776 221.699L51.3568 223.544L53.2046 221.966L56.9112 218.802L64.1527 227.26L60.4546 230.431L58.608 232.015L60.1906 233.862L69.4782 244.704L71.0601 246.551L72.9081 244.971L76.5988 241.815L85.2282 251.905L86.2444 253.093L87.7476 252.663C98.1786 249.677 105.323 244.889 109.917 239.036C114.507 233.187 116.396 226.469 116.66 219.885C116.66 219.882 116.66 219.879 116.66 219.876L116.711 218.807L116.757 217.842L116.129 217.108L111.622 211.844L115.32 208.673L117.166 207.091L115.585 205.243L106.298 194.388L104.714 192.537L102.864 194.123L99.1662 197.294L91.9345 188.842L95.6284 185.683L97.4786 184.101L95.8959 182.251L86.6083 171.396L85.0266 169.547L83.1774 171.129L79.482 174.289L72.2458 165.836L75.9392 162.678L77.7894 161.095L76.2067 159.246L66.9192 148.391L65.3374 146.542L63.4882 148.123L59.7928 151.283L52.5545 142.828L56.2526 139.657L58.0981 138.075L56.5176 136.228L47.23 125.373L45.6461 123.521L43.7966 125.107L40.1012 128.276L31.4132 118.131L30.6153 117.199L29.3917 117.286C19.7533 117.973 10.0522 118.994 0.211957 120.363H-2.17446L-2.06373 122.903L-0.859058 150.532L-0.822487 151.371L-0.276512 152.009L5.07229 158.258L1.37416 161.429L-0.472443 163.012L1.11008 164.859L10.3977 175.701L11.9796 177.548L13.8277 175.968L17.5231 172.808L24.7614 181.263L21.0633 184.434L19.2167 186.017L20.7993 187.865L30.0868 198.707L31.6709 200.556L33.5193 198.971Z" stroke="url(#paint4_linear_172_437)" stroke-width="4.86742"/>
</g>
<rect x="126.945" y="127.015" width="114.945" height="114.945" rx="28.7362" fill="url(#paint5_linear_172_437)"/>
<defs>
<linearGradient id="paint0_linear_172_437" x1="0" y1="57.5428" x2="114.945" y2="57.5428" gradientUnits="userSpaceOnUse">
<stop stop-color="#99EE6F"/>
<stop offset="1" stop-color="#5BE41B"/>
</linearGradient>
<linearGradient id="paint1_linear_172_437" x1="2.1636" y1="2.9398" x2="86.2376" y2="139.327" gradientUnits="userSpaceOnUse">
<stop stop-color="white"/>
<stop offset="1" stop-color="white" stop-opacity="0.7"/>
</linearGradient>
<linearGradient id="paint2_linear_172_437" x1="126.945" y1="57.5428" x2="241.89" y2="57.5428" gradientUnits="userSpaceOnUse">
<stop stop-color="#FFD400"/>
<stop offset="1" stop-color="#FFB800"/>
</linearGradient>
<linearGradient id="paint3_linear_172_437" x1="132.265" y1="2.7439" x2="234.999" y2="133.439" gradientUnits="userSpaceOnUse">
<stop stop-color="white"/>
<stop offset="1" stop-color="white" stop-opacity="0.7"/>
</linearGradient>
<linearGradient id="paint4_linear_172_437" x1="-13.8714" y1="111.551" x2="102.715" y2="287.8" gradientUnits="userSpaceOnUse">
<stop stop-color="white"/>
<stop offset="1" stop-color="white" stop-opacity="0.7"/>
</linearGradient>
<linearGradient id="paint5_linear_172_437" x1="126.517" y1="126.822" x2="241.517" y2="241.822" gradientUnits="userSpaceOnUse">
<stop stop-color="#64748B"/>
<stop offset="1" stop-color="#94A3B8"/>
</linearGradient>
<clipPath id="clip0_172_437">
<rect x="126.945" y="0.0703125" width="114.945" height="114.945" rx="28.7362" fill="white"/>
</clipPath>
<clipPath id="clip1_172_437">
<rect y="127.015" width="114.945" height="114.945" rx="28.7362" fill="white"/>
</clipPath>
</defs>
</svg>
