<svg width="161" height="161" viewBox="0 0 161 161" fill="none" xmlns="http://www.w3.org/2000/svg">
<rect width="76.3973" height="76.3973" rx="19.0993" fill="#4ADE80"/>
<mask id="mask0_264_454" style="mask-type:alpha" maskUnits="userSpaceOnUse" x="13" y="10" width="51" height="56">
<mask id="path-2-outside-1_264_454" maskUnits="userSpaceOnUse" x="12.293" y="10.252" width="52" height="55" fill="black">
<rect fill="white" x="12.293" y="10.252" width="52" height="55"/>
<path fill-rule="evenodd" clip-rule="evenodd" d="M19.971 36.3703C19.8504 36.2691 19.7297 36.1678 19.6091 36.0667C18.6262 35.1961 17.6657 34.2988 16.7637 33.3593C15.9979 32.5568 15.201 31.6825 14.5723 30.7438C14.5165 30.6741 14.4854 30.6022 14.4296 30.5326C14.1421 30.0858 14.1306 29.5277 14.5286 29.1079C14.9266 28.6881 15.4846 28.6766 15.943 28.9469C16.01 29.0031 16.0995 29.0327 16.1531 29.0777C17.0833 29.6298 18.0088 30.2692 18.9074 30.8862C20.0452 31.6809 21.183 32.4757 22.332 33.2571C21.9549 32.7809 21.5779 32.3046 21.2255 31.8261C20.3287 30.6624 19.4544 29.4719 18.6407 28.2637C17.9541 27.2307 17.261 26.1237 16.7518 24.9883C16.7228 24.9411 16.6939 24.894 16.6895 24.8447C16.4492 24.3688 16.5003 23.8178 16.9632 23.4295C17.4036 23.068 18.0061 23.1395 18.4082 23.477C18.4619 23.522 18.5155 23.567 18.5825 23.6232C19.4469 24.4171 20.2776 25.2512 21.0971 26.0987C21.9411 26.944 22.7852 27.7893 23.6181 28.648C23.6046 28.6368 23.5891 28.601 23.5869 28.5763C22.7983 27.2292 22.021 25.8688 21.3154 24.4772C20.73 23.3235 20.127 22.1093 19.6965 20.88C19.4989 20.3259 19.3148 19.7831 20.0312 19.3105C20.5252 18.994 21.1073 19.117 21.4645 19.5081C21.5315 19.5643 21.5626 19.6361 21.6297 19.6923C22.4465 20.6518 23.2183 21.665 23.9654 22.6803C24.6413 23.59 25.3171 24.4998 25.9816 25.4229C25.4439 24.1036 24.9195 22.7955 24.4311 21.4719C23.9604 20.2089 23.4966 18.8831 23.1716 17.5824C23.0325 16.986 22.963 16.3337 23.7416 16.0047C24.0647 15.8647 24.3424 15.9149 24.5215 15.9738C24.931 16.1118 25.0646 16.361 25.2786 16.6777C26.0457 17.7782 26.7452 18.9591 27.3933 20.1197C27.9367 21.0783 28.4689 22.0503 28.9765 23.0244C28.6537 21.7484 28.3556 20.4702 28.0574 19.1921C27.7507 17.8153 27.453 16.4005 27.2673 14.9883C27.1887 14.3741 27.2425 13.711 28.0432 13.4919C28.5164 13.3636 29.0198 13.5804 29.2783 13.9801C29.3518 14.1103 29.3384 14.0991 29.354 14.135C29.3851 14.2068 29.4162 14.2786 29.472 14.3482C30.1379 15.5693 30.7024 16.9112 31.2379 18.2058C31.6334 19.1773 32.0177 20.1623 32.3908 21.1606C32.2492 19.9681 32.1209 18.7869 32.0287 17.5901C31.9148 16.1468 31.7967 14.6541 31.8308 13.1978C31.853 12.5997 31.9491 11.995 32.7697 11.8611C33.4063 11.7557 33.7566 12.2095 33.7834 12.232C33.8793 12.3354 33.9105 12.4072 33.9395 12.4544C33.9974 12.5487 33.9862 12.5621 34.0151 12.6092C34.0463 12.681 34.0639 12.7416 34.0951 12.8134C34.5991 14.1729 34.9884 15.6418 35.3355 17.0523C35.6781 18.4136 35.9602 19.7925 36.2537 21.158C36.3076 19.787 36.3749 18.4271 36.4803 17.0764C36.5861 15.589 36.7193 13.9874 37.0133 12.5208C37.0294 12.42 37.0567 12.3059 37.0726 12.2051C37.1887 11.6857 37.56 11.2433 38.1693 11.2521C38.7654 11.2496 39.1493 11.6632 39.282 12.1857C39.304 12.2956 39.3373 12.392 39.3593 12.5019C39.6838 13.9392 39.8465 15.5149 40.0007 16.992C40.1261 18.2853 40.2292 19.6053 40.3055 20.9029C40.5519 19.6019 40.8095 18.2876 41.0941 16.9957C41.408 15.6143 41.7421 14.1815 42.2217 12.8477C42.2511 12.7582 42.2805 12.6686 42.3213 12.5657C42.3395 12.4896 42.3281 12.503 42.4048 12.3845C42.4386 12.3443 42.4568 12.2682 42.5467 12.1609C42.5691 12.1341 42.927 11.6805 43.5563 11.7745C44.4118 11.8984 44.4946 12.5619 44.524 13.1804C44.5998 14.6146 44.5186 16.0999 44.4218 17.5492C44.3371 18.7118 44.2526 19.8744 44.1411 21.0145C44.4895 20.0276 44.8379 19.0407 45.2243 18.0628C45.7308 16.7515 46.2596 15.4134 46.909 14.1766C46.9743 14.0715 47.0151 13.9686 47.0803 13.8635C47.1367 13.7965 47.1232 13.7852 47.2131 13.678C47.5169 13.316 48.0125 13.1608 48.4625 13.3327C49.3485 13.665 49.1939 14.3121 49.1246 14.9392C48.9855 16.3302 48.7118 17.7453 48.436 19.1358C48.1853 20.3874 47.9077 21.6166 47.6302 22.8457C48.1153 21.8592 48.6271 20.8953 49.139 19.9313C49.7683 18.7459 50.4333 17.545 51.1922 16.4228C51.2484 16.3558 51.3025 16.2641 51.3453 16.1858C51.3903 16.1322 51.3903 16.1322 51.4691 16.0383C51.7729 15.6764 52.3087 15.555 52.7605 15.7514C53.575 16.1149 53.4451 16.7598 53.3109 17.3554C53.0152 18.6606 52.5848 19.9901 52.137 21.259C51.6799 22.566 51.1982 23.8751 50.6919 25.1864C51.3313 24.2609 51.9708 23.3355 52.6125 22.4347C53.3419 21.402 54.0847 20.3805 54.8813 19.4041C54.9375 19.3371 54.9938 19.2701 55.05 19.203C55.3988 18.7875 55.9819 18.6371 56.4804 18.9413C57.2273 19.3852 57.0416 19.9604 56.856 20.5356C56.4551 21.7755 55.8797 23.0059 55.3109 24.1736C54.6251 25.5627 53.89 26.9561 53.1392 28.3136C53.1392 28.3136 53.1167 28.3404 53.1055 28.3539C53.9127 27.5006 54.7088 26.6609 55.516 25.8077C56.3233 24.9545 57.144 24.1126 57.9669 23.2953C58.023 23.2283 58.0927 23.1725 58.1623 23.1167C58.5534 22.7596 59.1409 22.6585 59.6057 23.0029C60.084 23.3585 60.1583 23.9234 59.928 24.4156C59.8965 24.4804 59.8649 24.5453 59.8467 24.6214C59.3612 25.7446 58.701 26.8581 58.0454 27.8844C57.2705 29.1074 56.4419 30.2853 55.5865 31.4408C55.2422 31.9058 54.8866 32.384 54.531 32.8623C55.6539 32.0683 56.7389 31.2655 57.8619 30.4717C58.7512 29.8473 59.661 29.1715 60.5928 28.6055C60.6758 28.5611 60.7454 28.5052 60.8172 28.4741C61.2797 28.2224 61.8532 28.2468 62.2259 28.6738C62.5987 29.1008 62.5855 29.6609 62.2884 30.0968C62.2432 30.1504 62.1983 30.2041 62.1556 30.2823C61.5674 31.228 60.7892 32.1284 60.0269 32.9279C59.1297 33.8883 58.1788 34.8039 57.2257 35.6946C57.1111 35.804 56.9965 35.9134 56.8817 36.0227C57.6449 35.6579 58.4325 35.2909 59.209 34.9372C60.0325 34.5547 60.8921 34.1566 61.7468 33.8458C62.3122 33.6347 62.942 33.5922 63.3319 34.2164C63.6194 34.6632 63.5169 35.1938 63.204 35.5938C63.159 35.6475 63.114 35.7011 63.069 35.7548C62.4252 36.6308 61.4522 37.4364 60.6032 38.0945C59.5203 38.9221 58.3727 39.7181 57.2186 40.4402C57.1601 40.4825 57.0772 40.5271 57.0187 40.5695C57.7744 40.4039 58.53 40.2386 59.2744 40.0865C60.0435 39.9321 60.8485 39.7624 61.6374 39.6933C62.1797 39.6459 62.6926 39.688 62.9954 40.3073C63.2089 40.7608 63.0907 41.2555 62.7602 41.595C62.7152 41.6487 62.6589 41.7155 62.6006 41.7581C61.2608 43.0553 58.8574 44.1226 57.1431 44.8315C56.5441 45.0826 55.9428 45.3093 55.3416 45.5357C56.2265 45.57 57.1092 45.5798 58.0055 45.6008C58.6149 45.6096 59.3588 45.5942 59.9501 45.679C60.4651 45.7457 60.9192 45.9669 61.0809 46.5365C61.2048 46.9604 61.0667 47.37 60.7701 47.6693C60.725 47.7228 60.68 47.7765 60.6217 47.8189C59.5224 48.8839 56.5314 49.481 53.7451 49.8614L56.782 50.9247L56.849 50.9811C56.849 50.9811 56.99 51.0308 57.0436 51.0757C57.4371 51.3146 57.6844 51.7278 57.6268 52.2048C57.5462 52.8453 57.1062 53.0702 56.586 53.2275C50.8984 54.8056 45.501 52.744 41.2771 48.9026C40.9955 48.6664 40.6245 48.4007 40.2084 48.1887L40.8135 63.3395C40.8342 63.8594 40.799 64.3097 40.2917 64.6149C39.8673 64.8756 39.5494 64.7916 39.1532 64.6649C38.8713 64.5653 38.6226 64.5622 38.3466 64.6733C37.9137 64.8354 37.4946 64.8721 37.0945 64.5592C36.6275 64.1903 36.6556 63.8027 36.6617 63.3054L36.9459 48.2382C36.5307 48.4608 36.1557 48.7171 35.868 48.9784C31.7076 52.8205 26.3504 54.7671 20.7102 53.6211C20.1661 53.5071 19.6605 53.2656 19.5776 52.6022C19.5232 52.1226 19.7846 51.7022 20.1864 51.4683C20.2448 51.4259 20.3054 51.4082 20.3638 51.3657L20.4356 51.3347L23.2827 50.2286C20.5592 49.9078 17.6191 49.3825 16.4956 48.3257C16.442 48.2805 16.3884 48.2356 16.3347 48.1906C16.0355 47.8938 15.889 47.4967 15.989 47.0781C16.1366 46.4938 16.5899 46.2803 17.0921 46.1991C17.6929 46.1092 18.4256 46.1072 19.0328 46.0913C19.9247 46.063 20.8031 46.0234 21.6928 45.9704C21.0908 45.7623 20.5001 45.5406 19.8959 45.3079C18.1595 44.6275 15.7363 43.6223 14.3716 42.3628C14.3179 42.3179 14.2643 42.2729 14.1973 42.2166C13.8578 41.8862 13.7048 41.4151 13.8992 40.9384C14.1657 40.294 14.6947 40.2354 15.2436 40.2618C16.0299 40.3049 16.8382 40.4577 17.6085 40.6015C18.3654 40.734 19.1244 40.8913 19.8947 41.035C19.8277 40.9788 19.7247 40.938 19.6577 40.8819C18.4771 40.1652 17.3168 39.3974 16.215 38.587C15.3388 37.9431 14.3624 37.1467 13.6909 36.2863C13.6351 36.2166 13.5793 36.147 13.5348 36.0639C13.2382 35.6551 13.1907 35.1128 13.526 34.6859C13.8613 34.2591 14.3747 34.1644 14.8492 34.3342C14.9253 34.3524 15.0036 34.3951 15.0797 34.4133C15.939 34.7232 16.7914 35.0958 17.617 35.4459C18.3912 35.7756 19.1541 36.1188 19.9169 36.462L19.971 36.3703ZM35.1069 48.0886C31.268 51.6291 26.2672 53.5323 20.918 52.4477C20.5508 52.3679 20.6023 52.3884 20.9099 52.2123L27.6136 49.6136C27.6655 49.4973 27.6098 49.4276 27.4463 49.4047C24.6419 49.1532 18.6542 48.7206 17.2471 47.4027C17.0192 47.2115 16.9677 47.1912 17.2861 47.1385C18.2658 46.9782 23.4772 47.0564 25.7671 46.3965C25.9111 46.1975 25.8489 46.054 25.6184 45.9748C22.9953 45.0987 17.2005 43.3203 15.1456 41.4131C14.8775 41.1883 14.8641 41.1771 15.2157 41.2208C17.1019 41.3414 22.5063 42.6325 25.0706 42.9795C25.2276 42.9284 25.2168 42.8052 25.0672 42.6568C21.9008 40.8222 16.2831 37.6618 14.6279 35.4962C14.349 35.1479 14.3914 35.2064 14.7629 35.3353C16.9941 36.1339 22.5418 38.7787 25.3858 39.9087C25.4956 39.8866 25.59 39.8287 25.4585 39.6042C22.7709 37.2804 17.4057 33.0298 15.473 30.1059C15.2434 29.7535 15.2187 29.7556 15.5855 29.9719C17.1821 30.9004 20.9638 33.6626 24.1943 35.8021C24.9856 36.329 25.7481 36.8088 26.43 37.2213C26.6675 37.2377 26.8513 37.2092 26.6351 36.868C24.1074 33.6732 19.325 27.9927 17.7415 24.5166C17.6326 24.2653 17.55 24.1731 17.8202 24.4228C20.1856 26.6131 25.2782 32.0057 28.2398 34.7649C28.4302 34.8104 28.5936 34.8333 28.4557 34.5349C26.2321 30.8416 22.011 24.1928 20.7061 20.4936C20.6062 20.2042 20.508 20.0762 20.7714 20.3885C23.0968 23.1165 27.6052 29.6408 30.1321 33.1089C30.3423 33.2394 30.4119 33.1838 30.3544 32.9528C28.6097 28.7704 25.2028 21.2057 24.2413 17.3149C24.1838 17.084 24.164 16.9988 24.1774 17.01C24.1908 17.0212 24.2621 17.1268 24.3758 17.2908C26.5477 20.3924 30.2509 27.7946 32.1997 31.897C32.3472 32.0207 32.4057 31.9784 32.3906 31.8057C31.2369 27.1369 28.8763 18.8969 28.3724 14.8419C28.318 14.3622 28.331 14.5101 28.5225 14.8536C30.3885 18.2926 33.1599 26.2606 34.5179 30.8495C34.5887 31.0917 34.7436 31.0161 34.7221 30.7695C34.1541 25.8383 32.8229 17.297 32.9489 13.1994C32.9524 12.814 32.9412 12.8274 33.0721 13.1886C34.5266 17.0362 35.9919 25.6899 36.8894 30.5551C36.9764 30.6965 37.0616 30.6766 37.1607 30.5313C37.1589 25.1158 37.3707 16.1787 38.0747 12.7261C38.1774 12.1954 38.1527 12.1976 38.2742 12.7335C39.0686 16.2786 39.5156 25.2201 39.6075 30.5284C39.6407 30.625 39.7146 30.6185 39.7821 30.538C40.5643 25.8488 41.8553 17.1775 43.2467 13.2052C43.4051 12.7441 43.403 12.7195 43.4101 13.2281C43.5956 17.3358 42.4436 26.0322 41.9879 30.9039C42.0459 30.9982 42.122 31.0164 42.1782 30.9494C43.4283 26.356 46.0552 18.1889 47.8708 14.6638C48.1573 14.1047 48.0577 14.3866 48.0092 14.8256C47.5992 18.7991 45.4382 27.0372 44.3803 31.7008C44.3891 31.7994 44.4785 31.8288 44.5863 31.7822C46.4579 27.6187 49.9898 20.1426 52.0887 17.0151C52.3635 16.606 52.3183 16.6596 52.2205 17.1029C51.3313 20.9941 48.0969 28.6057 46.4537 32.8236C46.4552 32.985 46.5336 33.0278 46.6771 32.9655C49.1045 29.474 53.4693 22.8566 55.7237 20.0881C56.005 19.753 55.9262 19.8468 55.8196 20.1915C54.6039 23.9001 50.5346 30.6283 48.3888 34.3561C48.3547 34.533 48.4238 34.6138 48.6077 34.5853C51.4918 31.7742 56.4419 26.3105 58.7438 24.0844C59.0653 23.783 58.9956 23.8388 58.8511 24.1744C57.3335 27.6982 52.6713 33.4722 50.2542 36.6524C50.1841 36.8447 50.2555 36.9504 50.4301 36.9598C53.8609 34.8587 59.1672 30.7674 61.17 29.5239C61.5359 29.3055 61.453 29.3501 61.257 29.6653C59.3917 32.6233 54.1337 36.9836 51.4862 39.3765C51.3984 39.5085 51.4204 39.6184 51.5748 39.6795C54.4267 38.4858 59.9212 35.6948 62.1578 34.8532C62.591 34.691 62.4249 34.7801 62.2154 35.0842C60.6172 37.261 55.0763 40.5158 51.9622 42.4031C51.8609 42.5237 51.7709 42.6309 51.9543 42.7391C54.5031 42.3422 59.8832 40.94 61.7569 40.776C62.102 40.7457 62.1111 40.7077 61.8481 40.9667C59.8339 42.9316 54.0758 44.839 51.4734 45.7623C51.2377 45.9072 51.188 46.0481 51.3376 46.1965C53.6388 46.8025 58.8513 46.6074 59.8209 46.7586C60.1344 46.7932 60.0852 46.7976 59.8671 47.0029C58.5274 48.3001 52.6886 48.8606 49.7478 49.18C49.4788 49.2285 49.4022 49.347 49.5138 49.4862L56.3574 51.8935C56.6572 52.0536 56.6549 52.0289 56.3275 52.1198C50.9808 53.6184 45.9597 51.5983 42.0462 48.0404C42.0329 48.0291 42.006 48.0067 41.9792 47.9841C43.9129 48.6471 45.8209 49.5858 47.8598 49.6061C48.2945 49.6054 48.3097 49.0699 47.8617 49.0594C45.8475 49.0369 43.9104 48.0511 42.0305 47.4332C44.4724 47.5175 47.0579 47.5398 49.3821 46.7029C49.7926 46.5677 49.6106 46.0495 49.2001 46.1848C46.7795 47.0549 44.0014 46.9626 41.4834 46.8599C44.4069 46.3433 47.2601 45.4477 49.8554 43.8792C50.2327 43.6475 49.9429 43.1759 49.5658 43.4078C47.0061 44.9607 44.1756 45.8293 41.2633 46.3326C44.2631 45.1262 47.0788 43.3768 49.5079 41.326C49.8426 41.0359 49.4834 40.6201 49.1486 40.9102C46.7419 42.9342 43.9734 44.6546 41.0095 45.8455C43.8905 43.9912 46.3854 41.6986 48.5477 39.0125C48.8289 38.6774 48.3888 38.3309 48.1322 38.664C46.0599 41.2425 43.6705 43.4638 40.9086 45.2582C43.323 42.898 45.3288 40.1264 46.9678 37.1385C47.1706 36.7605 46.6876 36.4922 46.4846 36.8702C44.9111 39.7531 42.984 42.4307 40.6637 44.733C42.6471 41.9884 44.2121 39.0068 45.4331 35.7823C45.5846 35.384 45.07 35.1806 44.9184 35.5789C43.7045 38.7408 42.1731 41.6819 40.2236 44.3865C41.7174 41.2996 42.8438 38.1328 43.7673 34.7729C43.8807 34.3653 43.3457 34.2134 43.2456 34.6322C42.3133 38.0303 41.2071 41.1454 39.6887 44.2346C40.6499 40.8836 41.3671 37.5788 41.8068 34.0873C41.8688 33.6596 41.3156 33.5836 41.267 34.0227C40.8342 37.4516 40.0947 40.7832 39.1537 44.0825C39.4836 40.6131 39.6635 37.1317 39.794 33.6547C39.8178 33.2179 39.2578 33.2048 39.245 33.6283C39.1077 37.1679 38.9169 40.5259 38.5801 44.0582C38.1597 40.5301 37.9177 37.1975 37.6946 33.6521C37.669 33.2196 37.1246 33.2424 37.1388 33.6883C37.3554 37.1597 37.6102 40.6402 37.9996 44.0965C36.9801 40.8196 36.1936 37.5099 35.6832 34.0889C35.6196 33.6473 35.0817 33.7441 35.143 34.1609C35.6578 37.6313 36.4442 40.941 37.4681 44.2673C35.8832 41.2012 34.7062 38.112 33.7026 34.7342C33.5785 34.3102 33.0582 34.4675 33.1821 34.8916C34.1702 38.2335 35.3649 41.3832 36.923 44.4268C34.9134 41.7581 33.3302 38.8535 32.0501 35.7235C31.8901 35.315 31.3741 35.5217 31.534 35.93C32.8318 39.1205 34.4552 42.0591 36.4805 44.7636C34.0974 42.5126 32.1279 39.8777 30.4863 37.0155C30.2679 36.6494 29.7942 36.9145 30.0126 37.2804C31.6987 40.2258 33.7509 42.9529 36.239 45.2692C33.4285 43.5276 31.0025 41.355 28.8803 38.8204C28.5902 38.4856 28.1745 38.8449 28.4512 39.1685C30.6561 41.7952 33.2005 44.0444 36.1273 45.8379C33.1601 44.7188 30.3313 43.0534 27.8868 41.0934C27.5516 40.8122 27.2051 41.2525 27.5381 41.509C30.0115 43.5161 32.8783 45.1906 35.8858 46.3435C32.9657 45.9034 30.1116 45.0849 27.5332 43.5838C27.1531 43.3563 26.8848 43.8393 27.2516 44.0556C29.868 45.5658 32.7242 46.4089 35.6825 46.8582C33.1499 47.0176 30.3801 47.1605 27.9496 46.3547C27.54 46.2166 27.3613 46.729 27.7708 46.8671C30.1118 47.6435 32.7023 47.5784 35.1361 47.4276C33.2696 48.1003 31.3459 49.1132 29.3516 49.1758C28.9057 49.19 28.9285 49.7346 29.3744 49.7204C31.4427 49.6513 33.3079 48.6807 35.2462 47.9769C35.2238 48.0039 35.2012 48.0306 35.1787 48.0574L35.1069 48.0886ZM38.0356 47.3478L37.7219 63.2126C37.7184 63.598 37.6487 63.6538 37.9021 63.5694C38.4429 63.3607 38.9649 63.3647 39.4774 63.5434C39.7214 63.6338 39.7011 63.6853 39.6799 63.302L39.0461 47.3961C39.0172 46.641 38.0337 46.6153 38.0244 47.3613L38.0356 47.3478Z"/>
</mask>
<path fill-rule="evenodd" clip-rule="evenodd" d="M19.971 36.3703C19.8504 36.2691 19.7297 36.1678 19.6091 36.0667C18.6262 35.1961 17.6657 34.2988 16.7637 33.3593C15.9979 32.5568 15.201 31.6825 14.5723 30.7438C14.5165 30.6741 14.4854 30.6022 14.4296 30.5326C14.1421 30.0858 14.1306 29.5277 14.5286 29.1079C14.9266 28.6881 15.4846 28.6766 15.943 28.9469C16.01 29.0031 16.0995 29.0327 16.1531 29.0777C17.0833 29.6298 18.0088 30.2692 18.9074 30.8862C20.0452 31.6809 21.183 32.4757 22.332 33.2571C21.9549 32.7809 21.5779 32.3046 21.2255 31.8261C20.3287 30.6624 19.4544 29.4719 18.6407 28.2637C17.9541 27.2307 17.261 26.1237 16.7518 24.9883C16.7228 24.9411 16.6939 24.894 16.6895 24.8447C16.4492 24.3688 16.5003 23.8178 16.9632 23.4295C17.4036 23.068 18.0061 23.1395 18.4082 23.477C18.4619 23.522 18.5155 23.567 18.5825 23.6232C19.4469 24.4171 20.2776 25.2512 21.0971 26.0987C21.9411 26.944 22.7852 27.7893 23.6181 28.648C23.6046 28.6368 23.5891 28.601 23.5869 28.5763C22.7983 27.2292 22.021 25.8688 21.3154 24.4772C20.73 23.3235 20.127 22.1093 19.6965 20.88C19.4989 20.3259 19.3148 19.7831 20.0312 19.3105C20.5252 18.994 21.1073 19.117 21.4645 19.5081C21.5315 19.5643 21.5626 19.6361 21.6297 19.6923C22.4465 20.6518 23.2183 21.665 23.9654 22.6803C24.6413 23.59 25.3171 24.4998 25.9816 25.4229C25.4439 24.1036 24.9195 22.7955 24.4311 21.4719C23.9604 20.2089 23.4966 18.8831 23.1716 17.5824C23.0325 16.986 22.963 16.3337 23.7416 16.0047C24.0647 15.8647 24.3424 15.9149 24.5215 15.9738C24.931 16.1118 25.0646 16.361 25.2786 16.6777C26.0457 17.7782 26.7452 18.9591 27.3933 20.1197C27.9367 21.0783 28.4689 22.0503 28.9765 23.0244C28.6537 21.7484 28.3556 20.4702 28.0574 19.1921C27.7507 17.8153 27.453 16.4005 27.2673 14.9883C27.1887 14.3741 27.2425 13.711 28.0432 13.4919C28.5164 13.3636 29.0198 13.5804 29.2783 13.9801C29.3518 14.1103 29.3384 14.0991 29.354 14.135C29.3851 14.2068 29.4162 14.2786 29.472 14.3482C30.1379 15.5693 30.7024 16.9112 31.2379 18.2058C31.6334 19.1773 32.0177 20.1623 32.3908 21.1606C32.2492 19.9681 32.1209 18.7869 32.0287 17.5901C31.9148 16.1468 31.7967 14.6541 31.8308 13.1978C31.853 12.5997 31.9491 11.995 32.7697 11.8611C33.4063 11.7557 33.7566 12.2095 33.7834 12.232C33.8793 12.3354 33.9105 12.4072 33.9395 12.4544C33.9974 12.5487 33.9862 12.5621 34.0151 12.6092C34.0463 12.681 34.0639 12.7416 34.0951 12.8134C34.5991 14.1729 34.9884 15.6418 35.3355 17.0523C35.6781 18.4136 35.9602 19.7925 36.2537 21.158C36.3076 19.787 36.3749 18.4271 36.4803 17.0764C36.5861 15.589 36.7193 13.9874 37.0133 12.5208C37.0294 12.42 37.0567 12.3059 37.0726 12.2051C37.1887 11.6857 37.56 11.2433 38.1693 11.2521C38.7654 11.2496 39.1493 11.6632 39.282 12.1857C39.304 12.2956 39.3373 12.392 39.3593 12.5019C39.6838 13.9392 39.8465 15.5149 40.0007 16.992C40.1261 18.2853 40.2292 19.6053 40.3055 20.9029C40.5519 19.6019 40.8095 18.2876 41.0941 16.9957C41.408 15.6143 41.7421 14.1815 42.2217 12.8477C42.2511 12.7582 42.2805 12.6686 42.3213 12.5657C42.3395 12.4896 42.3281 12.503 42.4048 12.3845C42.4386 12.3443 42.4568 12.2682 42.5467 12.1609C42.5691 12.1341 42.927 11.6805 43.5563 11.7745C44.4118 11.8984 44.4946 12.5619 44.524 13.1804C44.5998 14.6146 44.5186 16.0999 44.4218 17.5492C44.3371 18.7118 44.2526 19.8744 44.1411 21.0145C44.4895 20.0276 44.8379 19.0407 45.2243 18.0628C45.7308 16.7515 46.2596 15.4134 46.909 14.1766C46.9743 14.0715 47.0151 13.9686 47.0803 13.8635C47.1367 13.7965 47.1232 13.7852 47.2131 13.678C47.5169 13.316 48.0125 13.1608 48.4625 13.3327C49.3485 13.665 49.1939 14.3121 49.1246 14.9392C48.9855 16.3302 48.7118 17.7453 48.436 19.1358C48.1853 20.3874 47.9077 21.6166 47.6302 22.8457C48.1153 21.8592 48.6271 20.8953 49.139 19.9313C49.7683 18.7459 50.4333 17.545 51.1922 16.4228C51.2484 16.3558 51.3025 16.2641 51.3453 16.1858C51.3903 16.1322 51.3903 16.1322 51.4691 16.0383C51.7729 15.6764 52.3087 15.555 52.7605 15.7514C53.575 16.1149 53.4451 16.7598 53.3109 17.3554C53.0152 18.6606 52.5848 19.9901 52.137 21.259C51.6799 22.566 51.1982 23.8751 50.6919 25.1864C51.3313 24.2609 51.9708 23.3355 52.6125 22.4347C53.3419 21.402 54.0847 20.3805 54.8813 19.4041C54.9375 19.3371 54.9938 19.2701 55.05 19.203C55.3988 18.7875 55.9819 18.6371 56.4804 18.9413C57.2273 19.3852 57.0416 19.9604 56.856 20.5356C56.4551 21.7755 55.8797 23.0059 55.3109 24.1736C54.6251 25.5627 53.89 26.9561 53.1392 28.3136C53.1392 28.3136 53.1167 28.3404 53.1055 28.3539C53.9127 27.5006 54.7088 26.6609 55.516 25.8077C56.3233 24.9545 57.144 24.1126 57.9669 23.2953C58.023 23.2283 58.0927 23.1725 58.1623 23.1167C58.5534 22.7596 59.1409 22.6585 59.6057 23.0029C60.084 23.3585 60.1583 23.9234 59.928 24.4156C59.8965 24.4804 59.8649 24.5453 59.8467 24.6214C59.3612 25.7446 58.701 26.8581 58.0454 27.8844C57.2705 29.1074 56.4419 30.2853 55.5865 31.4408C55.2422 31.9058 54.8866 32.384 54.531 32.8623C55.6539 32.0683 56.7389 31.2655 57.8619 30.4717C58.7512 29.8473 59.661 29.1715 60.5928 28.6055C60.6758 28.5611 60.7454 28.5052 60.8172 28.4741C61.2797 28.2224 61.8532 28.2468 62.2259 28.6738C62.5987 29.1008 62.5855 29.6609 62.2884 30.0968C62.2432 30.1504 62.1983 30.2041 62.1556 30.2823C61.5674 31.228 60.7892 32.1284 60.0269 32.9279C59.1297 33.8883 58.1788 34.8039 57.2257 35.6946C57.1111 35.804 56.9965 35.9134 56.8817 36.0227C57.6449 35.6579 58.4325 35.2909 59.209 34.9372C60.0325 34.5547 60.8921 34.1566 61.7468 33.8458C62.3122 33.6347 62.942 33.5922 63.3319 34.2164C63.6194 34.6632 63.5169 35.1938 63.204 35.5938C63.159 35.6475 63.114 35.7011 63.069 35.7548C62.4252 36.6308 61.4522 37.4364 60.6032 38.0945C59.5203 38.9221 58.3727 39.7181 57.2186 40.4402C57.1601 40.4825 57.0772 40.5271 57.0187 40.5695C57.7744 40.4039 58.53 40.2386 59.2744 40.0865C60.0435 39.9321 60.8485 39.7624 61.6374 39.6933C62.1797 39.6459 62.6926 39.688 62.9954 40.3073C63.2089 40.7608 63.0907 41.2555 62.7602 41.595C62.7152 41.6487 62.6589 41.7155 62.6006 41.7581C61.2608 43.0553 58.8574 44.1226 57.1431 44.8315C56.5441 45.0826 55.9428 45.3093 55.3416 45.5357C56.2265 45.57 57.1092 45.5798 58.0055 45.6008C58.6149 45.6096 59.3588 45.5942 59.9501 45.679C60.4651 45.7457 60.9192 45.9669 61.0809 46.5365C61.2048 46.9604 61.0667 47.37 60.7701 47.6693C60.725 47.7228 60.68 47.7765 60.6217 47.8189C59.5224 48.8839 56.5314 49.481 53.7451 49.8614L56.782 50.9247L56.849 50.9811C56.849 50.9811 56.99 51.0308 57.0436 51.0757C57.4371 51.3146 57.6844 51.7278 57.6268 52.2048C57.5462 52.8453 57.1062 53.0702 56.586 53.2275C50.8984 54.8056 45.501 52.744 41.2771 48.9026C40.9955 48.6664 40.6245 48.4007 40.2084 48.1887L40.8135 63.3395C40.8342 63.8594 40.799 64.3097 40.2917 64.6149C39.8673 64.8756 39.5494 64.7916 39.1532 64.6649C38.8713 64.5653 38.6226 64.5622 38.3466 64.6733C37.9137 64.8354 37.4946 64.8721 37.0945 64.5592C36.6275 64.1903 36.6556 63.8027 36.6617 63.3054L36.9459 48.2382C36.5307 48.4608 36.1557 48.7171 35.868 48.9784C31.7076 52.8205 26.3504 54.7671 20.7102 53.6211C20.1661 53.5071 19.6605 53.2656 19.5776 52.6022C19.5232 52.1226 19.7846 51.7022 20.1864 51.4683C20.2448 51.4259 20.3054 51.4082 20.3638 51.3657L20.4356 51.3347L23.2827 50.2286C20.5592 49.9078 17.6191 49.3825 16.4956 48.3257C16.442 48.2805 16.3884 48.2356 16.3347 48.1906C16.0355 47.8938 15.889 47.4967 15.989 47.0781C16.1366 46.4938 16.5899 46.2803 17.0921 46.1991C17.6929 46.1092 18.4256 46.1072 19.0328 46.0913C19.9247 46.063 20.8031 46.0234 21.6928 45.9704C21.0908 45.7623 20.5001 45.5406 19.8959 45.3079C18.1595 44.6275 15.7363 43.6223 14.3716 42.3628C14.3179 42.3179 14.2643 42.2729 14.1973 42.2166C13.8578 41.8862 13.7048 41.4151 13.8992 40.9384C14.1657 40.294 14.6947 40.2354 15.2436 40.2618C16.0299 40.3049 16.8382 40.4577 17.6085 40.6015C18.3654 40.734 19.1244 40.8913 19.8947 41.035C19.8277 40.9788 19.7247 40.938 19.6577 40.8819C18.4771 40.1652 17.3168 39.3974 16.215 38.587C15.3388 37.9431 14.3624 37.1467 13.6909 36.2863C13.6351 36.2166 13.5793 36.147 13.5348 36.0639C13.2382 35.6551 13.1907 35.1128 13.526 34.6859C13.8613 34.2591 14.3747 34.1644 14.8492 34.3342C14.9253 34.3524 15.0036 34.3951 15.0797 34.4133C15.939 34.7232 16.7914 35.0958 17.617 35.4459C18.3912 35.7756 19.1541 36.1188 19.9169 36.462L19.971 36.3703ZM35.1069 48.0886C31.268 51.6291 26.2672 53.5323 20.918 52.4477C20.5508 52.3679 20.6023 52.3884 20.9099 52.2123L27.6136 49.6136C27.6655 49.4973 27.6098 49.4276 27.4463 49.4047C24.6419 49.1532 18.6542 48.7206 17.2471 47.4027C17.0192 47.2115 16.9677 47.1912 17.2861 47.1385C18.2658 46.9782 23.4772 47.0564 25.7671 46.3965C25.9111 46.1975 25.8489 46.054 25.6184 45.9748C22.9953 45.0987 17.2005 43.3203 15.1456 41.4131C14.8775 41.1883 14.8641 41.1771 15.2157 41.2208C17.1019 41.3414 22.5063 42.6325 25.0706 42.9795C25.2276 42.9284 25.2168 42.8052 25.0672 42.6568C21.9008 40.8222 16.2831 37.6618 14.6279 35.4962C14.349 35.1479 14.3914 35.2064 14.7629 35.3353C16.9941 36.1339 22.5418 38.7787 25.3858 39.9087C25.4956 39.8866 25.59 39.8287 25.4585 39.6042C22.7709 37.2804 17.4057 33.0298 15.473 30.1059C15.2434 29.7535 15.2187 29.7556 15.5855 29.9719C17.1821 30.9004 20.9638 33.6626 24.1943 35.8021C24.9856 36.329 25.7481 36.8088 26.43 37.2213C26.6675 37.2377 26.8513 37.2092 26.6351 36.868C24.1074 33.6732 19.325 27.9927 17.7415 24.5166C17.6326 24.2653 17.55 24.1731 17.8202 24.4228C20.1856 26.6131 25.2782 32.0057 28.2398 34.7649C28.4302 34.8104 28.5936 34.8333 28.4557 34.5349C26.2321 30.8416 22.011 24.1928 20.7061 20.4936C20.6062 20.2042 20.508 20.0762 20.7714 20.3885C23.0968 23.1165 27.6052 29.6408 30.1321 33.1089C30.3423 33.2394 30.4119 33.1838 30.3544 32.9528C28.6097 28.7704 25.2028 21.2057 24.2413 17.3149C24.1838 17.084 24.164 16.9988 24.1774 17.01C24.1908 17.0212 24.2621 17.1268 24.3758 17.2908C26.5477 20.3924 30.2509 27.7946 32.1997 31.897C32.3472 32.0207 32.4057 31.9784 32.3906 31.8057C31.2369 27.1369 28.8763 18.8969 28.3724 14.8419C28.318 14.3622 28.331 14.5101 28.5225 14.8536C30.3885 18.2926 33.1599 26.2606 34.5179 30.8495C34.5887 31.0917 34.7436 31.0161 34.7221 30.7695C34.1541 25.8383 32.8229 17.297 32.9489 13.1994C32.9524 12.814 32.9412 12.8274 33.0721 13.1886C34.5266 17.0362 35.9919 25.6899 36.8894 30.5551C36.9764 30.6965 37.0616 30.6766 37.1607 30.5313C37.1589 25.1158 37.3707 16.1787 38.0747 12.7261C38.1774 12.1954 38.1527 12.1976 38.2742 12.7335C39.0686 16.2786 39.5156 25.2201 39.6075 30.5284C39.6407 30.625 39.7146 30.6185 39.7821 30.538C40.5643 25.8488 41.8553 17.1775 43.2467 13.2052C43.4051 12.7441 43.403 12.7195 43.4101 13.2281C43.5956 17.3358 42.4436 26.0322 41.9879 30.9039C42.0459 30.9982 42.122 31.0164 42.1782 30.9494C43.4283 26.356 46.0552 18.1889 47.8708 14.6638C48.1573 14.1047 48.0577 14.3866 48.0092 14.8256C47.5992 18.7991 45.4382 27.0372 44.3803 31.7008C44.3891 31.7994 44.4785 31.8288 44.5863 31.7822C46.4579 27.6187 49.9898 20.1426 52.0887 17.0151C52.3635 16.606 52.3183 16.6596 52.2205 17.1029C51.3313 20.9941 48.0969 28.6057 46.4537 32.8236C46.4552 32.985 46.5336 33.0278 46.6771 32.9655C49.1045 29.474 53.4693 22.8566 55.7237 20.0881C56.005 19.753 55.9262 19.8468 55.8196 20.1915C54.6039 23.9001 50.5346 30.6283 48.3888 34.3561C48.3547 34.533 48.4238 34.6138 48.6077 34.5853C51.4918 31.7742 56.4419 26.3105 58.7438 24.0844C59.0653 23.783 58.9956 23.8388 58.8511 24.1744C57.3335 27.6982 52.6713 33.4722 50.2542 36.6524C50.1841 36.8447 50.2555 36.9504 50.4301 36.9598C53.8609 34.8587 59.1672 30.7674 61.17 29.5239C61.5359 29.3055 61.453 29.3501 61.257 29.6653C59.3917 32.6233 54.1337 36.9836 51.4862 39.3765C51.3984 39.5085 51.4204 39.6184 51.5748 39.6795C54.4267 38.4858 59.9212 35.6948 62.1578 34.8532C62.591 34.691 62.4249 34.7801 62.2154 35.0842C60.6172 37.261 55.0763 40.5158 51.9622 42.4031C51.8609 42.5237 51.7709 42.6309 51.9543 42.7391C54.5031 42.3422 59.8832 40.94 61.7569 40.776C62.102 40.7457 62.1111 40.7077 61.8481 40.9667C59.8339 42.9316 54.0758 44.839 51.4734 45.7623C51.2377 45.9072 51.188 46.0481 51.3376 46.1965C53.6388 46.8025 58.8513 46.6074 59.8209 46.7586C60.1344 46.7932 60.0852 46.7976 59.8671 47.0029C58.5274 48.3001 52.6886 48.8606 49.7478 49.18C49.4788 49.2285 49.4022 49.347 49.5138 49.4862L56.3574 51.8935C56.6572 52.0536 56.6549 52.0289 56.3275 52.1198C50.9808 53.6184 45.9597 51.5983 42.0462 48.0404C42.0329 48.0291 42.006 48.0067 41.9792 47.9841C43.9129 48.6471 45.8209 49.5858 47.8598 49.6061C48.2945 49.6054 48.3097 49.0699 47.8617 49.0594C45.8475 49.0369 43.9104 48.0511 42.0305 47.4332C44.4724 47.5175 47.0579 47.5398 49.3821 46.7029C49.7926 46.5677 49.6106 46.0495 49.2001 46.1848C46.7795 47.0549 44.0014 46.9626 41.4834 46.8599C44.4069 46.3433 47.2601 45.4477 49.8554 43.8792C50.2327 43.6475 49.9429 43.1759 49.5658 43.4078C47.0061 44.9607 44.1756 45.8293 41.2633 46.3326C44.2631 45.1262 47.0788 43.3768 49.5079 41.326C49.8426 41.0359 49.4834 40.6201 49.1486 40.9102C46.7419 42.9342 43.9734 44.6546 41.0095 45.8455C43.8905 43.9912 46.3854 41.6986 48.5477 39.0125C48.8289 38.6774 48.3888 38.3309 48.1322 38.664C46.0599 41.2425 43.6705 43.4638 40.9086 45.2582C43.323 42.898 45.3288 40.1264 46.9678 37.1385C47.1706 36.7605 46.6876 36.4922 46.4846 36.8702C44.9111 39.7531 42.984 42.4307 40.6637 44.733C42.6471 41.9884 44.2121 39.0068 45.4331 35.7823C45.5846 35.384 45.07 35.1806 44.9184 35.5789C43.7045 38.7408 42.1731 41.6819 40.2236 44.3865C41.7174 41.2996 42.8438 38.1328 43.7673 34.7729C43.8807 34.3653 43.3457 34.2134 43.2456 34.6322C42.3133 38.0303 41.2071 41.1454 39.6887 44.2346C40.6499 40.8836 41.3671 37.5788 41.8068 34.0873C41.8688 33.6596 41.3156 33.5836 41.267 34.0227C40.8342 37.4516 40.0947 40.7832 39.1537 44.0825C39.4836 40.6131 39.6635 37.1317 39.794 33.6547C39.8178 33.2179 39.2578 33.2048 39.245 33.6283C39.1077 37.1679 38.9169 40.5259 38.5801 44.0582C38.1597 40.5301 37.9177 37.1975 37.6946 33.6521C37.669 33.2196 37.1246 33.2424 37.1388 33.6883C37.3554 37.1597 37.6102 40.6402 37.9996 44.0965C36.9801 40.8196 36.1936 37.5099 35.6832 34.0889C35.6196 33.6473 35.0817 33.7441 35.143 34.1609C35.6578 37.6313 36.4442 40.941 37.4681 44.2673C35.8832 41.2012 34.7062 38.112 33.7026 34.7342C33.5785 34.3102 33.0582 34.4675 33.1821 34.8916C34.1702 38.2335 35.3649 41.3832 36.923 44.4268C34.9134 41.7581 33.3302 38.8535 32.0501 35.7235C31.8901 35.315 31.3741 35.5217 31.534 35.93C32.8318 39.1205 34.4552 42.0591 36.4805 44.7636C34.0974 42.5126 32.1279 39.8777 30.4863 37.0155C30.2679 36.6494 29.7942 36.9145 30.0126 37.2804C31.6987 40.2258 33.7509 42.9529 36.239 45.2692C33.4285 43.5276 31.0025 41.355 28.8803 38.8204C28.5902 38.4856 28.1745 38.8449 28.4512 39.1685C30.6561 41.7952 33.2005 44.0444 36.1273 45.8379C33.1601 44.7188 30.3313 43.0534 27.8868 41.0934C27.5516 40.8122 27.2051 41.2525 27.5381 41.509C30.0115 43.5161 32.8783 45.1906 35.8858 46.3435C32.9657 45.9034 30.1116 45.0849 27.5332 43.5838C27.1531 43.3563 26.8848 43.8393 27.2516 44.0556C29.868 45.5658 32.7242 46.4089 35.6825 46.8582C33.1499 47.0176 30.3801 47.1605 27.9496 46.3547C27.54 46.2166 27.3613 46.729 27.7708 46.8671C30.1118 47.6435 32.7023 47.5784 35.1361 47.4276C33.2696 48.1003 31.3459 49.1132 29.3516 49.1758C28.9057 49.19 28.9285 49.7346 29.3744 49.7204C31.4427 49.6513 33.3079 48.6807 35.2462 47.9769C35.2238 48.0039 35.2012 48.0306 35.1787 48.0574L35.1069 48.0886ZM38.0356 47.3478L37.7219 63.2126C37.7184 63.598 37.6487 63.6538 37.9021 63.5694C38.4429 63.3607 38.9649 63.3647 39.4774 63.5434C39.7214 63.6338 39.7011 63.6853 39.6799 63.302L39.0461 47.3961C39.0172 46.641 38.0337 46.6153 38.0244 47.3613L38.0356 47.3478Z" fill="black"/>
<path fill-rule="evenodd" clip-rule="evenodd" d="M19.971 36.3703C19.8504 36.2691 19.7297 36.1678 19.6091 36.0667C18.6262 35.1961 17.6657 34.2988 16.7637 33.3593C15.9979 32.5568 15.201 31.6825 14.5723 30.7438C14.5165 30.6741 14.4854 30.6022 14.4296 30.5326C14.1421 30.0858 14.1306 29.5277 14.5286 29.1079C14.9266 28.6881 15.4846 28.6766 15.943 28.9469C16.01 29.0031 16.0995 29.0327 16.1531 29.0777C17.0833 29.6298 18.0088 30.2692 18.9074 30.8862C20.0452 31.6809 21.183 32.4757 22.332 33.2571C21.9549 32.7809 21.5779 32.3046 21.2255 31.8261C20.3287 30.6624 19.4544 29.4719 18.6407 28.2637C17.9541 27.2307 17.261 26.1237 16.7518 24.9883C16.7228 24.9411 16.6939 24.894 16.6895 24.8447C16.4492 24.3688 16.5003 23.8178 16.9632 23.4295C17.4036 23.068 18.0061 23.1395 18.4082 23.477C18.4619 23.522 18.5155 23.567 18.5825 23.6232C19.4469 24.4171 20.2776 25.2512 21.0971 26.0987C21.9411 26.944 22.7852 27.7893 23.6181 28.648C23.6046 28.6368 23.5891 28.601 23.5869 28.5763C22.7983 27.2292 22.021 25.8688 21.3154 24.4772C20.73 23.3235 20.127 22.1093 19.6965 20.88C19.4989 20.3259 19.3148 19.7831 20.0312 19.3105C20.5252 18.994 21.1073 19.117 21.4645 19.5081C21.5315 19.5643 21.5626 19.6361 21.6297 19.6923C22.4465 20.6518 23.2183 21.665 23.9654 22.6803C24.6413 23.59 25.3171 24.4998 25.9816 25.4229C25.4439 24.1036 24.9195 22.7955 24.4311 21.4719C23.9604 20.2089 23.4966 18.8831 23.1716 17.5824C23.0325 16.986 22.963 16.3337 23.7416 16.0047C24.0647 15.8647 24.3424 15.9149 24.5215 15.9738C24.931 16.1118 25.0646 16.361 25.2786 16.6777C26.0457 17.7782 26.7452 18.9591 27.3933 20.1197C27.9367 21.0783 28.4689 22.0503 28.9765 23.0244C28.6537 21.7484 28.3556 20.4702 28.0574 19.1921C27.7507 17.8153 27.453 16.4005 27.2673 14.9883C27.1887 14.3741 27.2425 13.711 28.0432 13.4919C28.5164 13.3636 29.0198 13.5804 29.2783 13.9801C29.3518 14.1103 29.3384 14.0991 29.354 14.135C29.3851 14.2068 29.4162 14.2786 29.472 14.3482C30.1379 15.5693 30.7024 16.9112 31.2379 18.2058C31.6334 19.1773 32.0177 20.1623 32.3908 21.1606C32.2492 19.9681 32.1209 18.7869 32.0287 17.5901C31.9148 16.1468 31.7967 14.6541 31.8308 13.1978C31.853 12.5997 31.9491 11.995 32.7697 11.8611C33.4063 11.7557 33.7566 12.2095 33.7834 12.232C33.8793 12.3354 33.9105 12.4072 33.9395 12.4544C33.9974 12.5487 33.9862 12.5621 34.0151 12.6092C34.0463 12.681 34.0639 12.7416 34.0951 12.8134C34.5991 14.1729 34.9884 15.6418 35.3355 17.0523C35.6781 18.4136 35.9602 19.7925 36.2537 21.158C36.3076 19.787 36.3749 18.4271 36.4803 17.0764C36.5861 15.589 36.7193 13.9874 37.0133 12.5208C37.0294 12.42 37.0567 12.3059 37.0726 12.2051C37.1887 11.6857 37.56 11.2433 38.1693 11.2521C38.7654 11.2496 39.1493 11.6632 39.282 12.1857C39.304 12.2956 39.3373 12.392 39.3593 12.5019C39.6838 13.9392 39.8465 15.5149 40.0007 16.992C40.1261 18.2853 40.2292 19.6053 40.3055 20.9029C40.5519 19.6019 40.8095 18.2876 41.0941 16.9957C41.408 15.6143 41.7421 14.1815 42.2217 12.8477C42.2511 12.7582 42.2805 12.6686 42.3213 12.5657C42.3395 12.4896 42.3281 12.503 42.4048 12.3845C42.4386 12.3443 42.4568 12.2682 42.5467 12.1609C42.5691 12.1341 42.927 11.6805 43.5563 11.7745C44.4118 11.8984 44.4946 12.5619 44.524 13.1804C44.5998 14.6146 44.5186 16.0999 44.4218 17.5492C44.3371 18.7118 44.2526 19.8744 44.1411 21.0145C44.4895 20.0276 44.8379 19.0407 45.2243 18.0628C45.7308 16.7515 46.2596 15.4134 46.909 14.1766C46.9743 14.0715 47.0151 13.9686 47.0803 13.8635C47.1367 13.7965 47.1232 13.7852 47.2131 13.678C47.5169 13.316 48.0125 13.1608 48.4625 13.3327C49.3485 13.665 49.1939 14.3121 49.1246 14.9392C48.9855 16.3302 48.7118 17.7453 48.436 19.1358C48.1853 20.3874 47.9077 21.6166 47.6302 22.8457C48.1153 21.8592 48.6271 20.8953 49.139 19.9313C49.7683 18.7459 50.4333 17.545 51.1922 16.4228C51.2484 16.3558 51.3025 16.2641 51.3453 16.1858C51.3903 16.1322 51.3903 16.1322 51.4691 16.0383C51.7729 15.6764 52.3087 15.555 52.7605 15.7514C53.575 16.1149 53.4451 16.7598 53.3109 17.3554C53.0152 18.6606 52.5848 19.9901 52.137 21.259C51.6799 22.566 51.1982 23.8751 50.6919 25.1864C51.3313 24.2609 51.9708 23.3355 52.6125 22.4347C53.3419 21.402 54.0847 20.3805 54.8813 19.4041C54.9375 19.3371 54.9938 19.2701 55.05 19.203C55.3988 18.7875 55.9819 18.6371 56.4804 18.9413C57.2273 19.3852 57.0416 19.9604 56.856 20.5356C56.4551 21.7755 55.8797 23.0059 55.3109 24.1736C54.6251 25.5627 53.89 26.9561 53.1392 28.3136C53.1392 28.3136 53.1167 28.3404 53.1055 28.3539C53.9127 27.5006 54.7088 26.6609 55.516 25.8077C56.3233 24.9545 57.144 24.1126 57.9669 23.2953C58.023 23.2283 58.0927 23.1725 58.1623 23.1167C58.5534 22.7596 59.1409 22.6585 59.6057 23.0029C60.084 23.3585 60.1583 23.9234 59.928 24.4156C59.8965 24.4804 59.8649 24.5453 59.8467 24.6214C59.3612 25.7446 58.701 26.8581 58.0454 27.8844C57.2705 29.1074 56.4419 30.2853 55.5865 31.4408C55.2422 31.9058 54.8866 32.384 54.531 32.8623C55.6539 32.0683 56.7389 31.2655 57.8619 30.4717C58.7512 29.8473 59.661 29.1715 60.5928 28.6055C60.6758 28.5611 60.7454 28.5052 60.8172 28.4741C61.2797 28.2224 61.8532 28.2468 62.2259 28.6738C62.5987 29.1008 62.5855 29.6609 62.2884 30.0968C62.2432 30.1504 62.1983 30.2041 62.1556 30.2823C61.5674 31.228 60.7892 32.1284 60.0269 32.9279C59.1297 33.8883 58.1788 34.8039 57.2257 35.6946C57.1111 35.804 56.9965 35.9134 56.8817 36.0227C57.6449 35.6579 58.4325 35.2909 59.209 34.9372C60.0325 34.5547 60.8921 34.1566 61.7468 33.8458C62.3122 33.6347 62.942 33.5922 63.3319 34.2164C63.6194 34.6632 63.5169 35.1938 63.204 35.5938C63.159 35.6475 63.114 35.7011 63.069 35.7548C62.4252 36.6308 61.4522 37.4364 60.6032 38.0945C59.5203 38.9221 58.3727 39.7181 57.2186 40.4402C57.1601 40.4825 57.0772 40.5271 57.0187 40.5695C57.7744 40.4039 58.53 40.2386 59.2744 40.0865C60.0435 39.9321 60.8485 39.7624 61.6374 39.6933C62.1797 39.6459 62.6926 39.688 62.9954 40.3073C63.2089 40.7608 63.0907 41.2555 62.7602 41.595C62.7152 41.6487 62.6589 41.7155 62.6006 41.7581C61.2608 43.0553 58.8574 44.1226 57.1431 44.8315C56.5441 45.0826 55.9428 45.3093 55.3416 45.5357C56.2265 45.57 57.1092 45.5798 58.0055 45.6008C58.6149 45.6096 59.3588 45.5942 59.9501 45.679C60.4651 45.7457 60.9192 45.9669 61.0809 46.5365C61.2048 46.9604 61.0667 47.37 60.7701 47.6693C60.725 47.7228 60.68 47.7765 60.6217 47.8189C59.5224 48.8839 56.5314 49.481 53.7451 49.8614L56.782 50.9247L56.849 50.9811C56.849 50.9811 56.99 51.0308 57.0436 51.0757C57.4371 51.3146 57.6844 51.7278 57.6268 52.2048C57.5462 52.8453 57.1062 53.0702 56.586 53.2275C50.8984 54.8056 45.501 52.744 41.2771 48.9026C40.9955 48.6664 40.6245 48.4007 40.2084 48.1887L40.8135 63.3395C40.8342 63.8594 40.799 64.3097 40.2917 64.6149C39.8673 64.8756 39.5494 64.7916 39.1532 64.6649C38.8713 64.5653 38.6226 64.5622 38.3466 64.6733C37.9137 64.8354 37.4946 64.8721 37.0945 64.5592C36.6275 64.1903 36.6556 63.8027 36.6617 63.3054L36.9459 48.2382C36.5307 48.4608 36.1557 48.7171 35.868 48.9784C31.7076 52.8205 26.3504 54.7671 20.7102 53.6211C20.1661 53.5071 19.6605 53.2656 19.5776 52.6022C19.5232 52.1226 19.7846 51.7022 20.1864 51.4683C20.2448 51.4259 20.3054 51.4082 20.3638 51.3657L20.4356 51.3347L23.2827 50.2286C20.5592 49.9078 17.6191 49.3825 16.4956 48.3257C16.442 48.2805 16.3884 48.2356 16.3347 48.1906C16.0355 47.8938 15.889 47.4967 15.989 47.0781C16.1366 46.4938 16.5899 46.2803 17.0921 46.1991C17.6929 46.1092 18.4256 46.1072 19.0328 46.0913C19.9247 46.063 20.8031 46.0234 21.6928 45.9704C21.0908 45.7623 20.5001 45.5406 19.8959 45.3079C18.1595 44.6275 15.7363 43.6223 14.3716 42.3628C14.3179 42.3179 14.2643 42.2729 14.1973 42.2166C13.8578 41.8862 13.7048 41.4151 13.8992 40.9384C14.1657 40.294 14.6947 40.2354 15.2436 40.2618C16.0299 40.3049 16.8382 40.4577 17.6085 40.6015C18.3654 40.734 19.1244 40.8913 19.8947 41.035C19.8277 40.9788 19.7247 40.938 19.6577 40.8819C18.4771 40.1652 17.3168 39.3974 16.215 38.587C15.3388 37.9431 14.3624 37.1467 13.6909 36.2863C13.6351 36.2166 13.5793 36.147 13.5348 36.0639C13.2382 35.6551 13.1907 35.1128 13.526 34.6859C13.8613 34.2591 14.3747 34.1644 14.8492 34.3342C14.9253 34.3524 15.0036 34.3951 15.0797 34.4133C15.939 34.7232 16.7914 35.0958 17.617 35.4459C18.3912 35.7756 19.1541 36.1188 19.9169 36.462L19.971 36.3703ZM35.1069 48.0886C31.268 51.6291 26.2672 53.5323 20.918 52.4477C20.5508 52.3679 20.6023 52.3884 20.9099 52.2123L27.6136 49.6136C27.6655 49.4973 27.6098 49.4276 27.4463 49.4047C24.6419 49.1532 18.6542 48.7206 17.2471 47.4027C17.0192 47.2115 16.9677 47.1912 17.2861 47.1385C18.2658 46.9782 23.4772 47.0564 25.7671 46.3965C25.9111 46.1975 25.8489 46.054 25.6184 45.9748C22.9953 45.0987 17.2005 43.3203 15.1456 41.4131C14.8775 41.1883 14.8641 41.1771 15.2157 41.2208C17.1019 41.3414 22.5063 42.6325 25.0706 42.9795C25.2276 42.9284 25.2168 42.8052 25.0672 42.6568C21.9008 40.8222 16.2831 37.6618 14.6279 35.4962C14.349 35.1479 14.3914 35.2064 14.7629 35.3353C16.9941 36.1339 22.5418 38.7787 25.3858 39.9087C25.4956 39.8866 25.59 39.8287 25.4585 39.6042C22.7709 37.2804 17.4057 33.0298 15.473 30.1059C15.2434 29.7535 15.2187 29.7556 15.5855 29.9719C17.1821 30.9004 20.9638 33.6626 24.1943 35.8021C24.9856 36.329 25.7481 36.8088 26.43 37.2213C26.6675 37.2377 26.8513 37.2092 26.6351 36.868C24.1074 33.6732 19.325 27.9927 17.7415 24.5166C17.6326 24.2653 17.55 24.1731 17.8202 24.4228C20.1856 26.6131 25.2782 32.0057 28.2398 34.7649C28.4302 34.8104 28.5936 34.8333 28.4557 34.5349C26.2321 30.8416 22.011 24.1928 20.7061 20.4936C20.6062 20.2042 20.508 20.0762 20.7714 20.3885C23.0968 23.1165 27.6052 29.6408 30.1321 33.1089C30.3423 33.2394 30.4119 33.1838 30.3544 32.9528C28.6097 28.7704 25.2028 21.2057 24.2413 17.3149C24.1838 17.084 24.164 16.9988 24.1774 17.01C24.1908 17.0212 24.2621 17.1268 24.3758 17.2908C26.5477 20.3924 30.2509 27.7946 32.1997 31.897C32.3472 32.0207 32.4057 31.9784 32.3906 31.8057C31.2369 27.1369 28.8763 18.8969 28.3724 14.8419C28.318 14.3622 28.331 14.5101 28.5225 14.8536C30.3885 18.2926 33.1599 26.2606 34.5179 30.8495C34.5887 31.0917 34.7436 31.0161 34.7221 30.7695C34.1541 25.8383 32.8229 17.297 32.9489 13.1994C32.9524 12.814 32.9412 12.8274 33.0721 13.1886C34.5266 17.0362 35.9919 25.6899 36.8894 30.5551C36.9764 30.6965 37.0616 30.6766 37.1607 30.5313C37.1589 25.1158 37.3707 16.1787 38.0747 12.7261C38.1774 12.1954 38.1527 12.1976 38.2742 12.7335C39.0686 16.2786 39.5156 25.2201 39.6075 30.5284C39.6407 30.625 39.7146 30.6185 39.7821 30.538C40.5643 25.8488 41.8553 17.1775 43.2467 13.2052C43.4051 12.7441 43.403 12.7195 43.4101 13.2281C43.5956 17.3358 42.4436 26.0322 41.9879 30.9039C42.0459 30.9982 42.122 31.0164 42.1782 30.9494C43.4283 26.356 46.0552 18.1889 47.8708 14.6638C48.1573 14.1047 48.0577 14.3866 48.0092 14.8256C47.5992 18.7991 45.4382 27.0372 44.3803 31.7008C44.3891 31.7994 44.4785 31.8288 44.5863 31.7822C46.4579 27.6187 49.9898 20.1426 52.0887 17.0151C52.3635 16.606 52.3183 16.6596 52.2205 17.1029C51.3313 20.9941 48.0969 28.6057 46.4537 32.8236C46.4552 32.985 46.5336 33.0278 46.6771 32.9655C49.1045 29.474 53.4693 22.8566 55.7237 20.0881C56.005 19.753 55.9262 19.8468 55.8196 20.1915C54.6039 23.9001 50.5346 30.6283 48.3888 34.3561C48.3547 34.533 48.4238 34.6138 48.6077 34.5853C51.4918 31.7742 56.4419 26.3105 58.7438 24.0844C59.0653 23.783 58.9956 23.8388 58.8511 24.1744C57.3335 27.6982 52.6713 33.4722 50.2542 36.6524C50.1841 36.8447 50.2555 36.9504 50.4301 36.9598C53.8609 34.8587 59.1672 30.7674 61.17 29.5239C61.5359 29.3055 61.453 29.3501 61.257 29.6653C59.3917 32.6233 54.1337 36.9836 51.4862 39.3765C51.3984 39.5085 51.4204 39.6184 51.5748 39.6795C54.4267 38.4858 59.9212 35.6948 62.1578 34.8532C62.591 34.691 62.4249 34.7801 62.2154 35.0842C60.6172 37.261 55.0763 40.5158 51.9622 42.4031C51.8609 42.5237 51.7709 42.6309 51.9543 42.7391C54.5031 42.3422 59.8832 40.94 61.7569 40.776C62.102 40.7457 62.1111 40.7077 61.8481 40.9667C59.8339 42.9316 54.0758 44.839 51.4734 45.7623C51.2377 45.9072 51.188 46.0481 51.3376 46.1965C53.6388 46.8025 58.8513 46.6074 59.8209 46.7586C60.1344 46.7932 60.0852 46.7976 59.8671 47.0029C58.5274 48.3001 52.6886 48.8606 49.7478 49.18C49.4788 49.2285 49.4022 49.347 49.5138 49.4862L56.3574 51.8935C56.6572 52.0536 56.6549 52.0289 56.3275 52.1198C50.9808 53.6184 45.9597 51.5983 42.0462 48.0404C42.0329 48.0291 42.006 48.0067 41.9792 47.9841C43.9129 48.6471 45.8209 49.5858 47.8598 49.6061C48.2945 49.6054 48.3097 49.0699 47.8617 49.0594C45.8475 49.0369 43.9104 48.0511 42.0305 47.4332C44.4724 47.5175 47.0579 47.5398 49.3821 46.7029C49.7926 46.5677 49.6106 46.0495 49.2001 46.1848C46.7795 47.0549 44.0014 46.9626 41.4834 46.8599C44.4069 46.3433 47.2601 45.4477 49.8554 43.8792C50.2327 43.6475 49.9429 43.1759 49.5658 43.4078C47.0061 44.9607 44.1756 45.8293 41.2633 46.3326C44.2631 45.1262 47.0788 43.3768 49.5079 41.326C49.8426 41.0359 49.4834 40.6201 49.1486 40.9102C46.7419 42.9342 43.9734 44.6546 41.0095 45.8455C43.8905 43.9912 46.3854 41.6986 48.5477 39.0125C48.8289 38.6774 48.3888 38.3309 48.1322 38.664C46.0599 41.2425 43.6705 43.4638 40.9086 45.2582C43.323 42.898 45.3288 40.1264 46.9678 37.1385C47.1706 36.7605 46.6876 36.4922 46.4846 36.8702C44.9111 39.7531 42.984 42.4307 40.6637 44.733C42.6471 41.9884 44.2121 39.0068 45.4331 35.7823C45.5846 35.384 45.07 35.1806 44.9184 35.5789C43.7045 38.7408 42.1731 41.6819 40.2236 44.3865C41.7174 41.2996 42.8438 38.1328 43.7673 34.7729C43.8807 34.3653 43.3457 34.2134 43.2456 34.6322C42.3133 38.0303 41.2071 41.1454 39.6887 44.2346C40.6499 40.8836 41.3671 37.5788 41.8068 34.0873C41.8688 33.6596 41.3156 33.5836 41.267 34.0227C40.8342 37.4516 40.0947 40.7832 39.1537 44.0825C39.4836 40.6131 39.6635 37.1317 39.794 33.6547C39.8178 33.2179 39.2578 33.2048 39.245 33.6283C39.1077 37.1679 38.9169 40.5259 38.5801 44.0582C38.1597 40.5301 37.9177 37.1975 37.6946 33.6521C37.669 33.2196 37.1246 33.2424 37.1388 33.6883C37.3554 37.1597 37.6102 40.6402 37.9996 44.0965C36.9801 40.8196 36.1936 37.5099 35.6832 34.0889C35.6196 33.6473 35.0817 33.7441 35.143 34.1609C35.6578 37.6313 36.4442 40.941 37.4681 44.2673C35.8832 41.2012 34.7062 38.112 33.7026 34.7342C33.5785 34.3102 33.0582 34.4675 33.1821 34.8916C34.1702 38.2335 35.3649 41.3832 36.923 44.4268C34.9134 41.7581 33.3302 38.8535 32.0501 35.7235C31.8901 35.315 31.3741 35.5217 31.534 35.93C32.8318 39.1205 34.4552 42.0591 36.4805 44.7636C34.0974 42.5126 32.1279 39.8777 30.4863 37.0155C30.2679 36.6494 29.7942 36.9145 30.0126 37.2804C31.6987 40.2258 33.7509 42.9529 36.239 45.2692C33.4285 43.5276 31.0025 41.355 28.8803 38.8204C28.5902 38.4856 28.1745 38.8449 28.4512 39.1685C30.6561 41.7952 33.2005 44.0444 36.1273 45.8379C33.1601 44.7188 30.3313 43.0534 27.8868 41.0934C27.5516 40.8122 27.2051 41.2525 27.5381 41.509C30.0115 43.5161 32.8783 45.1906 35.8858 46.3435C32.9657 45.9034 30.1116 45.0849 27.5332 43.5838C27.1531 43.3563 26.8848 43.8393 27.2516 44.0556C29.868 45.5658 32.7242 46.4089 35.6825 46.8582C33.1499 47.0176 30.3801 47.1605 27.9496 46.3547C27.54 46.2166 27.3613 46.729 27.7708 46.8671C30.1118 47.6435 32.7023 47.5784 35.1361 47.4276C33.2696 48.1003 31.3459 49.1132 29.3516 49.1758C28.9057 49.19 28.9285 49.7346 29.3744 49.7204C31.4427 49.6513 33.3079 48.6807 35.2462 47.9769C35.2238 48.0039 35.2012 48.0306 35.1787 48.0574L35.1069 48.0886ZM38.0356 47.3478L37.7219 63.2126C37.7184 63.598 37.6487 63.6538 37.9021 63.5694C38.4429 63.3607 38.9649 63.3647 39.4774 63.5434C39.7214 63.6338 39.7011 63.6853 39.6799 63.302L39.0461 47.3961C39.0172 46.641 38.0337 46.6153 38.0244 47.3613L38.0356 47.3478Z" stroke="black" stroke-width="0.574863" mask="url(#path-2-outside-1_264_454)"/>
</mask>
<g mask="url(#mask0_264_454)">
<path d="M8.98193 5.93701H69.3332V70.4219H8.98193V5.93701Z" fill="url(#paint0_linear_264_454)"/>
</g>
<g clip-path="url(#clip0_264_454)">
<rect x="84.373" width="76.3973" height="76.3973" rx="19.0993" fill="#FFD400"/>
<mask id="mask1_264_454" style="mask-type:alpha" maskUnits="userSpaceOnUse" x="102" y="8" width="40" height="70">
<path fill-rule="evenodd" clip-rule="evenodd" d="M134.299 76.7665L134.495 69.824C134.908 69.6905 135.273 69.4476 135.576 69.1075C136.086 68.5246 136.196 67.9781 136.232 67.3223C141.539 65.2335 141.296 57.2062 135.698 55.7489L135.613 55.7124H135.528C134.532 55.5424 133.536 55.3967 132.54 55.2631L132.31 54.9474C135.673 52.7857 138.965 49.6768 139.535 45.7542C139.948 42.9488 138.843 40.3864 137.046 38.2733C136.961 38.1519 136.839 37.9697 136.864 37.824C137.02 37.0202 137.567 35.9438 137.943 35.2037L137.957 35.1765C138.06 34.9724 138.166 34.7678 138.272 34.5623C138.64 33.8512 139.013 33.1301 139.305 32.3955C140.895 28.8372 141.211 25.3883 139.766 21.745L139.736 21.6626L139.735 21.6611C139.697 21.5592 139.661 21.4615 139.632 21.3564C139.365 20.5792 138.795 19.9841 137.896 19.9841C136.706 19.972 136.232 20.8585 136.026 21.8179C135.686 23.4452 134.641 24.6353 133.378 25.5947C133.184 25.1697 133.099 24.7082 133.172 24.1617C133.283 23.3925 133.62 22.654 133.947 21.9368L134.034 21.745C134.665 20.3484 135.103 19.1097 135.054 17.5552C134.957 14.5192 133.342 12.3697 131.544 10.0987C131.447 9.98949 131.362 9.88029 131.277 9.77109C130.743 9.12745 129.905 8.84783 129.091 9.24859C128.278 9.64935 128.01 10.4509 128.156 11.2645C128.163 11.3236 128.173 11.3795 128.183 11.4334C128.191 11.4791 128.199 11.5236 128.205 11.5681C128.642 15.0414 126.468 18.9761 123.408 20.6035C121.453 21.6357 119.752 22.6558 118.174 24.2346C116.534 25.8741 115.186 27.7686 114.081 29.7966C114.053 29.7608 114.025 29.7234 113.996 29.6855C113.898 29.5566 113.793 29.4178 113.68 29.2866C113.642 29.2446 113.606 29.2021 113.57 29.1606C113.502 29.0825 113.436 29.0055 113.364 28.9344C112.867 28.4243 112.126 28.2057 111.434 28.4486C110.729 28.6915 110.328 29.2987 110.243 30.0152C110.237 30.076 110.231 30.1337 110.225 30.1914L110.225 30.1943C110.219 30.251 110.213 30.3077 110.207 30.3674L110.171 30.6953C109.855 32.9784 108.944 34.3143 107.414 36.0388C107.245 36.2338 107.077 36.4302 106.91 36.6261C106.527 37.0767 106.144 37.526 105.738 37.9576C104.317 39.4513 103.358 41.2729 103.503 43.3739C103.625 45.0619 104.414 46.5678 105.446 47.8794C105.714 48.2923 106.005 48.7052 106.297 49.0938C107.924 51.2677 109.867 53.1379 111.895 54.9231L111.616 55.2874C110.705 55.4088 109.794 55.5424 108.883 55.7124H108.798L108.713 55.7367C103.188 57.1698 102.872 65.0028 107.972 67.2252C108.009 67.9053 108.094 68.4882 108.628 69.0954C108.932 69.4476 109.308 69.6783 109.721 69.824L109.922 76.7665H112.227L112.004 69.059C118.732 68.3546 125.497 68.3546 132.212 69.059L132.225 69.0833L131.997 76.7665H134.299ZM107.693 48.0373C109.26 50.1383 111.118 51.9356 113.073 53.6358L113.085 53.6479C114.029 53.1105 115.559 52.9959 116.534 52.9229L116.583 52.9193C118.429 52.7736 120.299 52.7493 122.157 52.7493C124.039 52.7614 125.922 52.81 127.792 52.9922L127.926 53.0046C128.836 53.0885 130.157 53.2103 131.071 53.6844C136.766 50.1261 140.507 44.9527 135.698 39.342C135.309 38.8077 135.018 38.2491 135.163 37.4961C135.363 36.4185 136.061 35.0578 136.719 33.776C137.098 33.0357 137.465 32.3213 137.714 31.7033C139.402 27.9386 139.317 24.8297 137.835 21.6357C137.471 24.4896 135.746 26.202 133.645 27.55C133.225 27.8751 132.772 28.2004 132.311 28.5311C131.24 29.2997 130.126 30.0991 129.286 30.9989C129.129 29.6177 130.531 28.1193 131.513 27.0708C131.671 26.9024 131.817 26.7456 131.945 26.6027C131.532 25.8498 131.314 24.9875 131.459 23.931C131.597 22.9234 131.983 22.0687 132.368 21.2161C132.864 20.1163 133.358 19.0199 133.317 17.6038C133.238 15.0178 131.71 13.0929 130.187 11.1758L130.185 11.1731C130.071 11.0296 129.957 10.8861 129.844 10.7424C130.719 15.0657 128.132 20.0813 124.234 22.1458C122.436 23.1052 120.882 23.9917 119.412 25.4733C117.469 27.4285 115.32 30.416 113.765 34.8608L113.762 34.8331C113.51 32.4627 113.432 31.7331 112.016 30.0153C111.998 30.1499 111.981 30.2831 111.964 30.4155C111.718 32.3254 111.496 34.058 108.713 37.1925C108.465 37.4695 108.243 37.7329 108.024 37.9912C107.697 38.3785 107.38 38.7544 107.001 39.1477C105.811 40.3864 105.131 41.7344 105.24 43.2403C105.313 44.3455 105.811 45.5477 106.855 46.8472C107.122 47.2601 107.402 47.6487 107.693 48.0373ZM109.248 57.5948C113.607 56.854 117.931 56.5019 122.218 56.514C126.505 56.514 130.828 56.854 135.188 57.5948C138.904 58.5542 139.147 64.347 135.188 65.61C130.937 64.8814 126.614 64.6628 122.218 64.6749C117.822 64.6628 113.498 64.8692 109.248 65.61C105.289 64.347 105.532 58.5542 109.248 57.5948ZM130.889 55.8339L130.888 55.8325L130.901 55.8339H130.889ZM130.888 55.8325L130.452 55.251C129.626 54.1459 114.834 54.0852 113.862 55.1174L113.304 55.8704C116.267 55.5303 119.242 55.3725 122.23 55.3725C125.128 55.3725 128.014 55.5177 130.888 55.8325ZM111.154 68.0267C118.477 67.2009 125.788 67.2131 133.099 68.0267C134.215 68.1471 134.227 67.6464 134.245 66.8888C134.247 66.8055 134.249 66.7192 134.253 66.6302C130.282 65.9987 126.25 65.8165 122.206 65.8408C118.101 65.8286 114.008 66.0108 109.964 66.6666C109.966 66.7047 109.967 66.7422 109.968 66.7792C109.969 66.8216 109.971 66.8633 109.972 66.9042C109.992 67.6785 110.005 68.1605 111.154 68.0389V68.0267Z" fill="black"/>
<path d="M127.918 76.7665L127.95 73.5524C127.95 72.7144 128.678 72.0222 129.577 72.0222C129.711 72.0222 129.832 72.0343 129.954 72.0586C129.771 71.4028 129.128 70.9292 128.375 70.9292C127.476 70.9292 126.76 71.6214 126.748 72.4594L126.696 76.7665H127.918Z" fill="black"/>
<path d="M121.827 76.7665L121.805 73.5402C121.805 72.7023 122.533 72.0101 123.432 72.0101C123.566 72.0101 123.687 72.0222 123.809 72.0465C123.626 71.3907 122.983 70.9171 122.23 70.9171C121.331 70.9171 120.59 71.6093 120.603 72.4472L120.626 76.7665H121.827Z" fill="black"/>
<path d="M115.744 76.7665L115.66 73.5281C115.648 72.6901 116.388 71.9979 117.287 71.9979C117.421 71.9979 117.542 72.01 117.664 72.0343C117.481 71.3786 116.838 70.9049 116.097 70.9049C115.198 70.9049 114.458 71.5972 114.47 72.4351L114.571 76.7665H115.744Z" fill="black"/>
<path d="M130.888 55.8325L130.889 55.8339H130.901L130.888 55.8325ZM130.888 55.8325L130.452 55.251C129.626 54.1459 114.834 54.0852 113.862 55.1174L113.304 55.8704C116.267 55.5303 119.242 55.3725 122.23 55.3725C125.128 55.3725 128.014 55.5177 130.888 55.8325ZM134.299 76.7665L134.495 69.824C134.908 69.6905 135.273 69.4476 135.576 69.1075C136.086 68.5246 136.196 67.9781 136.232 67.3223C141.539 65.2335 141.296 57.2062 135.698 55.7489L135.613 55.7124H135.528C134.532 55.5424 133.536 55.3967 132.54 55.2631L132.31 54.9474C135.673 52.7857 138.965 49.6768 139.535 45.7542C139.948 42.9488 138.843 40.3864 137.046 38.2733C136.961 38.1519 136.839 37.9697 136.864 37.824C137.02 37.0202 137.567 35.9438 137.943 35.2037L137.957 35.1765C138.06 34.9724 138.166 34.7678 138.272 34.5623C138.64 33.8512 139.013 33.1301 139.305 32.3955C140.895 28.8372 141.211 25.3883 139.766 21.745L139.736 21.6626L139.735 21.6611C139.697 21.5592 139.661 21.4615 139.632 21.3564C139.365 20.5792 138.795 19.9841 137.896 19.9841C136.706 19.972 136.232 20.8585 136.026 21.8179C135.686 23.4452 134.641 24.6353 133.378 25.5947C133.184 25.1697 133.099 24.7082 133.172 24.1617C133.283 23.3925 133.62 22.654 133.947 21.9368L134.034 21.745C134.665 20.3484 135.103 19.1097 135.054 17.5552C134.957 14.5192 133.342 12.3697 131.544 10.0987C131.447 9.98949 131.362 9.88029 131.277 9.77109C130.743 9.12745 129.905 8.84783 129.091 9.24859C128.278 9.64935 128.01 10.4509 128.156 11.2645C128.163 11.3236 128.173 11.3795 128.183 11.4334C128.191 11.4791 128.199 11.5236 128.205 11.5681C128.642 15.0414 126.468 18.9761 123.408 20.6035C121.453 21.6357 119.752 22.6558 118.174 24.2346C116.534 25.8741 115.186 27.7686 114.081 29.7966C114.053 29.7608 114.025 29.7234 113.996 29.6855C113.898 29.5566 113.793 29.4178 113.68 29.2866C113.642 29.2446 113.606 29.2021 113.57 29.1606C113.502 29.0825 113.436 29.0055 113.364 28.9344C112.867 28.4243 112.126 28.2057 111.434 28.4486C110.729 28.6915 110.328 29.2987 110.243 30.0152C110.237 30.076 110.231 30.1337 110.225 30.1914L110.225 30.1943C110.219 30.251 110.213 30.3077 110.207 30.3674L110.171 30.6953C109.855 32.9784 108.944 34.3143 107.414 36.0388C107.245 36.2338 107.077 36.4302 106.91 36.6261C106.527 37.0767 106.144 37.526 105.738 37.9576C104.317 39.4513 103.358 41.2729 103.503 43.3739C103.625 45.0619 104.414 46.5678 105.446 47.8794C105.714 48.2923 106.005 48.7052 106.297 49.0938C107.924 51.2677 109.867 53.1379 111.895 54.9231L111.616 55.2874C110.705 55.4088 109.794 55.5424 108.883 55.7124H108.798L108.713 55.7367C103.188 57.1698 102.872 65.0028 107.972 67.2252C108.009 67.9053 108.094 68.4882 108.628 69.0954C108.932 69.4476 109.308 69.6783 109.721 69.824L109.922 76.7665H112.227L112.004 69.059C118.732 68.3546 125.497 68.3546 132.212 69.059L132.225 69.0833L131.997 76.7665H134.299ZM127.95 73.5524L127.918 76.7665H126.696L126.748 72.4594C126.76 71.6214 127.476 70.9292 128.375 70.9292C129.128 70.9292 129.771 71.4028 129.954 72.0586C129.832 72.0343 129.711 72.0222 129.577 72.0222C128.678 72.0222 127.95 72.7144 127.95 73.5524ZM121.805 73.5402L121.827 76.7665H120.626L120.603 72.4472C120.59 71.6093 121.331 70.9171 122.23 70.9171C122.983 70.9171 123.626 71.3907 123.809 72.0465C123.687 72.0222 123.566 72.0101 123.432 72.0101C122.533 72.0101 121.805 72.7023 121.805 73.5402ZM115.66 73.5281L115.744 76.7665H114.571L114.47 72.4351C114.458 71.5972 115.198 70.9049 116.097 70.9049C116.838 70.9049 117.481 71.3786 117.664 72.0343C117.542 72.01 117.421 71.9979 117.287 71.9979C116.388 71.9979 115.648 72.6901 115.66 73.5281ZM113.073 53.6358C111.118 51.9356 109.26 50.1383 107.693 48.0373C107.402 47.6487 107.122 47.2601 106.855 46.8472C105.811 45.5477 105.313 44.3455 105.24 43.2403C105.131 41.7344 105.811 40.3864 107.001 39.1477C107.38 38.7544 107.697 38.3785 108.024 37.9912C108.243 37.7329 108.465 37.4695 108.713 37.1925C111.496 34.058 111.718 32.3254 111.964 30.4155C111.981 30.2831 111.998 30.1499 112.016 30.0153C113.432 31.7331 113.51 32.4627 113.762 34.8331L113.765 34.8608C115.32 30.416 117.469 27.4285 119.412 25.4733C120.882 23.9917 122.436 23.1052 124.234 22.1458C128.132 20.0813 130.719 15.0657 129.844 10.7424C129.957 10.8861 130.071 11.0296 130.185 11.1731L130.187 11.1758C131.71 13.0929 133.238 15.0178 133.317 17.6038C133.358 19.0199 132.864 20.1163 132.368 21.2161C131.983 22.0687 131.597 22.9234 131.459 23.931C131.314 24.9875 131.532 25.8498 131.945 26.6027C131.817 26.7456 131.671 26.9024 131.513 27.0708C130.531 28.1193 129.129 29.6177 129.286 30.9989C130.126 30.0991 131.24 29.2997 132.311 28.5311C132.772 28.2004 133.225 27.8751 133.645 27.55C135.746 26.202 137.471 24.4896 137.835 21.6357C139.317 24.8297 139.402 27.9386 137.714 31.7033C137.465 32.3213 137.098 33.0357 136.719 33.776C136.061 35.0578 135.363 36.4185 135.163 37.4961C135.018 38.2491 135.309 38.8077 135.698 39.342C140.507 44.9527 136.766 50.1261 131.071 53.6844C130.157 53.2103 128.836 53.0885 127.926 53.0046L127.792 52.9922C125.922 52.81 124.039 52.7614 122.157 52.7493C120.299 52.7493 118.429 52.7736 116.583 52.9193L116.534 52.9229C115.559 52.9959 114.029 53.1105 113.085 53.6479L113.073 53.6358ZM122.218 56.514C117.931 56.5019 113.607 56.854 109.248 57.5948C105.532 58.5542 105.289 64.347 109.248 65.61C113.498 64.8692 117.822 64.6628 122.218 64.6749C126.614 64.6628 130.937 64.8814 135.188 65.61C139.147 64.347 138.904 58.5542 135.188 57.5948C130.828 56.854 126.505 56.514 122.218 56.514ZM133.099 68.0267C125.788 67.2131 118.477 67.2009 111.154 68.0267V68.0389C110.005 68.1605 109.992 67.6785 109.972 66.9042C109.971 66.8633 109.969 66.8216 109.968 66.7792C109.967 66.7422 109.966 66.7047 109.964 66.6666C114.008 66.0108 118.101 65.8286 122.206 65.8408C126.25 65.8165 130.282 65.9987 134.253 66.6302C134.249 66.7192 134.247 66.8055 134.245 66.8888C134.227 67.6464 134.215 68.1471 133.099 68.0267Z" stroke="black" stroke-width="0.996964"/>
</mask>
<g mask="url(#mask1_264_454)">
<rect x="94.5557" y="6.30469" width="53.1714" height="72.446" fill="url(#paint1_linear_264_454)"/>
</g>
</g>
<g clip-path="url(#clip1_264_454)">
<rect y="84.373" width="76.3973" height="76.3973" rx="19.0993" fill="#22D3EE"/>
<path d="M9.19021 116.909L11.6463 114.809L16.4572 120.429L13.9994 122.536L12.772 123.589L13.8238 124.816L19.9968 132.023L21.0496 133.252L22.2781 132.198L24.734 130.092L29.5435 135.71L27.0856 137.818L25.8583 138.87L26.9101 140.098L33.083 147.304L34.1337 148.531L35.3618 147.482L37.8254 145.378L42.6384 151.001L40.1805 153.108L38.9532 154.161L40.005 155.388L46.1779 162.594L47.2293 163.822L48.4576 162.771L50.9106 160.674L56.6461 167.38L57.3215 168.17L58.3205 167.884C65.2534 165.899 70.0022 162.717 73.0553 158.827C76.1057 154.94 77.3614 150.475 77.5366 146.099C77.5367 146.097 77.5368 146.095 77.5369 146.092L77.5708 145.382L77.6013 144.741L77.1838 144.253L74.1885 140.754L76.6464 138.647L77.873 137.595L76.8225 136.367L70.6496 129.152L69.5969 127.922L68.3676 128.976L65.9098 131.084L61.1033 125.466L63.5585 123.366L64.7882 122.315L63.7363 121.085L57.5633 113.871L56.512 112.642L55.283 113.693L52.8269 115.793L48.0174 110.175L50.4722 108.076L51.7019 107.024L50.65 105.795L44.4771 98.5804L43.4258 97.3517L42.1968 98.4027L39.7406 100.503L34.9297 94.8833L37.3876 92.7757L38.6142 91.724L37.5638 90.4962L31.3908 83.2816L30.3381 82.0512L29.1088 83.1052L26.6527 85.2113L20.8783 78.4684L20.348 77.8491L19.5347 77.907C13.1287 78.3634 6.68087 79.0423 0.140643 79.952H-1.44547L-1.37187 81.64L-0.571199 100.004L-0.546892 100.561L-0.184014 100.985L3.37102 105.138L0.913095 107.246L-0.314238 108.298L0.737573 109.526L6.9105 116.732L7.96192 117.96L9.19021 116.909Z" stroke="url(#paint2_linear_264_454)" stroke-width="3.2351"/>
</g>
<rect x="84.373" y="84.373" width="76.3973" height="76.3973" rx="19.0993" fill="#64748B"/>
<defs>
<linearGradient id="paint0_linear_264_454" x1="1.43803" y1="1.90671" x2="57.3172" y2="92.5551" gradientUnits="userSpaceOnUse">
<stop stop-color="white"/>
<stop offset="1" stop-color="white" stop-opacity="0.7"/>
</linearGradient>
<linearGradient id="paint1_linear_264_454" x1="87.9092" y1="1.77681" x2="156.19" y2="88.6422" gradientUnits="userSpaceOnUse">
<stop stop-color="white"/>
<stop offset="1" stop-color="white" stop-opacity="0.7"/>
</linearGradient>
<linearGradient id="paint2_linear_264_454" x1="-9.21973" y1="74.095" x2="68.2685" y2="191.238" gradientUnits="userSpaceOnUse">
<stop stop-color="white"/>
<stop offset="1" stop-color="white" stop-opacity="0.7"/>
</linearGradient>
<clipPath id="clip0_264_454">
<rect x="84.373" width="76.3973" height="76.3973" rx="19.0993" fill="white"/>
</clipPath>
<clipPath id="clip1_264_454">
<rect y="84.373" width="76.3973" height="76.3973" rx="19.0993" fill="white"/>
</clipPath>
</defs>
</svg>
