<svg width="129" height="129" viewBox="0 0 129 129" fill="none" xmlns="http://www.w3.org/2000/svg">
<rect x="0.743652" y="0.0898438" width="60.8135" height="60.8135" rx="15.2034" fill="#4ADE80"/>
<mask id="mask0_430_559" style="mask-type:alpha" maskUnits="userSpaceOnUse" x="11" y="8" width="41" height="44">
<mask id="path-2-outside-1_430_559" maskUnits="userSpaceOnUse" x="10.3252" y="8.0459" width="42" height="44" fill="black">
<rect fill="white" x="10.3252" y="8.0459" width="42" height="44"/>
<path fill-rule="evenodd" clip-rule="evenodd" d="M16.641 29.0405C16.545 28.96 16.449 28.8793 16.3529 28.7988C15.5705 28.1058 14.806 27.3916 14.088 26.6437C13.4784 26.0049 12.844 25.3089 12.3436 24.5617C12.2992 24.5063 12.2744 24.449 12.23 24.3936C12.0011 24.038 11.9919 23.5937 12.3088 23.2596C12.6256 22.9254 13.0697 22.9162 13.4346 23.1314C13.488 23.1761 13.5592 23.1997 13.6019 23.2355C14.3424 23.675 15.0791 24.184 15.7944 24.6751C16.7001 25.3077 17.6058 25.9404 18.5204 26.5624C18.2203 26.1833 17.9201 25.8042 17.6396 25.4233C16.9258 24.497 16.2298 23.5493 15.5821 22.5876C15.0355 21.7653 14.4839 20.8841 14.0785 19.9802C14.0554 19.9427 14.0324 19.9052 14.0289 19.8659C13.8376 19.4872 13.8783 19.0485 14.2468 18.7395C14.5973 18.4517 15.0769 18.5086 15.397 18.7772C15.4397 18.8131 15.4824 18.8489 15.5358 18.8936C16.2239 19.5256 16.8851 20.1895 17.5374 20.8641C18.2093 21.537 18.8812 22.2099 19.5442 22.8935C19.5335 22.8846 19.5211 22.856 19.5194 22.8364C18.8916 21.7641 18.2728 20.6811 17.7112 19.5734C17.2452 18.6551 16.7652 17.6886 16.4225 16.71C16.2652 16.2689 16.1187 15.8368 16.6889 15.4606C17.0821 15.2087 17.5455 15.3066 17.8298 15.6179C17.8832 15.6627 17.908 15.7198 17.9613 15.7646C18.6115 16.5284 19.2259 17.3349 19.8207 18.143C20.3586 18.8672 20.8966 19.5914 21.4256 20.3262C20.9975 19.276 20.5802 18.2348 20.1914 17.1812C19.8166 16.1758 19.4474 15.1204 19.1888 14.0851C19.078 13.6103 19.0227 13.091 19.6425 12.8292C19.8997 12.7177 20.1207 12.7577 20.2633 12.8045C20.5893 12.9144 20.6956 13.1128 20.866 13.3649C21.4766 14.2409 22.0334 15.1809 22.5493 16.1048C22.9819 16.8678 23.4055 17.6415 23.8096 18.417C23.5526 17.4013 23.3153 16.3838 23.078 15.3664C22.8338 14.2704 22.5968 13.1442 22.449 12.0201C22.3865 11.5312 22.4293 11.0034 23.0666 10.829C23.4433 10.7268 23.844 10.8994 24.0498 11.2175C24.1083 11.3212 24.0976 11.3122 24.11 11.3408C24.1348 11.398 24.1596 11.4551 24.204 11.5106C24.734 12.4826 25.1834 13.5507 25.6097 14.5813C25.9245 15.3546 26.2304 16.1387 26.5274 16.9333C26.4147 15.9841 26.3126 15.0438 26.2392 14.0912C26.1485 12.9422 26.0545 11.7541 26.0816 10.5948C26.0993 10.1187 26.1758 9.63738 26.829 9.5308C27.3358 9.44692 27.6146 9.80814 27.6359 9.82605C27.7123 9.90835 27.7371 9.9655 27.7602 10.003C27.8063 10.0781 27.7974 10.0888 27.8204 10.1263C27.8452 10.1835 27.8592 10.2317 27.884 10.2888C28.2852 11.371 28.5952 12.5403 28.8714 13.6631C29.1441 14.7467 29.3687 15.8443 29.6023 16.9313C29.6452 15.8399 29.6988 14.7575 29.7827 13.6823C29.867 12.4983 29.973 11.2234 30.207 10.0559C30.2198 9.97571 30.2415 9.88482 30.2542 9.80461C30.3466 9.39114 30.6422 9.039 31.1272 9.046C31.6017 9.04404 31.9073 9.37325 32.0129 9.78918C32.0304 9.87663 32.0569 9.95343 32.0745 10.0409C32.3327 11.185 32.4623 12.4393 32.585 13.6151C32.6849 14.6445 32.7669 15.6953 32.8277 16.7282C33.0238 15.6926 33.2288 14.6464 33.4553 13.618C33.7052 12.5184 33.9712 11.3778 34.353 10.3161C34.3764 10.2449 34.3998 10.1736 34.4323 10.0917C34.4467 10.0311 34.4377 10.0417 34.4987 9.94742C34.5256 9.91541 34.5401 9.85483 34.6117 9.76947C34.6295 9.74813 34.9144 9.38702 35.4153 9.46185C36.0963 9.56047 36.1622 10.0886 36.1856 10.581C36.2459 11.7227 36.1813 12.9049 36.1043 14.0586C36.0369 14.9841 35.9696 15.9095 35.8808 16.8171C36.1582 16.0315 36.4355 15.2458 36.7431 14.4675C37.1462 13.4237 37.5672 12.3585 38.0841 11.374C38.1361 11.2903 38.1686 11.2084 38.2205 11.1247C38.2654 11.0714 38.2546 11.0624 38.3262 10.977C38.5681 10.6889 38.9626 10.5654 39.3207 10.7022C40.026 10.9668 39.903 11.4818 39.8478 11.981C39.7371 13.0882 39.5192 14.2147 39.2997 15.3216C39.1001 16.3179 38.8791 17.2963 38.6582 18.2747C39.0443 17.4895 39.4518 16.7222 39.8592 15.9548C40.3602 15.0112 40.8895 14.0553 41.4937 13.162C41.5384 13.1086 41.5814 13.0356 41.6155 12.9733C41.6513 12.9306 41.6513 12.9306 41.714 12.8559C41.9559 12.5678 42.3824 12.4712 42.7421 12.6276C43.3904 12.9169 43.287 13.4302 43.1802 13.9043C42.9447 14.9433 42.6022 16.0016 42.2457 17.0117C41.8819 18.052 41.4984 19.0941 41.0954 20.1379C41.6044 19.4013 42.1134 18.6646 42.6242 17.9475C43.2048 17.1255 43.7961 16.3124 44.4302 15.5352C44.475 15.4818 44.5198 15.4284 44.5645 15.3751C44.8421 15.0443 45.3063 14.9246 45.7032 15.1667C46.2977 15.5201 46.1499 15.978 46.0021 16.4358C45.683 17.4228 45.2249 18.4023 44.7722 19.3317C44.2263 20.4375 43.6411 21.5467 43.0435 22.6273C43.0435 22.6273 43.0255 22.6486 43.0166 22.6593C43.6592 21.9801 44.2929 21.3117 44.9355 20.6325C45.5781 19.9534 46.2314 19.2832 46.8864 18.6326C46.9311 18.5793 46.9865 18.5349 47.042 18.4905C47.3533 18.2061 47.8209 18.1257 48.1909 18.3998C48.5716 18.6829 48.6308 19.1326 48.4475 19.5244C48.4224 19.576 48.3972 19.6276 48.3827 19.6882C47.9963 20.5823 47.4707 21.4687 46.9489 22.2856C46.3321 23.2591 45.6725 24.1968 44.9916 25.1166C44.7175 25.4867 44.4344 25.8674 44.1514 26.2481C45.0452 25.6161 45.9089 24.977 46.8028 24.3451C47.5107 23.8481 48.2349 23.3101 48.9767 22.8596C49.0427 22.8243 49.0982 22.7798 49.1553 22.755C49.5235 22.5547 49.98 22.5741 50.2767 22.914C50.5734 23.2539 50.5629 23.6998 50.3264 24.0467C50.2905 24.0894 50.2547 24.1321 50.2207 24.1944C49.7525 24.9472 49.133 25.6639 48.5262 26.3003C47.812 27.0648 47.0551 27.7936 46.2964 28.5027C46.2052 28.5897 46.114 28.6768 46.0226 28.7639C46.6301 28.4734 47.2571 28.1813 47.8751 27.8998C48.5307 27.5953 49.2149 27.2784 49.8953 27.031C50.3453 26.863 50.8467 26.8291 51.157 27.326C51.3859 27.6816 51.3043 28.104 51.0552 28.4224C51.0194 28.4652 50.9836 28.5078 50.9478 28.5506C50.4353 29.2479 49.6608 29.8891 48.9849 30.413C48.1229 31.0718 47.2094 31.7055 46.2907 32.2802C46.2442 32.3139 46.1782 32.3495 46.1316 32.3832C46.7331 32.2514 47.3346 32.1197 47.9272 31.9987C48.5395 31.8758 49.1802 31.7407 49.8082 31.6857C50.2399 31.6479 50.6482 31.6815 50.8892 32.1745C51.0591 32.5354 50.9651 32.9292 50.7019 33.1995C50.6661 33.2422 50.6213 33.2954 50.5749 33.3293C49.5084 34.3619 47.5953 35.2115 46.2307 35.7758C45.7539 35.9757 45.2752 36.1561 44.7966 36.3364C45.501 36.3637 46.2037 36.3715 46.9172 36.3882C47.4022 36.3951 47.9944 36.3829 48.4651 36.4504C48.875 36.5035 49.2365 36.6796 49.3652 37.133C49.4639 37.4704 49.3539 37.7965 49.1178 38.0347C49.0819 38.0773 49.0461 38.1201 48.9997 38.1538C48.1246 39.0016 45.7437 39.4769 43.5258 39.7797L45.9432 40.6261L45.9965 40.671C45.9965 40.671 46.1088 40.7105 46.1514 40.7463C46.4647 40.9365 46.6615 41.2654 46.6157 41.6451C46.5515 42.1549 46.2013 42.3339 45.7872 42.4592C41.2598 43.7154 36.9633 42.0743 33.601 39.0165C33.3769 38.8284 33.0816 38.617 32.7503 38.4482L33.232 50.5085C33.2485 50.9223 33.2205 51.2808 32.8166 51.5237C32.4788 51.7313 32.2257 51.6644 31.9104 51.5635C31.686 51.4843 31.488 51.4818 31.2683 51.5702C30.9237 51.6992 30.5901 51.7285 30.2716 51.4794C29.8998 51.1857 29.9223 50.8772 29.9271 50.4813L30.1534 38.4876C29.8228 38.6648 29.5243 38.8688 29.2953 39.0768C25.9836 42.1351 21.7191 43.6847 17.2294 42.7724C16.7963 42.6818 16.3939 42.4895 16.3279 41.9614C16.2846 41.5796 16.4926 41.245 16.8125 41.0588C16.859 41.0251 16.9072 41.011 16.9537 40.9771L17.0108 40.9525L19.2772 40.072C17.1092 39.8166 14.7688 39.3985 13.8746 38.5572C13.8319 38.5213 13.7892 38.4855 13.7465 38.4497C13.5083 38.2134 13.3917 37.8974 13.4713 37.5642C13.5888 37.099 13.9496 36.9291 14.3494 36.8644C14.8276 36.7928 15.4108 36.7913 15.8942 36.7786C16.6042 36.7561 17.3034 36.7246 18.0116 36.6824C17.5324 36.5168 17.0622 36.3403 16.5812 36.155C15.199 35.6134 13.2701 34.8133 12.1838 33.8107C12.1411 33.7749 12.0984 33.7391 12.045 33.6943C11.7748 33.4313 11.6531 33.0563 11.8077 32.6768C12.0199 32.1639 12.441 32.1172 12.8779 32.1383C13.5038 32.1725 14.1473 32.2942 14.7604 32.4087C15.3629 32.5141 15.9671 32.6393 16.5803 32.7537C16.5269 32.709 16.445 32.6765 16.3917 32.6318C15.4519 32.0614 14.5282 31.4501 13.6511 30.805C12.9537 30.2925 12.1765 29.6586 11.6419 28.9737C11.5975 28.9182 11.5531 28.8628 11.5177 28.7966C11.2816 28.4712 11.2438 28.0395 11.5107 27.6998C11.7776 27.36 12.1863 27.2846 12.564 27.4198C12.6245 27.4342 12.6869 27.4682 12.7474 27.4827C13.4315 27.7294 14.11 28.026 14.7672 28.3047C15.3835 28.5672 15.9907 28.8403 16.598 29.1135L16.641 29.0405ZM28.6895 38.3685C25.6336 41.1868 21.6529 42.7018 17.3949 41.8384C17.1026 41.7749 17.1436 41.7912 17.3884 41.6511L22.7247 39.5825C22.766 39.4898 22.7216 39.4344 22.5915 39.4161C20.3591 39.216 15.5928 38.8716 14.4727 37.8226C14.2913 37.6703 14.2504 37.6541 14.5038 37.6122C15.2836 37.4846 19.432 37.5469 21.2548 37.0216C21.3695 36.8632 21.3199 36.749 21.1364 36.6859C19.0485 35.9885 14.4356 34.5728 12.7999 33.0547C12.5865 32.8757 12.5758 32.8668 12.8557 32.9016C14.3571 32.9976 18.6592 34.0254 20.7004 34.3016C20.8254 34.2609 20.8168 34.1629 20.6977 34.0447C18.1771 32.5843 13.7054 30.0686 12.3878 28.3447C12.1658 28.0675 12.1995 28.114 12.4953 28.2167C14.2713 28.8523 18.6874 30.9577 20.9513 31.8572C21.0387 31.8396 21.1138 31.7935 21.0092 31.6148C18.8698 29.765 14.599 26.3814 13.0605 24.054C12.8778 23.7734 12.8581 23.7751 13.1501 23.9473C14.421 24.6864 17.4313 26.8851 20.0028 28.5882C20.6328 29.0076 21.2397 29.3896 21.7825 29.7179C21.9716 29.731 22.1179 29.7083 21.9458 29.4367C19.9336 26.8936 16.1268 22.3718 14.8663 19.6048C14.7796 19.4048 14.7139 19.3314 14.929 19.5301C16.8119 21.2737 20.8656 25.5662 23.2232 27.7626C23.3747 27.7988 23.5048 27.817 23.395 27.5795C21.625 24.6396 18.2649 19.347 17.2261 16.4024C17.1467 16.172 17.0685 16.0701 17.2781 16.3187C19.1292 18.4903 22.718 23.6837 24.7294 26.4444C24.8967 26.5483 24.9522 26.504 24.9064 26.3201C23.5176 22.9909 20.8056 16.9692 20.0403 13.8721C19.9945 13.6883 19.9787 13.6205 19.9894 13.6294C20 13.6384 20.0568 13.7224 20.1473 13.8529C21.8762 16.3219 24.824 22.2141 26.3753 25.4797C26.4927 25.5782 26.5392 25.5445 26.5272 25.407C25.6088 21.6906 23.7298 15.1314 23.3287 11.9036C23.2854 11.5217 23.2957 11.6395 23.4482 11.9129C24.9335 14.6503 27.1396 20.9931 28.2206 24.6459C28.277 24.8387 28.4003 24.7785 28.3831 24.5822C27.931 20.6569 26.8713 13.8579 26.9716 10.5961C26.9744 10.2893 26.9655 10.3 27.0697 10.5875C28.2275 13.6502 29.3939 20.5388 30.1084 24.4116C30.1776 24.5241 30.2455 24.5083 30.3243 24.3926C30.3229 20.0818 30.4915 12.9677 31.0519 10.2193C31.1336 9.79689 31.114 9.79862 31.2107 10.2252C31.8431 13.0472 32.1989 20.1648 32.272 24.3903C32.2985 24.4672 32.3572 24.462 32.411 24.3979C33.0337 20.6652 34.0613 13.7628 35.1689 10.6007C35.2949 10.2337 35.2933 10.2141 35.299 10.619C35.4466 13.8888 34.5296 20.8112 34.1669 24.6892C34.213 24.7643 34.2736 24.7788 34.3183 24.7254C35.3135 21.0689 37.4045 14.5678 38.8497 11.7618C39.0778 11.3167 38.9985 11.5412 38.9599 11.8906C38.6335 15.0535 36.9133 21.6112 36.0713 25.3236C36.0782 25.402 36.1494 25.4254 36.2352 25.3883C37.725 22.0741 40.5365 16.123 42.2073 13.6335C42.426 13.3078 42.39 13.3505 42.3122 13.7034C41.6044 16.8008 39.0297 22.8598 37.7217 26.2173C37.7229 26.3458 37.7853 26.3799 37.8996 26.3303C39.8318 23.551 43.3062 18.2834 45.1008 16.0796C45.3247 15.8129 45.262 15.8876 45.1772 16.1619C44.2094 19.114 40.9702 24.4698 39.2621 27.4372C39.2349 27.578 39.2899 27.6424 39.4363 27.6197C41.7321 25.3819 45.6725 21.0328 47.5049 19.2608C47.7608 19.0208 47.7053 19.0653 47.5903 19.3324C46.3822 22.1374 42.671 26.7336 40.747 29.2651C40.6911 29.4182 40.748 29.5023 40.887 29.5098C43.618 27.8372 47.8418 24.5805 49.4361 23.5907C49.7274 23.4168 49.6614 23.4524 49.5054 23.7032C48.0206 26.0578 43.8352 29.5288 41.7277 31.4336C41.6578 31.5386 41.6753 31.6261 41.7982 31.6747C44.0683 30.7245 48.4421 28.5028 50.2225 27.8329C50.5672 27.7038 50.435 27.7747 50.2683 28.0168C48.9961 29.7496 44.5854 32.3404 42.1066 33.8427C42.0259 33.9387 41.9543 34.0241 42.1003 34.1102C44.1292 33.7943 48.4119 32.6781 49.9033 32.5475C50.178 32.5234 50.1853 32.4932 49.9759 32.6994C48.3726 34.2634 43.789 35.7818 41.7175 36.5168C41.5299 36.6321 41.4903 36.7442 41.6094 36.8624C43.4412 37.3448 47.5904 37.1894 48.3623 37.3098C48.6118 37.3374 48.5726 37.3409 48.399 37.5043C47.3326 38.5369 42.6848 38.9831 40.3439 39.2373C40.1298 39.2759 40.0688 39.3702 40.1576 39.4811L45.6052 41.3973C45.8439 41.5247 45.842 41.5051 45.5814 41.5774C41.3254 42.7704 37.3284 41.1623 34.2133 38.3302C34.2027 38.3211 34.1812 38.3033 34.1599 38.2853C35.6992 38.8131 37.218 39.5603 38.841 39.5765C39.187 39.5759 39.1991 39.1497 38.8425 39.1413C37.2392 39.1233 35.6972 38.3387 34.2007 37.8468C36.1445 37.9139 38.2027 37.9316 40.0527 37.2655C40.3795 37.1578 40.2347 36.7453 39.9079 36.853C37.9811 37.5456 35.7697 37.4722 33.7653 37.3904C36.0924 36.9792 38.3636 36.2663 40.4295 35.0177C40.7299 34.8333 40.4992 34.4579 40.199 34.6425C38.1615 35.8786 35.9083 36.5701 33.59 36.9707C35.9779 36.0104 38.2193 34.6178 40.1529 32.9854C40.4194 32.7544 40.1334 32.4234 39.8669 32.6544C37.9511 34.2655 35.7474 35.635 33.3881 36.5829C35.6814 35.1069 37.6674 33.2819 39.3885 31.1438C39.6124 30.877 39.2621 30.6012 39.0579 30.8663C37.4083 32.9189 35.5063 34.687 33.3077 36.1154C35.2296 34.2367 36.8263 32.0305 38.1309 29.652C38.2924 29.3512 37.9079 29.1376 37.7463 29.4385C36.4938 31.7333 34.9598 33.8648 33.1128 35.6974C34.6916 33.5126 35.9374 31.1392 36.9093 28.5725C37.0299 28.2554 36.6202 28.0936 36.4996 28.4106C35.5333 30.9275 34.3143 33.2687 32.7625 35.4216C33.9515 32.9643 34.8482 30.4436 35.5833 27.769C35.6736 27.4446 35.2477 27.3236 35.168 27.657C34.4258 30.3619 33.5453 32.8416 32.3366 35.3007C33.1018 32.6332 33.6727 30.0025 34.0227 27.2232C34.072 26.8828 33.6317 26.8223 33.593 27.1718C33.2485 29.9013 32.6598 32.5532 31.9108 35.1796C32.1734 32.4178 32.3166 29.6466 32.4205 26.8789C32.4394 26.5312 31.9937 26.5207 31.9835 26.8578C31.8741 29.6754 31.7223 32.3485 31.4542 35.1602C31.1196 32.3518 30.9269 29.699 30.7493 26.8768C30.729 26.5326 30.2956 26.5507 30.3069 26.9056C30.4793 29.6689 30.6822 32.4394 30.9921 35.1908C30.1805 32.5822 29.5545 29.9476 29.1482 27.2245C29.0976 26.873 28.6694 26.95 28.7182 27.2819C29.128 30.0443 29.754 32.6789 30.569 35.3267C29.3074 32.886 28.3705 30.427 27.5716 27.7382C27.4728 27.4007 27.0587 27.5259 27.1573 27.8634C27.9438 30.5236 28.8948 33.0309 30.1351 35.4536C28.5354 33.3293 27.2752 31.0172 26.2562 28.5257C26.1289 28.2005 25.7181 28.3651 25.8454 28.69C26.8784 31.2298 28.1707 33.5689 29.7828 35.7218C27.8858 33.93 26.3182 31.8325 25.0114 29.5541C24.8375 29.2627 24.4605 29.4737 24.6343 29.765C25.9765 32.1096 27.61 34.2804 29.5906 36.1242C27.3534 34.7379 25.4223 33.0085 23.733 30.9909C23.5021 30.7244 23.1711 31.0104 23.3914 31.2679C25.1465 33.3588 27.1719 35.1492 29.5017 36.5769C27.1398 35.6861 24.888 34.3604 22.9421 32.8002C22.6753 32.5764 22.3995 32.9269 22.6645 33.1311C24.6335 34.7287 26.9155 36.0617 29.3095 36.9794C26.985 36.629 24.7131 35.9775 22.6607 34.7826C22.3581 34.6015 22.1446 34.986 22.4365 35.1582C24.5192 36.3603 26.7928 37.0315 29.1476 37.3891C27.1317 37.516 24.9268 37.6298 22.9921 36.9883C22.6661 36.8784 22.5238 37.2862 22.8498 37.3962C24.7133 38.0142 26.7753 37.9624 28.7127 37.8423C27.227 38.3778 25.6956 39.1841 24.1081 39.2339C23.7532 39.2452 23.7713 39.6787 24.1263 39.6674C25.7727 39.6124 27.2575 38.8399 28.8004 38.2796C28.7825 38.3011 28.7645 38.3224 28.7466 38.3437L28.6895 38.3685ZM31.0208 37.7788L30.771 50.4075C30.7682 50.7142 30.7128 50.7587 30.9145 50.6915C31.3449 50.5253 31.7605 50.5285 32.1685 50.6708C32.3627 50.7428 32.3465 50.7837 32.3297 50.4787L31.8251 37.8173C31.8021 37.2162 31.0193 37.1957 31.0119 37.7895L31.0208 37.7788Z"/>
</mask>
<path fill-rule="evenodd" clip-rule="evenodd" d="M16.641 29.0405C16.545 28.96 16.449 28.8793 16.3529 28.7988C15.5705 28.1058 14.806 27.3916 14.088 26.6437C13.4784 26.0049 12.844 25.3089 12.3436 24.5617C12.2992 24.5063 12.2744 24.449 12.23 24.3936C12.0011 24.038 11.9919 23.5937 12.3088 23.2596C12.6256 22.9254 13.0697 22.9162 13.4346 23.1314C13.488 23.1761 13.5592 23.1997 13.6019 23.2355C14.3424 23.675 15.0791 24.184 15.7944 24.6751C16.7001 25.3077 17.6058 25.9404 18.5204 26.5624C18.2203 26.1833 17.9201 25.8042 17.6396 25.4233C16.9258 24.497 16.2298 23.5493 15.5821 22.5876C15.0355 21.7653 14.4839 20.8841 14.0785 19.9802C14.0554 19.9427 14.0324 19.9052 14.0289 19.8659C13.8376 19.4872 13.8783 19.0485 14.2468 18.7395C14.5973 18.4517 15.0769 18.5086 15.397 18.7772C15.4397 18.8131 15.4824 18.8489 15.5358 18.8936C16.2239 19.5256 16.8851 20.1895 17.5374 20.8641C18.2093 21.537 18.8812 22.2099 19.5442 22.8935C19.5335 22.8846 19.5211 22.856 19.5194 22.8364C18.8916 21.7641 18.2728 20.6811 17.7112 19.5734C17.2452 18.6551 16.7652 17.6886 16.4225 16.71C16.2652 16.2689 16.1187 15.8368 16.6889 15.4606C17.0821 15.2087 17.5455 15.3066 17.8298 15.6179C17.8832 15.6627 17.908 15.7198 17.9613 15.7646C18.6115 16.5284 19.2259 17.3349 19.8207 18.143C20.3586 18.8672 20.8966 19.5914 21.4256 20.3262C20.9975 19.276 20.5802 18.2348 20.1914 17.1812C19.8166 16.1758 19.4474 15.1204 19.1888 14.0851C19.078 13.6103 19.0227 13.091 19.6425 12.8292C19.8997 12.7177 20.1207 12.7577 20.2633 12.8045C20.5893 12.9144 20.6956 13.1128 20.866 13.3649C21.4766 14.2409 22.0334 15.1809 22.5493 16.1048C22.9819 16.8678 23.4055 17.6415 23.8096 18.417C23.5526 17.4013 23.3153 16.3838 23.078 15.3664C22.8338 14.2704 22.5968 13.1442 22.449 12.0201C22.3865 11.5312 22.4293 11.0034 23.0666 10.829C23.4433 10.7268 23.844 10.8994 24.0498 11.2175C24.1083 11.3212 24.0976 11.3122 24.11 11.3408C24.1348 11.398 24.1596 11.4551 24.204 11.5106C24.734 12.4826 25.1834 13.5507 25.6097 14.5813C25.9245 15.3546 26.2304 16.1387 26.5274 16.9333C26.4147 15.9841 26.3126 15.0438 26.2392 14.0912C26.1485 12.9422 26.0545 11.7541 26.0816 10.5948C26.0993 10.1187 26.1758 9.63738 26.829 9.5308C27.3358 9.44692 27.6146 9.80814 27.6359 9.82605C27.7123 9.90835 27.7371 9.9655 27.7602 10.003C27.8063 10.0781 27.7974 10.0888 27.8204 10.1263C27.8452 10.1835 27.8592 10.2317 27.884 10.2888C28.2852 11.371 28.5952 12.5403 28.8714 13.6631C29.1441 14.7467 29.3687 15.8443 29.6023 16.9313C29.6452 15.8399 29.6988 14.7575 29.7827 13.6823C29.867 12.4983 29.973 11.2234 30.207 10.0559C30.2198 9.97571 30.2415 9.88482 30.2542 9.80461C30.3466 9.39114 30.6422 9.039 31.1272 9.046C31.6017 9.04404 31.9073 9.37325 32.0129 9.78918C32.0304 9.87663 32.0569 9.95343 32.0745 10.0409C32.3327 11.185 32.4623 12.4393 32.585 13.6151C32.6849 14.6445 32.7669 15.6953 32.8277 16.7282C33.0238 15.6926 33.2288 14.6464 33.4553 13.618C33.7052 12.5184 33.9712 11.3778 34.353 10.3161C34.3764 10.2449 34.3998 10.1736 34.4323 10.0917C34.4467 10.0311 34.4377 10.0417 34.4987 9.94742C34.5256 9.91541 34.5401 9.85483 34.6117 9.76947C34.6295 9.74813 34.9144 9.38702 35.4153 9.46185C36.0963 9.56047 36.1622 10.0886 36.1856 10.581C36.2459 11.7227 36.1813 12.9049 36.1043 14.0586C36.0369 14.9841 35.9696 15.9095 35.8808 16.8171C36.1582 16.0315 36.4355 15.2458 36.7431 14.4675C37.1462 13.4237 37.5672 12.3585 38.0841 11.374C38.1361 11.2903 38.1686 11.2084 38.2205 11.1247C38.2654 11.0714 38.2546 11.0624 38.3262 10.977C38.5681 10.6889 38.9626 10.5654 39.3207 10.7022C40.026 10.9668 39.903 11.4818 39.8478 11.981C39.7371 13.0882 39.5192 14.2147 39.2997 15.3216C39.1001 16.3179 38.8791 17.2963 38.6582 18.2747C39.0443 17.4895 39.4518 16.7222 39.8592 15.9548C40.3602 15.0112 40.8895 14.0553 41.4937 13.162C41.5384 13.1086 41.5814 13.0356 41.6155 12.9733C41.6513 12.9306 41.6513 12.9306 41.714 12.8559C41.9559 12.5678 42.3824 12.4712 42.7421 12.6276C43.3904 12.9169 43.287 13.4302 43.1802 13.9043C42.9447 14.9433 42.6022 16.0016 42.2457 17.0117C41.8819 18.052 41.4984 19.0941 41.0954 20.1379C41.6044 19.4013 42.1134 18.6646 42.6242 17.9475C43.2048 17.1255 43.7961 16.3124 44.4302 15.5352C44.475 15.4818 44.5198 15.4284 44.5645 15.3751C44.8421 15.0443 45.3063 14.9246 45.7032 15.1667C46.2977 15.5201 46.1499 15.978 46.0021 16.4358C45.683 17.4228 45.2249 18.4023 44.7722 19.3317C44.2263 20.4375 43.6411 21.5467 43.0435 22.6273C43.0435 22.6273 43.0255 22.6486 43.0166 22.6593C43.6592 21.9801 44.2929 21.3117 44.9355 20.6325C45.5781 19.9534 46.2314 19.2832 46.8864 18.6326C46.9311 18.5793 46.9865 18.5349 47.042 18.4905C47.3533 18.2061 47.8209 18.1257 48.1909 18.3998C48.5716 18.6829 48.6308 19.1326 48.4475 19.5244C48.4224 19.576 48.3972 19.6276 48.3827 19.6882C47.9963 20.5823 47.4707 21.4687 46.9489 22.2856C46.3321 23.2591 45.6725 24.1968 44.9916 25.1166C44.7175 25.4867 44.4344 25.8674 44.1514 26.2481C45.0452 25.6161 45.9089 24.977 46.8028 24.3451C47.5107 23.8481 48.2349 23.3101 48.9767 22.8596C49.0427 22.8243 49.0982 22.7798 49.1553 22.755C49.5235 22.5547 49.98 22.5741 50.2767 22.914C50.5734 23.2539 50.5629 23.6998 50.3264 24.0467C50.2905 24.0894 50.2547 24.1321 50.2207 24.1944C49.7525 24.9472 49.133 25.6639 48.5262 26.3003C47.812 27.0648 47.0551 27.7936 46.2964 28.5027C46.2052 28.5897 46.114 28.6768 46.0226 28.7639C46.6301 28.4734 47.2571 28.1813 47.8751 27.8998C48.5307 27.5953 49.2149 27.2784 49.8953 27.031C50.3453 26.863 50.8467 26.8291 51.157 27.326C51.3859 27.6816 51.3043 28.104 51.0552 28.4224C51.0194 28.4652 50.9836 28.5078 50.9478 28.5506C50.4353 29.2479 49.6608 29.8891 48.9849 30.413C48.1229 31.0718 47.2094 31.7055 46.2907 32.2802C46.2442 32.3139 46.1782 32.3495 46.1316 32.3832C46.7331 32.2514 47.3346 32.1197 47.9272 31.9987C48.5395 31.8758 49.1802 31.7407 49.8082 31.6857C50.2399 31.6479 50.6482 31.6815 50.8892 32.1745C51.0591 32.5354 50.9651 32.9292 50.7019 33.1995C50.6661 33.2422 50.6213 33.2954 50.5749 33.3293C49.5084 34.3619 47.5953 35.2115 46.2307 35.7758C45.7539 35.9757 45.2752 36.1561 44.7966 36.3364C45.501 36.3637 46.2037 36.3715 46.9172 36.3882C47.4022 36.3951 47.9944 36.3829 48.4651 36.4504C48.875 36.5035 49.2365 36.6796 49.3652 37.133C49.4639 37.4704 49.3539 37.7965 49.1178 38.0347C49.0819 38.0773 49.0461 38.1201 48.9997 38.1538C48.1246 39.0016 45.7437 39.4769 43.5258 39.7797L45.9432 40.6261L45.9965 40.671C45.9965 40.671 46.1088 40.7105 46.1514 40.7463C46.4647 40.9365 46.6615 41.2654 46.6157 41.6451C46.5515 42.1549 46.2013 42.3339 45.7872 42.4592C41.2598 43.7154 36.9633 42.0743 33.601 39.0165C33.3769 38.8284 33.0816 38.617 32.7503 38.4482L33.232 50.5085C33.2485 50.9223 33.2205 51.2808 32.8166 51.5237C32.4788 51.7313 32.2257 51.6644 31.9104 51.5635C31.686 51.4843 31.488 51.4818 31.2683 51.5702C30.9237 51.6992 30.5901 51.7285 30.2716 51.4794C29.8998 51.1857 29.9223 50.8772 29.9271 50.4813L30.1534 38.4876C29.8228 38.6648 29.5243 38.8688 29.2953 39.0768C25.9836 42.1351 21.7191 43.6847 17.2294 42.7724C16.7963 42.6818 16.3939 42.4895 16.3279 41.9614C16.2846 41.5796 16.4926 41.245 16.8125 41.0588C16.859 41.0251 16.9072 41.011 16.9537 40.9771L17.0108 40.9525L19.2772 40.072C17.1092 39.8166 14.7688 39.3985 13.8746 38.5572C13.8319 38.5213 13.7892 38.4855 13.7465 38.4497C13.5083 38.2134 13.3917 37.8974 13.4713 37.5642C13.5888 37.099 13.9496 36.9291 14.3494 36.8644C14.8276 36.7928 15.4108 36.7913 15.8942 36.7786C16.6042 36.7561 17.3034 36.7246 18.0116 36.6824C17.5324 36.5168 17.0622 36.3403 16.5812 36.155C15.199 35.6134 13.2701 34.8133 12.1838 33.8107C12.1411 33.7749 12.0984 33.7391 12.045 33.6943C11.7748 33.4313 11.6531 33.0563 11.8077 32.6768C12.0199 32.1639 12.441 32.1172 12.8779 32.1383C13.5038 32.1725 14.1473 32.2942 14.7604 32.4087C15.3629 32.5141 15.9671 32.6393 16.5803 32.7537C16.5269 32.709 16.445 32.6765 16.3917 32.6318C15.4519 32.0614 14.5282 31.4501 13.6511 30.805C12.9537 30.2925 12.1765 29.6586 11.6419 28.9737C11.5975 28.9182 11.5531 28.8628 11.5177 28.7966C11.2816 28.4712 11.2438 28.0395 11.5107 27.6998C11.7776 27.36 12.1863 27.2846 12.564 27.4198C12.6245 27.4342 12.6869 27.4682 12.7474 27.4827C13.4315 27.7294 14.11 28.026 14.7672 28.3047C15.3835 28.5672 15.9907 28.8403 16.598 29.1135L16.641 29.0405ZM28.6895 38.3685C25.6336 41.1868 21.6529 42.7018 17.3949 41.8384C17.1026 41.7749 17.1436 41.7912 17.3884 41.6511L22.7247 39.5825C22.766 39.4898 22.7216 39.4344 22.5915 39.4161C20.3591 39.216 15.5928 38.8716 14.4727 37.8226C14.2913 37.6703 14.2504 37.6541 14.5038 37.6122C15.2836 37.4846 19.432 37.5469 21.2548 37.0216C21.3695 36.8632 21.3199 36.749 21.1364 36.6859C19.0485 35.9885 14.4356 34.5728 12.7999 33.0547C12.5865 32.8757 12.5758 32.8668 12.8557 32.9016C14.3571 32.9976 18.6592 34.0254 20.7004 34.3016C20.8254 34.2609 20.8168 34.1629 20.6977 34.0447C18.1771 32.5843 13.7054 30.0686 12.3878 28.3447C12.1658 28.0675 12.1995 28.114 12.4953 28.2167C14.2713 28.8523 18.6874 30.9577 20.9513 31.8572C21.0387 31.8396 21.1138 31.7935 21.0092 31.6148C18.8698 29.765 14.599 26.3814 13.0605 24.054C12.8778 23.7734 12.8581 23.7751 13.1501 23.9473C14.421 24.6864 17.4313 26.8851 20.0028 28.5882C20.6328 29.0076 21.2397 29.3896 21.7825 29.7179C21.9716 29.731 22.1179 29.7083 21.9458 29.4367C19.9336 26.8936 16.1268 22.3718 14.8663 19.6048C14.7796 19.4048 14.7139 19.3314 14.929 19.5301C16.8119 21.2737 20.8656 25.5662 23.2232 27.7626C23.3747 27.7988 23.5048 27.817 23.395 27.5795C21.625 24.6396 18.2649 19.347 17.2261 16.4024C17.1467 16.172 17.0685 16.0701 17.2781 16.3187C19.1292 18.4903 22.718 23.6837 24.7294 26.4444C24.8967 26.5483 24.9522 26.504 24.9064 26.3201C23.5176 22.9909 20.8056 16.9692 20.0403 13.8721C19.9945 13.6883 19.9787 13.6205 19.9894 13.6294C20 13.6384 20.0568 13.7224 20.1473 13.8529C21.8762 16.3219 24.824 22.2141 26.3753 25.4797C26.4927 25.5782 26.5392 25.5445 26.5272 25.407C25.6088 21.6906 23.7298 15.1314 23.3287 11.9036C23.2854 11.5217 23.2957 11.6395 23.4482 11.9129C24.9335 14.6503 27.1396 20.9931 28.2206 24.6459C28.277 24.8387 28.4003 24.7785 28.3831 24.5822C27.931 20.6569 26.8713 13.8579 26.9716 10.5961C26.9744 10.2893 26.9655 10.3 27.0697 10.5875C28.2275 13.6502 29.3939 20.5388 30.1084 24.4116C30.1776 24.5241 30.2455 24.5083 30.3243 24.3926C30.3229 20.0818 30.4915 12.9677 31.0519 10.2193C31.1336 9.79689 31.114 9.79862 31.2107 10.2252C31.8431 13.0472 32.1989 20.1648 32.272 24.3903C32.2985 24.4672 32.3572 24.462 32.411 24.3979C33.0337 20.6652 34.0613 13.7628 35.1689 10.6007C35.2949 10.2337 35.2933 10.2141 35.299 10.619C35.4466 13.8888 34.5296 20.8112 34.1669 24.6892C34.213 24.7643 34.2736 24.7788 34.3183 24.7254C35.3135 21.0689 37.4045 14.5678 38.8497 11.7618C39.0778 11.3167 38.9985 11.5412 38.9599 11.8906C38.6335 15.0535 36.9133 21.6112 36.0713 25.3236C36.0782 25.402 36.1494 25.4254 36.2352 25.3883C37.725 22.0741 40.5365 16.123 42.2073 13.6335C42.426 13.3078 42.39 13.3505 42.3122 13.7034C41.6044 16.8008 39.0297 22.8598 37.7217 26.2173C37.7229 26.3458 37.7853 26.3799 37.8996 26.3303C39.8318 23.551 43.3062 18.2834 45.1008 16.0796C45.3247 15.8129 45.262 15.8876 45.1772 16.1619C44.2094 19.114 40.9702 24.4698 39.2621 27.4372C39.2349 27.578 39.2899 27.6424 39.4363 27.6197C41.7321 25.3819 45.6725 21.0328 47.5049 19.2608C47.7608 19.0208 47.7053 19.0653 47.5903 19.3324C46.3822 22.1374 42.671 26.7336 40.747 29.2651C40.6911 29.4182 40.748 29.5023 40.887 29.5098C43.618 27.8372 47.8418 24.5805 49.4361 23.5907C49.7274 23.4168 49.6614 23.4524 49.5054 23.7032C48.0206 26.0578 43.8352 29.5288 41.7277 31.4336C41.6578 31.5386 41.6753 31.6261 41.7982 31.6747C44.0683 30.7245 48.4421 28.5028 50.2225 27.8329C50.5672 27.7038 50.435 27.7747 50.2683 28.0168C48.9961 29.7496 44.5854 32.3404 42.1066 33.8427C42.0259 33.9387 41.9543 34.0241 42.1003 34.1102C44.1292 33.7943 48.4119 32.6781 49.9033 32.5475C50.178 32.5234 50.1853 32.4932 49.9759 32.6994C48.3726 34.2634 43.789 35.7818 41.7175 36.5168C41.5299 36.6321 41.4903 36.7442 41.6094 36.8624C43.4412 37.3448 47.5904 37.1894 48.3623 37.3098C48.6118 37.3374 48.5726 37.3409 48.399 37.5043C47.3326 38.5369 42.6848 38.9831 40.3439 39.2373C40.1298 39.2759 40.0688 39.3702 40.1576 39.4811L45.6052 41.3973C45.8439 41.5247 45.842 41.5051 45.5814 41.5774C41.3254 42.7704 37.3284 41.1623 34.2133 38.3302C34.2027 38.3211 34.1812 38.3033 34.1599 38.2853C35.6992 38.8131 37.218 39.5603 38.841 39.5765C39.187 39.5759 39.1991 39.1497 38.8425 39.1413C37.2392 39.1233 35.6972 38.3387 34.2007 37.8468C36.1445 37.9139 38.2027 37.9316 40.0527 37.2655C40.3795 37.1578 40.2347 36.7453 39.9079 36.853C37.9811 37.5456 35.7697 37.4722 33.7653 37.3904C36.0924 36.9792 38.3636 36.2663 40.4295 35.0177C40.7299 34.8333 40.4992 34.4579 40.199 34.6425C38.1615 35.8786 35.9083 36.5701 33.59 36.9707C35.9779 36.0104 38.2193 34.6178 40.1529 32.9854C40.4194 32.7544 40.1334 32.4234 39.8669 32.6544C37.9511 34.2655 35.7474 35.635 33.3881 36.5829C35.6814 35.1069 37.6674 33.2819 39.3885 31.1438C39.6124 30.877 39.2621 30.6012 39.0579 30.8663C37.4083 32.9189 35.5063 34.687 33.3077 36.1154C35.2296 34.2367 36.8263 32.0305 38.1309 29.652C38.2924 29.3512 37.9079 29.1376 37.7463 29.4385C36.4938 31.7333 34.9598 33.8648 33.1128 35.6974C34.6916 33.5126 35.9374 31.1392 36.9093 28.5725C37.0299 28.2554 36.6202 28.0936 36.4996 28.4106C35.5333 30.9275 34.3143 33.2687 32.7625 35.4216C33.9515 32.9643 34.8482 30.4436 35.5833 27.769C35.6736 27.4446 35.2477 27.3236 35.168 27.657C34.4258 30.3619 33.5453 32.8416 32.3366 35.3007C33.1018 32.6332 33.6727 30.0025 34.0227 27.2232C34.072 26.8828 33.6317 26.8223 33.593 27.1718C33.2485 29.9013 32.6598 32.5532 31.9108 35.1796C32.1734 32.4178 32.3166 29.6466 32.4205 26.8789C32.4394 26.5312 31.9937 26.5207 31.9835 26.8578C31.8741 29.6754 31.7223 32.3485 31.4542 35.1602C31.1196 32.3518 30.9269 29.699 30.7493 26.8768C30.729 26.5326 30.2956 26.5507 30.3069 26.9056C30.4793 29.6689 30.6822 32.4394 30.9921 35.1908C30.1805 32.5822 29.5545 29.9476 29.1482 27.2245C29.0976 26.873 28.6694 26.95 28.7182 27.2819C29.128 30.0443 29.754 32.6789 30.569 35.3267C29.3074 32.886 28.3705 30.427 27.5716 27.7382C27.4728 27.4007 27.0587 27.5259 27.1573 27.8634C27.9438 30.5236 28.8948 33.0309 30.1351 35.4536C28.5354 33.3293 27.2752 31.0172 26.2562 28.5257C26.1289 28.2005 25.7181 28.3651 25.8454 28.69C26.8784 31.2298 28.1707 33.5689 29.7828 35.7218C27.8858 33.93 26.3182 31.8325 25.0114 29.5541C24.8375 29.2627 24.4605 29.4737 24.6343 29.765C25.9765 32.1096 27.61 34.2804 29.5906 36.1242C27.3534 34.7379 25.4223 33.0085 23.733 30.9909C23.5021 30.7244 23.1711 31.0104 23.3914 31.2679C25.1465 33.3588 27.1719 35.1492 29.5017 36.5769C27.1398 35.6861 24.888 34.3604 22.9421 32.8002C22.6753 32.5764 22.3995 32.9269 22.6645 33.1311C24.6335 34.7287 26.9155 36.0617 29.3095 36.9794C26.985 36.629 24.7131 35.9775 22.6607 34.7826C22.3581 34.6015 22.1446 34.986 22.4365 35.1582C24.5192 36.3603 26.7928 37.0315 29.1476 37.3891C27.1317 37.516 24.9268 37.6298 22.9921 36.9883C22.6661 36.8784 22.5238 37.2862 22.8498 37.3962C24.7133 38.0142 26.7753 37.9624 28.7127 37.8423C27.227 38.3778 25.6956 39.1841 24.1081 39.2339C23.7532 39.2452 23.7713 39.6787 24.1263 39.6674C25.7727 39.6124 27.2575 38.8399 28.8004 38.2796C28.7825 38.3011 28.7645 38.3224 28.7466 38.3437L28.6895 38.3685ZM31.0208 37.7788L30.771 50.4075C30.7682 50.7142 30.7128 50.7587 30.9145 50.6915C31.3449 50.5253 31.7605 50.5285 32.1685 50.6708C32.3627 50.7428 32.3465 50.7837 32.3297 50.4787L31.8251 37.8173C31.8021 37.2162 31.0193 37.1957 31.0119 37.7895L31.0208 37.7788Z" fill="black"/>
<path fill-rule="evenodd" clip-rule="evenodd" d="M16.641 29.0405C16.545 28.96 16.449 28.8793 16.3529 28.7988C15.5705 28.1058 14.806 27.3916 14.088 26.6437C13.4784 26.0049 12.844 25.3089 12.3436 24.5617C12.2992 24.5063 12.2744 24.449 12.23 24.3936C12.0011 24.038 11.9919 23.5937 12.3088 23.2596C12.6256 22.9254 13.0697 22.9162 13.4346 23.1314C13.488 23.1761 13.5592 23.1997 13.6019 23.2355C14.3424 23.675 15.0791 24.184 15.7944 24.6751C16.7001 25.3077 17.6058 25.9404 18.5204 26.5624C18.2203 26.1833 17.9201 25.8042 17.6396 25.4233C16.9258 24.497 16.2298 23.5493 15.5821 22.5876C15.0355 21.7653 14.4839 20.8841 14.0785 19.9802C14.0554 19.9427 14.0324 19.9052 14.0289 19.8659C13.8376 19.4872 13.8783 19.0485 14.2468 18.7395C14.5973 18.4517 15.0769 18.5086 15.397 18.7772C15.4397 18.8131 15.4824 18.8489 15.5358 18.8936C16.2239 19.5256 16.8851 20.1895 17.5374 20.8641C18.2093 21.537 18.8812 22.2099 19.5442 22.8935C19.5335 22.8846 19.5211 22.856 19.5194 22.8364C18.8916 21.7641 18.2728 20.6811 17.7112 19.5734C17.2452 18.6551 16.7652 17.6886 16.4225 16.71C16.2652 16.2689 16.1187 15.8368 16.6889 15.4606C17.0821 15.2087 17.5455 15.3066 17.8298 15.6179C17.8832 15.6627 17.908 15.7198 17.9613 15.7646C18.6115 16.5284 19.2259 17.3349 19.8207 18.143C20.3586 18.8672 20.8966 19.5914 21.4256 20.3262C20.9975 19.276 20.5802 18.2348 20.1914 17.1812C19.8166 16.1758 19.4474 15.1204 19.1888 14.0851C19.078 13.6103 19.0227 13.091 19.6425 12.8292C19.8997 12.7177 20.1207 12.7577 20.2633 12.8045C20.5893 12.9144 20.6956 13.1128 20.866 13.3649C21.4766 14.2409 22.0334 15.1809 22.5493 16.1048C22.9819 16.8678 23.4055 17.6415 23.8096 18.417C23.5526 17.4013 23.3153 16.3838 23.078 15.3664C22.8338 14.2704 22.5968 13.1442 22.449 12.0201C22.3865 11.5312 22.4293 11.0034 23.0666 10.829C23.4433 10.7268 23.844 10.8994 24.0498 11.2175C24.1083 11.3212 24.0976 11.3122 24.11 11.3408C24.1348 11.398 24.1596 11.4551 24.204 11.5106C24.734 12.4826 25.1834 13.5507 25.6097 14.5813C25.9245 15.3546 26.2304 16.1387 26.5274 16.9333C26.4147 15.9841 26.3126 15.0438 26.2392 14.0912C26.1485 12.9422 26.0545 11.7541 26.0816 10.5948C26.0993 10.1187 26.1758 9.63738 26.829 9.5308C27.3358 9.44692 27.6146 9.80814 27.6359 9.82605C27.7123 9.90835 27.7371 9.9655 27.7602 10.003C27.8063 10.0781 27.7974 10.0888 27.8204 10.1263C27.8452 10.1835 27.8592 10.2317 27.884 10.2888C28.2852 11.371 28.5952 12.5403 28.8714 13.6631C29.1441 14.7467 29.3687 15.8443 29.6023 16.9313C29.6452 15.8399 29.6988 14.7575 29.7827 13.6823C29.867 12.4983 29.973 11.2234 30.207 10.0559C30.2198 9.97571 30.2415 9.88482 30.2542 9.80461C30.3466 9.39114 30.6422 9.039 31.1272 9.046C31.6017 9.04404 31.9073 9.37325 32.0129 9.78918C32.0304 9.87663 32.0569 9.95343 32.0745 10.0409C32.3327 11.185 32.4623 12.4393 32.585 13.6151C32.6849 14.6445 32.7669 15.6953 32.8277 16.7282C33.0238 15.6926 33.2288 14.6464 33.4553 13.618C33.7052 12.5184 33.9712 11.3778 34.353 10.3161C34.3764 10.2449 34.3998 10.1736 34.4323 10.0917C34.4467 10.0311 34.4377 10.0417 34.4987 9.94742C34.5256 9.91541 34.5401 9.85483 34.6117 9.76947C34.6295 9.74813 34.9144 9.38702 35.4153 9.46185C36.0963 9.56047 36.1622 10.0886 36.1856 10.581C36.2459 11.7227 36.1813 12.9049 36.1043 14.0586C36.0369 14.9841 35.9696 15.9095 35.8808 16.8171C36.1582 16.0315 36.4355 15.2458 36.7431 14.4675C37.1462 13.4237 37.5672 12.3585 38.0841 11.374C38.1361 11.2903 38.1686 11.2084 38.2205 11.1247C38.2654 11.0714 38.2546 11.0624 38.3262 10.977C38.5681 10.6889 38.9626 10.5654 39.3207 10.7022C40.026 10.9668 39.903 11.4818 39.8478 11.981C39.7371 13.0882 39.5192 14.2147 39.2997 15.3216C39.1001 16.3179 38.8791 17.2963 38.6582 18.2747C39.0443 17.4895 39.4518 16.7222 39.8592 15.9548C40.3602 15.0112 40.8895 14.0553 41.4937 13.162C41.5384 13.1086 41.5814 13.0356 41.6155 12.9733C41.6513 12.9306 41.6513 12.9306 41.714 12.8559C41.9559 12.5678 42.3824 12.4712 42.7421 12.6276C43.3904 12.9169 43.287 13.4302 43.1802 13.9043C42.9447 14.9433 42.6022 16.0016 42.2457 17.0117C41.8819 18.052 41.4984 19.0941 41.0954 20.1379C41.6044 19.4013 42.1134 18.6646 42.6242 17.9475C43.2048 17.1255 43.7961 16.3124 44.4302 15.5352C44.475 15.4818 44.5198 15.4284 44.5645 15.3751C44.8421 15.0443 45.3063 14.9246 45.7032 15.1667C46.2977 15.5201 46.1499 15.978 46.0021 16.4358C45.683 17.4228 45.2249 18.4023 44.7722 19.3317C44.2263 20.4375 43.6411 21.5467 43.0435 22.6273C43.0435 22.6273 43.0255 22.6486 43.0166 22.6593C43.6592 21.9801 44.2929 21.3117 44.9355 20.6325C45.5781 19.9534 46.2314 19.2832 46.8864 18.6326C46.9311 18.5793 46.9865 18.5349 47.042 18.4905C47.3533 18.2061 47.8209 18.1257 48.1909 18.3998C48.5716 18.6829 48.6308 19.1326 48.4475 19.5244C48.4224 19.576 48.3972 19.6276 48.3827 19.6882C47.9963 20.5823 47.4707 21.4687 46.9489 22.2856C46.3321 23.2591 45.6725 24.1968 44.9916 25.1166C44.7175 25.4867 44.4344 25.8674 44.1514 26.2481C45.0452 25.6161 45.9089 24.977 46.8028 24.3451C47.5107 23.8481 48.2349 23.3101 48.9767 22.8596C49.0427 22.8243 49.0982 22.7798 49.1553 22.755C49.5235 22.5547 49.98 22.5741 50.2767 22.914C50.5734 23.2539 50.5629 23.6998 50.3264 24.0467C50.2905 24.0894 50.2547 24.1321 50.2207 24.1944C49.7525 24.9472 49.133 25.6639 48.5262 26.3003C47.812 27.0648 47.0551 27.7936 46.2964 28.5027C46.2052 28.5897 46.114 28.6768 46.0226 28.7639C46.6301 28.4734 47.2571 28.1813 47.8751 27.8998C48.5307 27.5953 49.2149 27.2784 49.8953 27.031C50.3453 26.863 50.8467 26.8291 51.157 27.326C51.3859 27.6816 51.3043 28.104 51.0552 28.4224C51.0194 28.4652 50.9836 28.5078 50.9478 28.5506C50.4353 29.2479 49.6608 29.8891 48.9849 30.413C48.1229 31.0718 47.2094 31.7055 46.2907 32.2802C46.2442 32.3139 46.1782 32.3495 46.1316 32.3832C46.7331 32.2514 47.3346 32.1197 47.9272 31.9987C48.5395 31.8758 49.1802 31.7407 49.8082 31.6857C50.2399 31.6479 50.6482 31.6815 50.8892 32.1745C51.0591 32.5354 50.9651 32.9292 50.7019 33.1995C50.6661 33.2422 50.6213 33.2954 50.5749 33.3293C49.5084 34.3619 47.5953 35.2115 46.2307 35.7758C45.7539 35.9757 45.2752 36.1561 44.7966 36.3364C45.501 36.3637 46.2037 36.3715 46.9172 36.3882C47.4022 36.3951 47.9944 36.3829 48.4651 36.4504C48.875 36.5035 49.2365 36.6796 49.3652 37.133C49.4639 37.4704 49.3539 37.7965 49.1178 38.0347C49.0819 38.0773 49.0461 38.1201 48.9997 38.1538C48.1246 39.0016 45.7437 39.4769 43.5258 39.7797L45.9432 40.6261L45.9965 40.671C45.9965 40.671 46.1088 40.7105 46.1514 40.7463C46.4647 40.9365 46.6615 41.2654 46.6157 41.6451C46.5515 42.1549 46.2013 42.3339 45.7872 42.4592C41.2598 43.7154 36.9633 42.0743 33.601 39.0165C33.3769 38.8284 33.0816 38.617 32.7503 38.4482L33.232 50.5085C33.2485 50.9223 33.2205 51.2808 32.8166 51.5237C32.4788 51.7313 32.2257 51.6644 31.9104 51.5635C31.686 51.4843 31.488 51.4818 31.2683 51.5702C30.9237 51.6992 30.5901 51.7285 30.2716 51.4794C29.8998 51.1857 29.9223 50.8772 29.9271 50.4813L30.1534 38.4876C29.8228 38.6648 29.5243 38.8688 29.2953 39.0768C25.9836 42.1351 21.7191 43.6847 17.2294 42.7724C16.7963 42.6818 16.3939 42.4895 16.3279 41.9614C16.2846 41.5796 16.4926 41.245 16.8125 41.0588C16.859 41.0251 16.9072 41.011 16.9537 40.9771L17.0108 40.9525L19.2772 40.072C17.1092 39.8166 14.7688 39.3985 13.8746 38.5572C13.8319 38.5213 13.7892 38.4855 13.7465 38.4497C13.5083 38.2134 13.3917 37.8974 13.4713 37.5642C13.5888 37.099 13.9496 36.9291 14.3494 36.8644C14.8276 36.7928 15.4108 36.7913 15.8942 36.7786C16.6042 36.7561 17.3034 36.7246 18.0116 36.6824C17.5324 36.5168 17.0622 36.3403 16.5812 36.155C15.199 35.6134 13.2701 34.8133 12.1838 33.8107C12.1411 33.7749 12.0984 33.7391 12.045 33.6943C11.7748 33.4313 11.6531 33.0563 11.8077 32.6768C12.0199 32.1639 12.441 32.1172 12.8779 32.1383C13.5038 32.1725 14.1473 32.2942 14.7604 32.4087C15.3629 32.5141 15.9671 32.6393 16.5803 32.7537C16.5269 32.709 16.445 32.6765 16.3917 32.6318C15.4519 32.0614 14.5282 31.4501 13.6511 30.805C12.9537 30.2925 12.1765 29.6586 11.6419 28.9737C11.5975 28.9182 11.5531 28.8628 11.5177 28.7966C11.2816 28.4712 11.2438 28.0395 11.5107 27.6998C11.7776 27.36 12.1863 27.2846 12.564 27.4198C12.6245 27.4342 12.6869 27.4682 12.7474 27.4827C13.4315 27.7294 14.11 28.026 14.7672 28.3047C15.3835 28.5672 15.9907 28.8403 16.598 29.1135L16.641 29.0405ZM28.6895 38.3685C25.6336 41.1868 21.6529 42.7018 17.3949 41.8384C17.1026 41.7749 17.1436 41.7912 17.3884 41.6511L22.7247 39.5825C22.766 39.4898 22.7216 39.4344 22.5915 39.4161C20.3591 39.216 15.5928 38.8716 14.4727 37.8226C14.2913 37.6703 14.2504 37.6541 14.5038 37.6122C15.2836 37.4846 19.432 37.5469 21.2548 37.0216C21.3695 36.8632 21.3199 36.749 21.1364 36.6859C19.0485 35.9885 14.4356 34.5728 12.7999 33.0547C12.5865 32.8757 12.5758 32.8668 12.8557 32.9016C14.3571 32.9976 18.6592 34.0254 20.7004 34.3016C20.8254 34.2609 20.8168 34.1629 20.6977 34.0447C18.1771 32.5843 13.7054 30.0686 12.3878 28.3447C12.1658 28.0675 12.1995 28.114 12.4953 28.2167C14.2713 28.8523 18.6874 30.9577 20.9513 31.8572C21.0387 31.8396 21.1138 31.7935 21.0092 31.6148C18.8698 29.765 14.599 26.3814 13.0605 24.054C12.8778 23.7734 12.8581 23.7751 13.1501 23.9473C14.421 24.6864 17.4313 26.8851 20.0028 28.5882C20.6328 29.0076 21.2397 29.3896 21.7825 29.7179C21.9716 29.731 22.1179 29.7083 21.9458 29.4367C19.9336 26.8936 16.1268 22.3718 14.8663 19.6048C14.7796 19.4048 14.7139 19.3314 14.929 19.5301C16.8119 21.2737 20.8656 25.5662 23.2232 27.7626C23.3747 27.7988 23.5048 27.817 23.395 27.5795C21.625 24.6396 18.2649 19.347 17.2261 16.4024C17.1467 16.172 17.0685 16.0701 17.2781 16.3187C19.1292 18.4903 22.718 23.6837 24.7294 26.4444C24.8967 26.5483 24.9522 26.504 24.9064 26.3201C23.5176 22.9909 20.8056 16.9692 20.0403 13.8721C19.9945 13.6883 19.9787 13.6205 19.9894 13.6294C20 13.6384 20.0568 13.7224 20.1473 13.8529C21.8762 16.3219 24.824 22.2141 26.3753 25.4797C26.4927 25.5782 26.5392 25.5445 26.5272 25.407C25.6088 21.6906 23.7298 15.1314 23.3287 11.9036C23.2854 11.5217 23.2957 11.6395 23.4482 11.9129C24.9335 14.6503 27.1396 20.9931 28.2206 24.6459C28.277 24.8387 28.4003 24.7785 28.3831 24.5822C27.931 20.6569 26.8713 13.8579 26.9716 10.5961C26.9744 10.2893 26.9655 10.3 27.0697 10.5875C28.2275 13.6502 29.3939 20.5388 30.1084 24.4116C30.1776 24.5241 30.2455 24.5083 30.3243 24.3926C30.3229 20.0818 30.4915 12.9677 31.0519 10.2193C31.1336 9.79689 31.114 9.79862 31.2107 10.2252C31.8431 13.0472 32.1989 20.1648 32.272 24.3903C32.2985 24.4672 32.3572 24.462 32.411 24.3979C33.0337 20.6652 34.0613 13.7628 35.1689 10.6007C35.2949 10.2337 35.2933 10.2141 35.299 10.619C35.4466 13.8888 34.5296 20.8112 34.1669 24.6892C34.213 24.7643 34.2736 24.7788 34.3183 24.7254C35.3135 21.0689 37.4045 14.5678 38.8497 11.7618C39.0778 11.3167 38.9985 11.5412 38.9599 11.8906C38.6335 15.0535 36.9133 21.6112 36.0713 25.3236C36.0782 25.402 36.1494 25.4254 36.2352 25.3883C37.725 22.0741 40.5365 16.123 42.2073 13.6335C42.426 13.3078 42.39 13.3505 42.3122 13.7034C41.6044 16.8008 39.0297 22.8598 37.7217 26.2173C37.7229 26.3458 37.7853 26.3799 37.8996 26.3303C39.8318 23.551 43.3062 18.2834 45.1008 16.0796C45.3247 15.8129 45.262 15.8876 45.1772 16.1619C44.2094 19.114 40.9702 24.4698 39.2621 27.4372C39.2349 27.578 39.2899 27.6424 39.4363 27.6197C41.7321 25.3819 45.6725 21.0328 47.5049 19.2608C47.7608 19.0208 47.7053 19.0653 47.5903 19.3324C46.3822 22.1374 42.671 26.7336 40.747 29.2651C40.6911 29.4182 40.748 29.5023 40.887 29.5098C43.618 27.8372 47.8418 24.5805 49.4361 23.5907C49.7274 23.4168 49.6614 23.4524 49.5054 23.7032C48.0206 26.0578 43.8352 29.5288 41.7277 31.4336C41.6578 31.5386 41.6753 31.6261 41.7982 31.6747C44.0683 30.7245 48.4421 28.5028 50.2225 27.8329C50.5672 27.7038 50.435 27.7747 50.2683 28.0168C48.9961 29.7496 44.5854 32.3404 42.1066 33.8427C42.0259 33.9387 41.9543 34.0241 42.1003 34.1102C44.1292 33.7943 48.4119 32.6781 49.9033 32.5475C50.178 32.5234 50.1853 32.4932 49.9759 32.6994C48.3726 34.2634 43.789 35.7818 41.7175 36.5168C41.5299 36.6321 41.4903 36.7442 41.6094 36.8624C43.4412 37.3448 47.5904 37.1894 48.3623 37.3098C48.6118 37.3374 48.5726 37.3409 48.399 37.5043C47.3326 38.5369 42.6848 38.9831 40.3439 39.2373C40.1298 39.2759 40.0688 39.3702 40.1576 39.4811L45.6052 41.3973C45.8439 41.5247 45.842 41.5051 45.5814 41.5774C41.3254 42.7704 37.3284 41.1623 34.2133 38.3302C34.2027 38.3211 34.1812 38.3033 34.1599 38.2853C35.6992 38.8131 37.218 39.5603 38.841 39.5765C39.187 39.5759 39.1991 39.1497 38.8425 39.1413C37.2392 39.1233 35.6972 38.3387 34.2007 37.8468C36.1445 37.9139 38.2027 37.9316 40.0527 37.2655C40.3795 37.1578 40.2347 36.7453 39.9079 36.853C37.9811 37.5456 35.7697 37.4722 33.7653 37.3904C36.0924 36.9792 38.3636 36.2663 40.4295 35.0177C40.7299 34.8333 40.4992 34.4579 40.199 34.6425C38.1615 35.8786 35.9083 36.5701 33.59 36.9707C35.9779 36.0104 38.2193 34.6178 40.1529 32.9854C40.4194 32.7544 40.1334 32.4234 39.8669 32.6544C37.9511 34.2655 35.7474 35.635 33.3881 36.5829C35.6814 35.1069 37.6674 33.2819 39.3885 31.1438C39.6124 30.877 39.2621 30.6012 39.0579 30.8663C37.4083 32.9189 35.5063 34.687 33.3077 36.1154C35.2296 34.2367 36.8263 32.0305 38.1309 29.652C38.2924 29.3512 37.9079 29.1376 37.7463 29.4385C36.4938 31.7333 34.9598 33.8648 33.1128 35.6974C34.6916 33.5126 35.9374 31.1392 36.9093 28.5725C37.0299 28.2554 36.6202 28.0936 36.4996 28.4106C35.5333 30.9275 34.3143 33.2687 32.7625 35.4216C33.9515 32.9643 34.8482 30.4436 35.5833 27.769C35.6736 27.4446 35.2477 27.3236 35.168 27.657C34.4258 30.3619 33.5453 32.8416 32.3366 35.3007C33.1018 32.6332 33.6727 30.0025 34.0227 27.2232C34.072 26.8828 33.6317 26.8223 33.593 27.1718C33.2485 29.9013 32.6598 32.5532 31.9108 35.1796C32.1734 32.4178 32.3166 29.6466 32.4205 26.8789C32.4394 26.5312 31.9937 26.5207 31.9835 26.8578C31.8741 29.6754 31.7223 32.3485 31.4542 35.1602C31.1196 32.3518 30.9269 29.699 30.7493 26.8768C30.729 26.5326 30.2956 26.5507 30.3069 26.9056C30.4793 29.6689 30.6822 32.4394 30.9921 35.1908C30.1805 32.5822 29.5545 29.9476 29.1482 27.2245C29.0976 26.873 28.6694 26.95 28.7182 27.2819C29.128 30.0443 29.754 32.6789 30.569 35.3267C29.3074 32.886 28.3705 30.427 27.5716 27.7382C27.4728 27.4007 27.0587 27.5259 27.1573 27.8634C27.9438 30.5236 28.8948 33.0309 30.1351 35.4536C28.5354 33.3293 27.2752 31.0172 26.2562 28.5257C26.1289 28.2005 25.7181 28.3651 25.8454 28.69C26.8784 31.2298 28.1707 33.5689 29.7828 35.7218C27.8858 33.93 26.3182 31.8325 25.0114 29.5541C24.8375 29.2627 24.4605 29.4737 24.6343 29.765C25.9765 32.1096 27.61 34.2804 29.5906 36.1242C27.3534 34.7379 25.4223 33.0085 23.733 30.9909C23.5021 30.7244 23.1711 31.0104 23.3914 31.2679C25.1465 33.3588 27.1719 35.1492 29.5017 36.5769C27.1398 35.6861 24.888 34.3604 22.9421 32.8002C22.6753 32.5764 22.3995 32.9269 22.6645 33.1311C24.6335 34.7287 26.9155 36.0617 29.3095 36.9794C26.985 36.629 24.7131 35.9775 22.6607 34.7826C22.3581 34.6015 22.1446 34.986 22.4365 35.1582C24.5192 36.3603 26.7928 37.0315 29.1476 37.3891C27.1317 37.516 24.9268 37.6298 22.9921 36.9883C22.6661 36.8784 22.5238 37.2862 22.8498 37.3962C24.7133 38.0142 26.7753 37.9624 28.7127 37.8423C27.227 38.3778 25.6956 39.1841 24.1081 39.2339C23.7532 39.2452 23.7713 39.6787 24.1263 39.6674C25.7727 39.6124 27.2575 38.8399 28.8004 38.2796C28.7825 38.3011 28.7645 38.3224 28.7466 38.3437L28.6895 38.3685ZM31.0208 37.7788L30.771 50.4075C30.7682 50.7142 30.7128 50.7587 30.9145 50.6915C31.3449 50.5253 31.7605 50.5285 32.1685 50.6708C32.3627 50.7428 32.3465 50.7837 32.3297 50.4787L31.8251 37.8173C31.8021 37.2162 31.0193 37.1957 31.0119 37.7895L31.0208 37.7788Z" stroke="black" stroke-width="0.457601" mask="url(#path-2-outside-1_430_559)"/>
</mask>
<g mask="url(#mask0_430_559)">
<path d="M7.89355 4.81543H55.9342V56.1465H7.89355V4.81543Z" fill="url(#paint0_linear_430_559)"/>
</g>
<g clip-path="url(#clip0_430_559)">
<rect x="67.9062" y="0.0898438" width="60.8135" height="60.8135" rx="15.2034" fill="#FFD400"/>
<mask id="mask1_430_559" style="mask-type:alpha" maskUnits="userSpaceOnUse" x="82" y="6" width="32" height="56">
<path fill-rule="evenodd" clip-rule="evenodd" d="M107.648 61.1973L107.805 55.671C108.134 55.5646 108.424 55.3713 108.665 55.1006C109.071 54.6366 109.158 54.2016 109.187 53.6795C113.412 52.0168 113.218 45.6269 108.762 44.4669L108.694 44.4379H108.627C107.834 44.3025 107.041 44.1865 106.249 44.0802L106.065 43.8289C108.743 42.1081 111.362 39.6334 111.817 36.5109C112.145 34.2778 111.266 32.2381 109.835 30.556C109.767 30.4594 109.671 30.3144 109.69 30.1983C109.814 29.5585 110.25 28.7017 110.549 28.1125L110.56 28.0909C110.642 27.9285 110.727 27.7655 110.811 27.602C111.104 27.036 111.401 26.462 111.633 25.8772C112.899 23.0447 113.151 20.2993 112 17.3992L111.976 17.3336L111.976 17.3324C111.946 17.2513 111.917 17.1736 111.894 17.0899C111.681 16.4712 111.227 15.9975 110.512 15.9975C109.564 15.9878 109.187 16.6935 109.023 17.4572C108.752 18.7526 107.921 19.7 106.916 20.4637C106.761 20.1253 106.693 19.758 106.751 19.3229C106.84 18.7106 107.108 18.1228 107.368 17.5519L107.438 17.3992C107.94 16.2875 108.288 15.3015 108.25 14.0641C108.172 11.6473 106.887 9.93627 105.456 8.12853C105.379 8.04161 105.311 7.95468 105.243 7.86776C104.818 7.35541 104.151 7.13283 103.503 7.45184C102.855 7.77085 102.643 8.40888 102.759 9.05657C102.764 9.10361 102.772 9.14809 102.78 9.191C102.786 9.22737 102.793 9.26281 102.797 9.29824C103.145 12.063 101.415 15.1951 98.9789 16.4905C97.4225 17.3122 96.0691 18.1242 94.8124 19.3809C93.5074 20.686 92.4343 22.1941 91.5546 23.8084C91.5327 23.7799 91.5101 23.7501 91.4871 23.72C91.4091 23.6173 91.3252 23.5069 91.2356 23.4024C91.2055 23.369 91.1763 23.3352 91.1477 23.3021C91.0939 23.24 91.0409 23.1787 90.9843 23.1221C90.5879 22.7161 89.9983 22.5421 89.4472 22.7354C88.8865 22.9287 88.5675 23.4121 88.4999 23.9825C88.495 24.0308 88.4902 24.0767 88.4854 24.1227L88.4851 24.125C88.4804 24.1701 88.4756 24.2153 88.4709 24.2628L88.4419 24.5238C88.1905 26.3412 87.4655 27.4046 86.2474 28.7773C86.1127 28.9325 85.9795 29.0889 85.8468 29.2448C85.5413 29.6035 85.2368 29.9611 84.9134 30.3047C83.7824 31.4937 83.0187 32.9438 83.1347 34.6162C83.2313 35.9599 83.8597 37.1586 84.6814 38.2026C84.8941 38.5313 85.1261 38.86 85.3581 39.1693C86.6535 40.8997 88.2002 42.3885 89.8146 43.8095L89.5922 44.0995C88.8672 44.1962 88.1422 44.3025 87.4172 44.4379H87.3495L87.2818 44.4572C82.8833 45.5979 82.632 51.8331 86.6921 53.6022C86.7211 54.1436 86.7888 54.6076 87.2142 55.0909C87.4558 55.3713 87.7555 55.555 88.0842 55.671L88.2441 61.1973H90.0789L89.9017 55.062C95.2572 54.5013 100.642 54.5013 105.988 55.062L105.997 55.0813L105.816 61.1973H107.648ZM86.4697 38.3283C87.7168 40.0007 89.1958 41.4314 90.7522 42.7848L90.7619 42.7945C91.513 42.3667 92.7315 42.2755 93.5072 42.2174L93.546 42.2145C95.0154 42.0985 96.5041 42.0791 97.9832 42.0791C99.4815 42.0888 100.98 42.1275 102.469 42.2725L102.575 42.2824C103.3 42.3492 104.352 42.4461 105.079 42.8235C109.613 39.9911 112.59 35.8729 108.762 31.4067C108.453 30.9814 108.221 30.5367 108.337 29.9374C108.496 29.0795 109.051 27.9964 109.575 26.9761C109.877 26.3868 110.168 25.8181 110.367 25.3262C111.71 22.3294 111.643 19.8547 110.463 17.3122C110.173 19.584 108.801 20.947 107.128 22.0201C106.794 22.2789 106.433 22.5378 106.066 22.8011C105.213 23.4129 104.327 24.0492 103.658 24.7655C103.533 23.666 104.649 22.4733 105.431 21.6386C105.556 21.5046 105.673 21.3797 105.775 21.266C105.446 20.6667 105.272 19.9803 105.388 19.1393C105.498 18.3372 105.805 17.6568 106.111 16.9782C106.506 16.1027 106.9 15.23 106.867 14.1028C106.804 12.0442 105.588 10.512 104.376 8.98592L104.374 8.98377C104.283 8.86952 104.193 8.75531 104.102 8.6409C104.798 12.0824 102.739 16.0748 99.6362 17.7182C98.2055 18.4819 96.9681 19.1876 95.7984 20.367C94.2517 21.9234 92.5406 24.3015 91.3032 27.8396L91.3009 27.8176C91.0998 25.9307 91.0379 25.3499 89.9112 23.9825C89.8968 24.0896 89.8831 24.1957 89.8696 24.3011C89.674 25.8214 89.4967 27.2005 87.2818 29.6957C87.0845 29.9162 86.9073 30.1258 86.7336 30.3315C86.4731 30.6397 86.2202 30.9389 85.9187 31.2521C84.9713 32.2381 84.43 33.3111 84.517 34.5099C84.575 35.3896 84.9713 36.3466 85.8027 37.381C86.0154 37.7096 86.2377 38.019 86.4697 38.3283ZM87.7072 45.9363C91.1777 45.3466 94.6192 45.0663 98.0316 45.0759C101.444 45.0759 104.886 45.3466 108.356 45.9363C111.314 46.7 111.507 51.3112 108.356 52.3165C104.973 51.7365 101.531 51.5625 98.0316 51.5722C94.5322 51.5625 91.0907 51.7268 87.7072 52.3165C84.5558 51.3112 84.7491 46.7 87.7072 45.9363ZM104.934 44.5346L104.933 44.5334L104.944 44.5346H104.934ZM104.933 44.5334L104.586 44.0706C103.929 43.1909 92.1541 43.1425 91.3807 43.9642L90.936 44.5636C93.2948 44.2929 95.6632 44.1672 98.0413 44.1672C100.348 44.1672 102.645 44.2829 104.933 44.5334ZM89.225 54.2403C95.0542 53.5829 100.874 53.5926 106.693 54.2403C107.582 54.3361 107.591 53.9375 107.606 53.3345C107.607 53.2682 107.609 53.1994 107.612 53.1286C104.451 52.6259 101.241 52.4809 98.022 52.5002C94.7545 52.4905 91.4967 52.6355 88.2776 53.1576C88.2788 53.1879 88.2798 53.2178 88.2807 53.2472C88.2817 53.281 88.2826 53.3141 88.2835 53.3467C88.2998 53.963 88.3099 54.3467 89.225 54.2499V54.2403Z" fill="black"/>
<path d="M102.569 61.1973L102.594 58.6388C102.594 57.9717 103.174 57.4207 103.89 57.4207C103.996 57.4207 104.093 57.4304 104.19 57.4497C104.045 56.9277 103.532 56.5507 102.933 56.5507C102.217 56.5507 101.647 57.1017 101.637 57.7687L101.596 61.1973H102.569Z" fill="black"/>
<path d="M97.7202 61.1973L97.7029 58.6291C97.7029 57.9621 98.283 57.4111 98.9983 57.4111C99.1047 57.4111 99.2013 57.4207 99.298 57.4401C99.153 56.918 98.6406 56.541 98.0413 56.541C97.3259 56.541 96.7362 57.092 96.7459 57.7591L96.7648 61.1973H97.7202Z" fill="black"/>
<path d="M92.8787 61.1973L92.8114 58.6194C92.8018 57.9524 93.3915 57.4014 94.1068 57.4014C94.2132 57.4014 94.3098 57.4111 94.4065 57.4304C94.2615 56.9084 93.7491 56.5313 93.1594 56.5313C92.4441 56.5313 91.8544 57.0824 91.8641 57.7494L91.9446 61.1973H92.8787Z" fill="black"/>
<path d="M104.933 44.5334L104.934 44.5346H104.944L104.933 44.5334ZM104.933 44.5334L104.586 44.0706C103.929 43.1909 92.1541 43.1425 91.3807 43.9642L90.936 44.5636C93.2948 44.2929 95.6632 44.1672 98.0413 44.1672C100.348 44.1672 102.645 44.2829 104.933 44.5334ZM107.648 61.1973L107.805 55.671C108.134 55.5646 108.424 55.3713 108.665 55.1006C109.071 54.6366 109.158 54.2016 109.187 53.6795C113.412 52.0168 113.218 45.6269 108.762 44.4669L108.694 44.4379H108.627C107.834 44.3025 107.041 44.1865 106.249 44.0802L106.065 43.8289C108.743 42.1081 111.362 39.6334 111.817 36.5109C112.145 34.2778 111.266 32.2381 109.835 30.556C109.767 30.4594 109.671 30.3144 109.69 30.1983C109.814 29.5585 110.25 28.7017 110.549 28.1125L110.56 28.0909C110.642 27.9285 110.727 27.7655 110.811 27.602C111.104 27.036 111.401 26.462 111.633 25.8772C112.899 23.0447 113.151 20.2993 112 17.3992L111.976 17.3336L111.976 17.3324C111.946 17.2513 111.917 17.1736 111.894 17.0899C111.681 16.4712 111.227 15.9975 110.512 15.9975C109.564 15.9878 109.187 16.6935 109.023 17.4572C108.752 18.7526 107.921 19.7 106.916 20.4637C106.761 20.1253 106.693 19.758 106.751 19.3229C106.84 18.7106 107.108 18.1228 107.368 17.5519L107.438 17.3992C107.94 16.2875 108.288 15.3015 108.25 14.0641C108.172 11.6473 106.887 9.93627 105.456 8.12853C105.379 8.04161 105.311 7.95468 105.243 7.86776C104.818 7.35541 104.151 7.13283 103.503 7.45184C102.855 7.77085 102.643 8.40888 102.759 9.05657C102.764 9.10361 102.772 9.14809 102.78 9.191C102.786 9.22737 102.793 9.26281 102.797 9.29824C103.145 12.063 101.415 15.1951 98.9789 16.4905C97.4225 17.3122 96.0691 18.1242 94.8124 19.3809C93.5074 20.686 92.4343 22.1941 91.5546 23.8084C91.5327 23.7799 91.5101 23.7501 91.4871 23.72C91.4091 23.6173 91.3252 23.5069 91.2356 23.4024C91.2055 23.369 91.1763 23.3352 91.1477 23.3021C91.0939 23.24 91.0409 23.1787 90.9843 23.1221C90.5879 22.7161 89.9983 22.5421 89.4472 22.7354C88.8865 22.9287 88.5675 23.4121 88.4999 23.9825C88.495 24.0308 88.4902 24.0767 88.4854 24.1227L88.4851 24.125C88.4804 24.1701 88.4756 24.2153 88.4709 24.2628L88.4419 24.5238C88.1905 26.3412 87.4655 27.4046 86.2474 28.7773C86.1127 28.9325 85.9795 29.0889 85.8468 29.2448C85.5413 29.6035 85.2368 29.9611 84.9134 30.3047C83.7824 31.4937 83.0187 32.9438 83.1347 34.6162C83.2313 35.9599 83.8597 37.1586 84.6814 38.2026C84.8941 38.5313 85.1261 38.86 85.3581 39.1693C86.6535 40.8997 88.2002 42.3885 89.8146 43.8095L89.5922 44.0995C88.8672 44.1962 88.1422 44.3025 87.4172 44.4379H87.3495L87.2818 44.4572C82.8833 45.5979 82.632 51.8331 86.6921 53.6022C86.7211 54.1436 86.7888 54.6076 87.2142 55.0909C87.4558 55.3713 87.7555 55.555 88.0842 55.671L88.2441 61.1973H90.0789L89.9017 55.062C95.2572 54.5013 100.642 54.5013 105.988 55.062L105.997 55.0813L105.816 61.1973H107.648ZM102.594 58.6388L102.569 61.1973H101.596L101.637 57.7687C101.647 57.1017 102.217 56.5507 102.933 56.5507C103.532 56.5507 104.045 56.9277 104.19 57.4497C104.093 57.4304 103.996 57.4207 103.89 57.4207C103.174 57.4207 102.594 57.9717 102.594 58.6388ZM97.7029 58.6291L97.7202 61.1973H96.7648L96.7459 57.7591C96.7362 57.092 97.3259 56.541 98.0413 56.541C98.6406 56.541 99.153 56.918 99.298 57.4401C99.2013 57.4207 99.1047 57.4111 98.9983 57.4111C98.283 57.4111 97.7029 57.9621 97.7029 58.6291ZM92.8114 58.6194L92.8787 61.1973H91.9446L91.8641 57.7494C91.8544 57.0824 92.4441 56.5313 93.1594 56.5313C93.7491 56.5313 94.2615 56.9084 94.4065 57.4304C94.3098 57.4111 94.2132 57.4014 94.1068 57.4014C93.3915 57.4014 92.8018 57.9524 92.8114 58.6194ZM90.7522 42.7848C89.1958 41.4314 87.7168 40.0007 86.4697 38.3283C86.2377 38.019 86.0154 37.7096 85.8027 37.381C84.9713 36.3466 84.575 35.3896 84.517 34.5099C84.43 33.3111 84.9713 32.2381 85.9187 31.2521C86.2202 30.9389 86.4731 30.6397 86.7336 30.3315C86.9073 30.1258 87.0845 29.9162 87.2818 29.6957C89.4967 27.2005 89.674 25.8214 89.8696 24.3011C89.8831 24.1957 89.8968 24.0896 89.9112 23.9825C91.0379 25.3499 91.0998 25.9307 91.3009 27.8176L91.3032 27.8396C92.5406 24.3015 94.2517 21.9234 95.7984 20.367C96.9681 19.1876 98.2055 18.4819 99.6362 17.7182C102.739 16.0748 104.798 12.0824 104.102 8.6409C104.193 8.75531 104.283 8.86952 104.374 8.98377L104.376 8.98592C105.588 10.512 106.804 12.0442 106.867 14.1028C106.9 15.23 106.506 16.1027 106.111 16.9782C105.805 17.6568 105.498 18.3372 105.388 19.1393C105.272 19.9803 105.446 20.6667 105.775 21.266C105.673 21.3797 105.556 21.5046 105.431 21.6386C104.649 22.4733 103.533 23.666 103.658 24.7655C104.327 24.0492 105.213 23.4129 106.066 22.8011C106.433 22.5378 106.794 22.2789 107.128 22.0201C108.801 20.947 110.173 19.584 110.463 17.3122C111.643 19.8547 111.71 22.3294 110.367 25.3262C110.168 25.8181 109.877 26.3868 109.575 26.9761C109.051 27.9964 108.496 29.0795 108.337 29.9374C108.221 30.5367 108.453 30.9814 108.762 31.4067C112.59 35.8729 109.613 39.9911 105.079 42.8235C104.352 42.4461 103.3 42.3492 102.575 42.2824L102.469 42.2725C100.98 42.1275 99.4815 42.0888 97.9832 42.0791C96.5041 42.0791 95.0154 42.0985 93.546 42.2145L93.5072 42.2174C92.7315 42.2755 91.513 42.3667 90.7619 42.7945L90.7522 42.7848ZM98.0316 45.0759C94.6192 45.0663 91.1777 45.3466 87.7072 45.9363C84.7491 46.7 84.5558 51.3112 87.7072 52.3165C91.0907 51.7268 94.5322 51.5625 98.0316 51.5722C101.531 51.5625 104.973 51.7365 108.356 52.3165C111.507 51.3112 111.314 46.7 108.356 45.9363C104.886 45.3466 101.444 45.0759 98.0316 45.0759ZM106.693 54.2403C100.874 53.5926 95.0542 53.5829 89.225 54.2403V54.2499C88.3099 54.3467 88.2998 53.963 88.2835 53.3467C88.2826 53.3141 88.2817 53.281 88.2807 53.2472C88.2798 53.2178 88.2788 53.1879 88.2776 53.1576C91.4967 52.6355 94.7545 52.4905 98.022 52.5002C101.241 52.4809 104.451 52.6259 107.612 53.1286C107.609 53.1994 107.607 53.2682 107.606 53.3345C107.591 53.9375 107.582 54.3361 106.693 54.2403Z" stroke="black" stroke-width="0.7936"/>
</mask>
<g mask="url(#mask1_430_559)">
<rect x="76.0122" y="5.1084" width="42.3254" height="57.6683" fill="url(#paint1_linear_430_559)"/>
</g>
</g>
<g clip-path="url(#clip1_430_559)">
<rect x="0.743652" y="67.252" width="60.8135" height="60.8135" rx="15.2034" fill="#22D3EE"/>
<path d="M17.3628 62.5508L21.9585 67.918L23.9146 66.2422L24.8931 65.4033L25.731 66.3828L30.645 72.126L31.481 73.1025L30.5044 73.9404L28.5474 75.6172L32.3774 80.0908L34.3325 78.4189L35.311 77.583L36.1479 78.5605L41.062 84.3037L41.8989 85.2822L40.9204 86.1191L38.9653 87.79L42.7944 92.2617L44.7495 90.5908L45.728 89.7539L46.5649 90.7324L51.479 96.4746L52.3159 97.4541L51.3374 98.291L49.3823 99.9619L53.2085 104.434L56.144 101.917L56.9819 102.896L61.896 108.64L62.7319 109.617L61.7554 110.454L59.7983 112.131L62.1831 114.917L62.5161 115.305L62.4917 115.815L62.4644 116.391L62.4634 116.39C62.3234 119.872 61.3243 123.424 58.897 126.518C56.4666 129.615 52.6862 132.148 47.1675 133.728L46.3726 133.955L45.8345 133.326L41.269 127.987L39.3169 129.658L38.3394 130.494L37.5024 129.517L32.5884 123.781L31.7515 122.804L32.728 121.966L34.6841 120.288L30.853 115.812L28.8921 117.487L27.9146 118.322L27.0786 117.346L22.1646 111.609L21.3276 110.632L22.3042 109.794L24.2603 108.116L20.4321 103.645L18.4771 105.321L17.4995 106.159L16.6616 105.182L11.7476 99.4453L10.9106 98.4678L11.8872 97.6299L13.8433 95.9521L10.0142 91.4785L8.05908 93.1504L7.08154 93.9873L6.24463 93.0098L1.33057 87.2734L0.493652 86.2959L1.47021 85.459L3.42627 83.7803L0.597168 80.4746L0.308105 80.1377L0.288574 79.6934L-0.348145 65.0762L-0.406738 63.7324H0.854004C6.06062 63.0082 11.1936 62.4678 16.2935 62.1045L16.9409 62.0586L17.3628 62.5508Z" stroke="url(#paint2_linear_430_559)" stroke-width="2.57519"/>
</g>
<g clip-path="url(#clip2_430_559)">
<rect x="67.9058" y="67.252" width="60.8135" height="60.8135" rx="15.2034" fill="#64748B"/>
<g clip-path="url(#clip3_430_559)">
<rect width="60.8137" height="60.8137" transform="translate(67.9058 67.252)" fill="#6D6D6D"/>
<path d="M67.9058 128.046V67.252H128.7L67.9058 128.046Z" fill="url(#paint3_linear_430_559)"/>
<path d="M67.9058 128.046V67.252H107.407L67.9058 128.046Z" fill="url(#paint4_linear_430_559)"/>
<path d="M67.9058 128.046V67.252H87.6323L67.9058 128.046Z" fill="url(#paint5_linear_430_559)"/>
<path d="M67.906 128.064H128.72V67.2508L67.906 128.064Z" fill="url(#paint6_linear_430_559)"/>
<path d="M67.906 128.064H128.72V88.5505L67.906 128.064Z" fill="url(#paint7_linear_430_559)"/>
<path d="M67.906 128.064H128.72V108.331L67.906 128.064Z" fill="url(#paint8_linear_430_559)"/>
<path d="M67.9058 94.6777H97.8306C99.7429 94.6777 101.293 96.2279 101.293 98.1401V128.065H67.9058V94.6777Z" fill="url(#paint9_linear_430_559)"/>
<path d="M67.9058 100.243H92.2661C94.1783 100.243 95.7285 101.793 95.7285 103.706V128.066H67.9058V100.243Z" fill="url(#paint10_linear_430_559)"/>
<path d="M67.9058 105.808H86.7015C88.6138 105.808 90.1639 107.358 90.1639 109.27V128.066H67.9058V105.808Z" fill="url(#paint11_linear_430_559)"/>
<path d="M67.9058 111.372H81.137C83.0492 111.372 84.5994 112.922 84.5994 114.834V128.066H67.9058V111.372Z" fill="url(#paint12_linear_430_559)"/>
<path d="M67.9058 116.936H75.5725C77.4847 116.936 79.0348 118.486 79.0348 120.398V128.065H67.9058V116.936Z" fill="url(#paint13_linear_430_559)"/>
</g>
</g>
<defs>
<linearGradient id="paint0_linear_430_559" x1="1.88848" y1="1.60724" x2="46.3693" y2="73.7649" gradientUnits="userSpaceOnUse">
<stop stop-color="white"/>
<stop offset="1" stop-color="white" stop-opacity="0.7"/>
</linearGradient>
<linearGradient id="paint1_linear_430_559" x1="70.7215" y1="1.50413" x2="125.075" y2="70.6505" gradientUnits="userSpaceOnUse">
<stop stop-color="white"/>
<stop offset="1" stop-color="white" stop-opacity="0.7"/>
</linearGradient>
<linearGradient id="paint2_linear_430_559" x1="-6.59541" y1="59.0699" x2="55.0865" y2="152.317" gradientUnits="userSpaceOnUse">
<stop stop-color="white"/>
<stop offset="1" stop-color="white" stop-opacity="0.7"/>
</linearGradient>
<linearGradient id="paint3_linear_430_559" x1="116.45" y1="67.252" x2="92.1387" y2="100.893" gradientUnits="userSpaceOnUse">
<stop stop-color="#FEED02"/>
<stop offset="1" stop-color="#FEC302"/>
</linearGradient>
<linearGradient id="paint4_linear_430_559" x1="87.6562" y1="67.252" x2="80.9962" y2="102.109" gradientUnits="userSpaceOnUse">
<stop stop-color="#FF8B01"/>
<stop offset="1" stop-color="#FF4D01"/>
</linearGradient>
<linearGradient id="paint5_linear_430_559" x1="77.769" y1="67.252" x2="72.8926" y2="100.285" gradientUnits="userSpaceOnUse">
<stop stop-color="#E40206"/>
<stop offset="1" stop-color="#E4029C"/>
</linearGradient>
<linearGradient id="paint6_linear_430_559" x1="132.454" y1="75.3656" x2="92.139" y2="108.793" gradientUnits="userSpaceOnUse">
<stop stop-color="#008027"/>
<stop offset="1" stop-color="#00DB07"/>
</linearGradient>
<linearGradient id="paint7_linear_430_559" x1="130.834" y1="97.6506" x2="94.3674" y2="114.668" gradientUnits="userSpaceOnUse">
<stop stop-color="#004DFF"/>
<stop offset="1" stop-color="#0086E6"/>
</linearGradient>
<linearGradient id="paint8_linear_430_559" x1="129.821" y1="118.198" x2="94.7726" y2="125.811" gradientUnits="userSpaceOnUse">
<stop stop-color="#750586"/>
<stop offset="1" stop-color="#8402DB"/>
</linearGradient>
<linearGradient id="paint9_linear_430_559" x1="101.293" y1="94.6777" x2="67.9058" y2="128.065" gradientUnits="userSpaceOnUse">
<stop stop-color="#010101"/>
<stop offset="1" stop-color="#676767"/>
</linearGradient>
<linearGradient id="paint10_linear_430_559" x1="95.7285" y1="100.243" x2="67.9058" y2="128.066" gradientUnits="userSpaceOnUse">
<stop stop-color="#623814"/>
<stop offset="1" stop-color="#C87229"/>
</linearGradient>
<linearGradient id="paint11_linear_430_559" x1="90.1639" y1="105.808" x2="67.9058" y2="128.066" gradientUnits="userSpaceOnUse">
<stop stop-color="#76D4EB"/>
<stop offset="1" stop-color="#2BD4FD"/>
</linearGradient>
<linearGradient id="paint12_linear_430_559" x1="84.5994" y1="111.372" x2="69.8223" y2="128.066" gradientUnits="userSpaceOnUse">
<stop stop-color="#FEAFC5"/>
<stop offset="1" stop-color="#FC749A"/>
</linearGradient>
<linearGradient id="paint13_linear_430_559" x1="79.0348" y1="116.936" x2="67.9058" y2="128.065" gradientUnits="userSpaceOnUse">
<stop stop-color="#FBF7F4"/>
<stop offset="1" stop-color="white"/>
</linearGradient>
<clipPath id="clip0_430_559">
<rect x="67.9062" y="0.0898438" width="60.8135" height="60.8135" rx="15.2034" fill="white"/>
</clipPath>
<clipPath id="clip1_430_559">
<rect x="0.743652" y="67.252" width="60.8135" height="60.8135" rx="15.2034" fill="white"/>
</clipPath>
<clipPath id="clip2_430_559">
<rect x="67.9058" y="67.252" width="60.8135" height="60.8135" rx="15.2034" fill="white"/>
</clipPath>
<clipPath id="clip3_430_559">
<rect width="60.8137" height="60.8137" fill="white" transform="translate(67.9058 67.252)"/>
</clipPath>
</defs>
</svg>
