<svg width="162" height="105" viewBox="0 0 162 105" fill="none" xmlns="http://www.w3.org/2000/svg">
<path fill-rule="evenodd" clip-rule="evenodd" d="M63.9664 7.94373C65.4282 7.94391 66.83 8.52472 67.8637 9.55836C68.8972 10.592 69.478 11.9939 69.4781 13.4557V27.9883C69.4781 29.4501 68.8973 30.8519 67.8637 31.8856C66.83 32.9192 65.4281 33.4999 63.9663 33.4999C63.2426 33.5 62.5258 33.3574 61.857 33.0805C61.1884 32.8035 60.5806 32.3975 60.0688 31.8857C59.557 31.3739 59.151 30.7663 58.8741 30.0976C58.597 29.4289 58.4544 28.712 58.4544 27.9882V18.9674H38.6759H16.9649L38.986 48.5539C39.7014 49.508 40.0882 50.6685 40.0882 51.861C40.0882 53.0535 39.7014 54.2139 38.986 55.168L16.5349 85.1029H58.3849V76.082C58.3849 75.3582 58.5275 74.6414 58.8045 73.9727C59.0814 73.304 59.4875 72.6964 59.9992 72.1846C60.511 71.6728 61.1188 71.2668 61.7875 70.9898C62.4563 70.7128 63.173 70.5702 63.8968 70.5703C65.3585 70.5703 66.7605 71.151 67.7941 72.1846C68.8278 73.2183 69.4085 74.6202 69.4085 76.082V90.6147C69.4083 92.0764 68.8275 93.4783 67.7939 94.5118C66.7603 95.5454 65.3586 96.1261 63.8969 96.1263H5.51134C4.48774 96.1261 3.48442 95.8409 2.61391 95.3028C1.74332 94.7646 1.03973 93.9947 0.582022 93.0792C0.12421 92.1638 -0.0695378 91.139 0.0221981 90.1197C0.114054 89.1003 0.487862 88.1265 1.1018 87.3075L27.6869 51.8609L1.53176 16.7627C0.91772 15.9437 0.543935 14.97 0.452077 13.9506C0.360221 12.9312 0.554102 11.9063 1.01182 10.9908C1.46953 10.0753 2.1731 9.30535 3.04371 8.76719C3.91443 8.22903 4.91774 7.94389 5.94122 7.94373H38.6759H63.9664ZM2.71542 95.3139C2.77019 95.3465 2.82551 95.378 2.88126 95.4086C2.79867 95.3632 2.71708 95.3158 2.63668 95.2661L2.71542 95.3139ZM58.4297 75.9474C58.4308 75.9026 58.4324 75.8579 58.4346 75.8131C58.4313 75.8802 58.4293 75.9474 58.4284 76.0147L58.4297 75.9474ZM58.4692 75.4121C58.4637 75.4564 58.4588 75.5009 58.4544 75.5454L58.4614 75.4787C58.4639 75.4565 58.4664 75.4343 58.4692 75.4121ZM61.4945 71.1692C61.5558 71.1392 61.6178 71.1104 61.6803 71.0827L61.6822 71.0819C61.619 71.1098 61.5564 71.1389 61.4945 71.1692ZM65.0342 70.7331C65.056 70.7377 65.0778 70.7424 65.0995 70.7473C65.056 70.7375 65.0124 70.7282 64.9686 70.7195L65.0342 70.7331ZM64.7706 70.6837C64.81 70.6901 64.8492 70.6969 64.8884 70.7041C64.8272 70.6929 64.7659 70.6826 64.7043 70.6734L64.7706 70.6837ZM63.2268 70.6546C63.2046 70.6573 63.1825 70.6603 63.1603 70.6633C63.1382 70.6663 63.1161 70.6694 63.094 70.6727C63.1602 70.6629 63.2268 70.6542 63.2934 70.6468L63.2268 70.6546ZM64.3702 70.634C64.4373 70.6398 64.5043 70.6469 64.5711 70.6552L64.5042 70.6472C64.4596 70.6423 64.4149 70.6379 64.3702 70.634ZM63.6279 70.62C63.5384 70.6244 63.4492 70.631 63.3601 70.6398L63.427 70.6337C63.5161 70.626 63.6055 70.6204 63.695 70.6171L63.6279 70.62ZM61.4472 32.8421C61.4075 32.8215 61.3681 32.8005 61.3289 32.7789C61.3877 32.8113 61.447 32.8425 61.507 32.8727L61.4472 32.8421ZM60.0342 31.7887C59.8843 31.6337 59.744 31.4703 59.6139 31.2993C59.668 31.3704 59.7239 31.4402 59.7815 31.5087C59.8103 31.5429 59.8395 31.5768 59.8692 31.6104C59.9228 31.671 59.9778 31.7304 60.0342 31.7887ZM58.9401 30.1431C58.9489 30.1637 58.9579 30.1843 58.967 30.2047C58.9942 30.2662 59.0226 30.3272 59.052 30.3875C59.0717 30.4277 59.0918 30.4677 59.1124 30.5074L59.0819 30.4476C59.0315 30.3477 58.9842 30.2462 58.9401 30.1431ZM58.8639 29.9561C58.8801 29.9979 58.8967 30.0396 58.9139 30.0811L58.8885 30.0187C58.8802 29.9978 58.872 29.977 58.8639 29.9561ZM58.7138 29.5109C58.7263 29.5538 58.7392 29.5966 58.7527 29.6392C58.7595 29.6605 58.7664 29.6818 58.7734 29.7031C58.7874 29.7456 58.802 29.7879 58.8171 29.8301L58.7949 29.7667C58.7657 29.682 58.7387 29.5967 58.7138 29.5109ZM58.5387 28.6582C58.547 28.7248 58.5564 28.7911 58.5671 28.8573C58.5706 28.8793 58.5743 28.9014 58.5781 28.9234C58.5858 28.9674 58.5939 29.0113 58.6026 29.0552C58.6157 29.1209 58.63 29.1863 58.6455 29.2515C58.5939 29.0342 58.5556 28.8138 58.531 28.5916L58.5387 28.6582ZM5.75396 7.9901C5.72156 7.99121 5.68918 7.99262 5.65684 7.99431C5.71979 7.99102 5.78287 7.98885 5.84603 7.98774L5.75396 7.9901Z" fill="url(#paint0_linear_2755_2833)"/>
<path d="M148.664 0.00505185C146.971 -0.070667 145.274 0.707828 144.368 2.13575L140.162 8.74971C137.675 8.3184 135.157 8.09183 132.633 8.08893C130.06 8.08893 127.546 8.3276 125.1 8.74836L120.894 2.13386C119.986 0.706918 118.285 -0.0502798 116.599 0.0112449C116.036 0.0317565 115.472 0.146176 114.938 0.367752L108.356 3.09702C106.218 3.97985 104.899 6.35753 105.391 8.55799L107.091 16.2065C102.962 19.1265 99.3613 22.7272 96.4413 26.8567L88.7912 25.1563L88.7901 25.156C86.5914 24.6648 84.2165 25.9839 83.3319 28.1174L80.6039 34.702C79.7175 36.8392 80.4662 39.4505 82.3665 40.659L88.9827 44.8655C88.5527 47.353 88.1106 49.4792 88.1074 52.0042C88.1074 54.5768 88.3458 57.0893 88.7665 59.5353L82.1504 63.7418C80.2491 64.9517 79.5017 67.5623 80.3878 69.7003L83.1157 76.2858C84.002 78.418 86.375 79.74 88.5743 79.2466L88.5756 79.2463L96.2254 77.5441C99.1462 81.6733 102.746 85.2744 106.875 88.1956L105.173 95.8463C105.068 96.315 105.068 96.7768 105.114 97.2117C105.297 98.9553 106.439 100.602 108.136 101.304L114.721 104.034C116.858 104.916 119.468 104.17 120.677 102.269L124.884 95.6548C127.332 96.0768 129.845 96.3137 132.416 96.3137C134.987 96.3137 137.497 96.0768 139.946 95.6548L144.152 102.269C145.361 104.171 147.972 104.916 150.107 104.034L156.69 101.307C158.83 100.421 160.147 98.0454 159.655 95.8474L159.655 95.8463L157.955 88.1997C158.173 88.0457 158.392 87.893 158.606 87.7352C161.204 85.8236 161.52 82.0006 159.621 79.4539L159.489 79.277C157.785 76.9924 154.674 76.7912 152.446 78.4816C150.703 79.804 148.825 80.9588 146.833 81.922L143.282 83.3928C139.788 84.6142 136.115 85.2423 132.414 85.2499C128.706 85.2396 125.026 84.6088 121.526 83.3841L118.016 81.9314C117.777 81.816 117.534 81.6876 117.279 81.5564C110.84 78.2475 105.642 72.9332 102.491 66.3994L101.043 62.9049C99.8154 59.4029 99.1847 55.7195 99.1779 52.0086V52.0075C99.1781 48.1772 100.076 44.9076 101.27 41.4768L102.701 38.0223C105.972 31.2345 111.447 25.756 118.232 22.4793L121.744 21.0239C125.243 19.7978 128.923 19.1677 132.63 19.1614C136.44 19.1614 140.087 19.8352 143.501 21.0196L147.049 22.4892C149.172 23.5161 151.162 24.7644 152.998 26.2013C155.414 28.0921 158.787 27.9248 160.655 25.4191C162.485 22.9662 162.161 19.238 159.658 17.3008C159.173 16.9253 158.673 16.5676 158.172 16.2124L159.875 8.5588C160.363 6.36123 159.048 3.98555 156.912 3.10241L150.327 0.373137C149.793 0.15046 149.228 0.0302915 148.664 0.00505185Z" fill="#FE7F01"/>
<path d="M148.664 0.00505185C146.971 -0.070667 145.274 0.707828 144.368 2.13575L140.162 8.74971C137.675 8.3184 135.157 8.09183 132.633 8.08893C130.06 8.08893 127.546 8.3276 125.1 8.74836L120.894 2.13386C119.986 0.706918 118.285 -0.0502798 116.599 0.0112449C116.036 0.0317565 115.472 0.146176 114.938 0.367752L108.356 3.09702C106.218 3.97985 104.899 6.35753 105.391 8.55799L107.091 16.2065C102.962 19.1265 99.3613 22.7272 96.4413 26.8567L88.7912 25.1563L88.7901 25.156C86.5914 24.6648 84.2165 25.9839 83.3319 28.1174L80.6039 34.702C79.7175 36.8392 80.4662 39.4505 82.3665 40.659L88.9827 44.8655C88.5527 47.353 88.1106 49.4792 88.1074 52.0042C88.1074 54.5768 88.3458 57.0893 88.7665 59.5353L82.1504 63.7418C80.2491 64.9517 79.5017 67.5623 80.3878 69.7003L83.1157 76.2858C84.002 78.418 86.375 79.74 88.5743 79.2466L88.5756 79.2463L96.2254 77.5441C99.1462 81.6733 102.746 85.2744 106.875 88.1956L105.173 95.8463C105.068 96.315 105.068 96.7768 105.114 97.2117C105.297 98.9553 106.439 100.602 108.136 101.304L114.721 104.034C116.858 104.916 119.468 104.17 120.677 102.269L124.884 95.6548C127.332 96.0768 129.845 96.3137 132.416 96.3137C134.987 96.3137 137.497 96.0768 139.946 95.6548L144.152 102.269C145.361 104.171 147.972 104.916 150.107 104.034L156.69 101.307C158.83 100.421 160.147 98.0454 159.655 95.8474L159.655 95.8463L157.955 88.1997C158.173 88.0457 158.392 87.893 158.606 87.7352C161.204 85.8236 161.52 82.0006 159.621 79.4539L159.489 79.277C157.785 76.9924 154.674 76.7912 152.446 78.4816C150.703 79.804 148.825 80.9588 146.833 81.922L143.282 83.3928C139.788 84.6142 136.115 85.2423 132.414 85.2499C128.706 85.2396 125.026 84.6088 121.526 83.3841L118.016 81.9314C117.777 81.816 117.534 81.6876 117.279 81.5564C110.84 78.2475 105.642 72.9332 102.491 66.3994L101.043 62.9049C99.8154 59.4029 99.1847 55.7195 99.1779 52.0086V52.0075C99.1781 48.1772 100.076 44.9076 101.27 41.4768L102.701 38.0223C105.972 31.2345 111.447 25.756 118.232 22.4793L121.744 21.0239C125.243 19.7978 128.923 19.1677 132.63 19.1614C136.44 19.1614 140.087 19.8352 143.501 21.0196L147.049 22.4892C149.172 23.5161 151.162 24.7644 152.998 26.2013C155.414 28.0921 158.787 27.9248 160.655 25.4191C162.485 22.9662 162.161 19.238 159.658 17.3008C159.173 16.9253 158.673 16.5676 158.172 16.2124L159.875 8.5588C160.363 6.36123 159.048 3.98555 156.912 3.10241L150.327 0.373137C149.793 0.15046 149.228 0.0302915 148.664 0.00505185Z" fill="url(#paint1_linear_2755_2833)"/>
<defs>
<linearGradient id="paint0_linear_2755_2833" x1="34.5343" y1="7.28274" x2="34.5343" y2="95.899" gradientUnits="userSpaceOnUse">
<stop stop-color="#00B9CC"/>
<stop offset="1" stop-color="#009FE6"/>
</linearGradient>
<linearGradient id="paint1_linear_2755_2833" x1="121.023" y1="0" x2="121.023" y2="104.795" gradientUnits="userSpaceOnUse">
<stop stop-color="#FFBB34"/>
<stop offset="1" stop-color="#FE7F01"/>
</linearGradient>
</defs>
</svg>
