<svg width="853" height="306" viewBox="0 0 853 306" fill="none" xmlns="http://www.w3.org/2000/svg">
<rect y="3.05762" width="142.559" height="142.559" rx="35.6396" fill="#4ADE80"/>
<mask id="mask0_181_232" style="mask-type:alpha" maskUnits="userSpaceOnUse" x="24" y="23" width="96" height="102">
<mask id="path-2-outside-1_181_232" maskUnits="userSpaceOnUse" x="23.8044" y="23.0544" width="96" height="102" fill="black">
<rect fill="white" x="23.8044" y="23.0544" width="96" height="102"/>
<path fill-rule="evenodd" clip-rule="evenodd" d="M37.2658 70.9257C37.0407 70.7369 36.8155 70.5478 36.5904 70.3591C34.7563 68.7345 32.9641 67.0603 31.2809 65.3071C29.8519 63.8096 28.3648 62.1781 27.1917 60.4265C27.0876 60.2966 27.0296 60.1624 26.9255 60.0324C26.389 59.1987 26.3674 58.1574 27.1101 57.374C27.8528 56.5906 28.894 56.5691 29.7494 57.0736C29.8744 57.1784 30.0415 57.2336 30.1415 57.3175C31.8773 58.3478 33.6042 59.541 35.2811 60.6924C37.4042 62.1752 39.5273 63.6584 41.6714 65.1164C40.9678 64.2279 40.2642 63.339 39.6067 62.4462C37.9333 60.2747 36.3019 58.0532 34.7834 55.7987C33.5022 53.8711 32.2089 51.8054 31.2587 49.6866C31.2046 49.5986 31.1506 49.5107 31.1425 49.4187C30.694 48.5308 30.7894 47.5025 31.6532 46.778C32.475 46.1035 33.5992 46.2369 34.3496 46.8666C34.4497 46.9505 34.5498 47.0345 34.6748 47.1395C36.2879 48.6208 37.8379 50.1772 39.367 51.7586C40.9421 53.3361 42.5171 54.9135 44.0712 56.5158C44.0462 56.4949 44.0172 56.428 44.0132 56.382C42.5416 53.8683 41.091 51.3297 39.7745 48.733C38.6822 46.5802 37.5568 44.3145 36.7534 42.0206C36.3848 40.9866 36.0413 39.9736 37.378 39.0918C38.2998 38.5012 39.3861 38.7307 40.0526 39.4605C40.1777 39.5654 40.2358 39.6994 40.3608 39.8043C41.885 41.5948 43.3252 43.4853 44.7194 45.3799C45.9805 47.0775 47.2416 48.7751 48.4817 50.4977C47.4783 48.0358 46.4998 45.595 45.5884 43.1251C44.71 40.7682 43.8446 38.2943 43.2382 35.8672C42.9786 34.7542 42.8489 33.537 44.3018 32.9232C44.9048 32.6618 45.4229 32.7556 45.757 32.8654C46.5213 33.1231 46.7705 33.5881 47.1699 34.1789C48.6012 36.2325 49.9065 38.4361 51.1159 40.6018C52.13 42.3905 53.1231 44.2043 54.0702 46.022C53.4678 43.641 52.9115 41.2559 52.3552 38.8709C51.7827 36.3018 51.2272 33.6617 50.8808 31.0265C50.7342 29.8804 50.8345 28.6431 52.3286 28.2343C53.2115 27.9948 54.1509 28.3993 54.6334 29.1452C54.7705 29.3882 54.7455 29.3672 54.7745 29.4342C54.8326 29.5682 54.8907 29.7021 54.9948 29.8321C56.2373 32.1108 57.2908 34.6146 58.29 37.0305C59.028 38.8434 59.7451 40.6812 60.4413 42.5441C60.1771 40.319 59.9378 38.1148 59.7657 35.8815C59.5531 33.1882 59.3327 30.4029 59.3964 27.6854C59.4378 26.5693 59.6171 25.441 61.1483 25.1912C62.3362 24.9945 62.99 25.8413 63.04 25.8833C63.2189 26.0762 63.277 26.2102 63.3312 26.2981C63.4393 26.4741 63.4184 26.4991 63.4723 26.5871C63.5304 26.7211 63.5634 26.8341 63.6215 26.9681C64.562 29.505 65.2886 32.246 65.9361 34.8781C66.5755 37.4181 67.1019 39.9913 67.6495 42.5393C67.7501 39.9809 67.8758 37.4435 68.0724 34.923C68.2699 32.1475 68.5184 29.1589 69.067 26.4222C69.0971 26.2341 69.148 26.021 69.1777 25.833C69.3942 24.8638 70.0871 24.0383 71.2242 24.0547C72.3364 24.0501 73.0528 24.8218 73.3004 25.7968C73.3415 26.0018 73.4035 26.1819 73.4447 26.3869C74.0501 29.069 74.3538 32.0092 74.6415 34.7655C74.8756 37.1787 75.0679 39.642 75.2103 42.0633C75.6701 39.6357 76.1508 37.183 76.6817 34.7724C77.2676 32.1947 77.8909 29.521 78.786 27.0321C78.8409 26.8651 78.8957 26.698 78.9718 26.5059C79.0058 26.3639 78.9845 26.3889 79.1276 26.1678C79.1906 26.0927 79.2246 25.9507 79.3924 25.7506C79.4342 25.7006 80.102 24.8541 81.2762 25.0295C82.8727 25.2607 83.0272 26.4988 83.082 27.653C83.2234 30.3293 83.0719 33.1008 82.8913 35.8053C82.7333 37.9747 82.5756 40.1441 82.3676 42.2715C83.0177 40.4299 83.6679 38.5883 84.3889 36.7637C85.3339 34.3168 86.3207 31.8198 87.5325 29.5119C87.6543 29.3158 87.7304 29.1237 87.8522 28.9276C87.9574 28.8026 87.9322 28.7816 88.1001 28.5814C88.667 27.906 89.5917 27.6165 90.4313 27.9371C92.0846 28.5573 91.7963 29.7647 91.6669 30.9349C91.4073 33.5305 90.8966 36.1711 90.382 38.7658C89.914 41.1014 89.3961 43.395 88.8782 45.6886C89.7834 43.8478 90.7386 42.0491 91.6937 40.2503C92.868 38.0384 94.1089 35.7974 95.5251 33.7033C95.6299 33.5782 95.7308 33.4071 95.8108 33.2611C95.8947 33.161 95.8947 33.161 96.0417 32.9859C96.6086 32.3105 97.6084 32.084 98.4516 32.4506C99.9713 33.1289 99.729 34.3322 99.4786 35.4435C98.9267 37.8791 98.1237 40.3599 97.2881 42.7278C96.4352 45.1666 95.5362 47.6094 94.5915 50.0563C95.7847 48.3294 96.9779 46.6025 98.1753 44.9216C99.5364 42.9946 100.923 41.0886 102.409 39.2665C102.514 39.1414 102.619 39.0164 102.724 38.8913C103.375 38.1158 104.463 37.8352 105.393 38.4028C106.787 39.2312 106.44 40.3046 106.094 41.3779C105.346 43.6916 104.272 45.9876 103.211 48.1664C101.931 50.7585 100.559 53.3587 99.1582 55.8918C99.1582 55.8918 99.1161 55.9418 99.0952 55.9669C100.602 54.3747 102.087 52.8077 103.593 51.2157C105.1 49.6237 106.631 48.0526 108.167 46.5276C108.271 46.4025 108.401 46.2984 108.531 46.1943C109.261 45.5278 110.357 45.3392 111.225 45.9819C112.117 46.6455 112.256 47.6996 111.826 48.618C111.767 48.739 111.708 48.8601 111.674 49.0021C110.769 51.0979 109.537 53.1759 108.313 55.0908C106.867 57.373 105.321 59.571 103.725 61.7272C103.082 62.5948 102.419 63.4873 101.755 64.3797C103.851 62.8982 105.875 61.4 107.971 59.9188C109.63 58.7537 111.328 57.4925 113.067 56.4365C113.222 56.3535 113.352 56.2494 113.485 56.1912C114.349 55.7217 115.419 55.7671 116.114 56.5638C116.81 57.3606 116.785 58.4059 116.231 59.2193C116.146 59.3192 116.063 59.4195 115.983 59.5654C114.885 61.3301 113.433 63.0102 112.011 64.5022C110.337 66.2943 108.562 68.0028 106.784 69.6649C106.57 69.869 106.356 70.073 106.142 70.2771C107.566 69.5963 109.036 68.9115 110.484 68.2516C112.021 67.5377 113.625 66.7949 115.22 66.2149C116.275 65.8211 117.45 65.7417 118.178 66.9065C118.714 67.7402 118.523 68.7303 117.939 69.4768C117.855 69.577 117.771 69.6769 117.687 69.7772C116.486 71.4119 114.67 72.915 113.086 74.1431C111.065 75.6874 108.924 77.1728 106.77 78.5201C106.661 78.5992 106.506 78.6824 106.397 78.7615C107.807 78.4526 109.217 78.144 110.607 77.8602C112.042 77.5722 113.544 77.2554 115.016 77.1264C116.028 77.038 116.985 77.1166 117.55 78.2723C117.948 79.1184 117.728 80.0415 117.111 80.675C117.027 80.7753 116.922 80.9 116.813 80.9794C114.313 83.4 109.828 85.3917 106.63 86.7145C105.512 87.1831 104.39 87.606 103.268 88.0285C104.919 88.0925 106.566 88.1108 108.239 88.15C109.376 88.1663 110.764 88.1376 111.867 88.2959C112.828 88.4204 113.676 88.8331 113.978 89.896C114.209 90.6869 113.951 91.4514 113.398 92.0098C113.313 92.1097 113.229 92.2099 113.121 92.289C111.069 94.2763 105.488 95.3905 100.289 96.1004L105.956 98.0845L106.081 98.1896C106.081 98.1896 106.344 98.2824 106.444 98.3663C107.178 98.812 107.64 99.583 107.532 100.473C107.382 101.668 106.561 102.088 105.59 102.382C94.9768 105.326 84.9051 101.479 77.0233 94.3113C76.4979 93.8704 75.8056 93.3747 75.0291 92.9789L76.1583 121.251C76.1968 122.221 76.1312 123.061 75.1845 123.631C74.3926 124.117 73.7993 123.96 73.06 123.724C72.534 123.538 72.0699 123.532 71.555 123.74C70.7471 124.042 69.965 124.111 69.2185 123.527C68.347 122.838 68.3996 122.115 68.411 121.187L68.9413 93.0714C68.1664 93.4867 67.4666 93.9651 66.9298 94.4526C59.1665 101.622 49.1697 105.254 38.645 103.116C37.6297 102.903 36.6864 102.453 36.5317 101.215C36.4302 100.32 36.9179 99.5353 37.6677 99.0987C37.7767 99.0197 37.8897 98.9867 37.9987 98.9074L38.1327 98.8496L43.4454 96.7855C38.3633 96.1869 32.877 95.2066 30.7806 93.2346C30.6805 93.1504 30.5805 93.0665 30.4804 92.9825C29.922 92.4287 29.6486 91.6878 29.8352 90.9067C30.1107 89.8164 30.9566 89.418 31.8937 89.2664C33.0148 89.0986 34.3819 89.095 35.5151 89.0653C37.1793 89.0124 38.8185 88.9386 40.4787 88.8397C39.3554 88.4514 38.253 88.0377 37.1256 87.6033C33.8854 86.3337 29.3637 84.4581 26.8171 82.1079C26.7171 82.024 26.617 81.9401 26.4919 81.8349C25.8585 81.2184 25.573 80.3393 25.9356 79.4498C26.4331 78.2475 27.4201 78.1381 28.4443 78.1874C29.9116 78.2677 31.4199 78.5528 32.8573 78.8212C34.2696 79.0684 35.686 79.362 37.1234 79.6301C36.9983 79.5253 36.8063 79.4492 36.6812 79.3443C34.4781 78.0071 32.313 76.5743 30.2569 75.062C28.622 73.8607 26.8 72.3745 25.5469 70.7689C25.4428 70.6389 25.3388 70.509 25.2557 70.3539C24.7022 69.5911 24.6136 68.5791 25.2393 67.7827C25.865 66.9862 26.8231 66.8095 27.7084 67.1263C27.8504 67.1603 27.9964 67.2399 28.1385 67.2739C29.742 67.8522 31.3327 68.5474 32.8732 69.2008C34.3178 69.8161 35.7413 70.4564 37.1649 71.0968L37.2658 70.9257ZM65.5096 92.7922C58.3462 99.3988 49.0145 102.95 39.0329 100.926C38.3477 100.778 38.4438 100.816 39.0177 100.487L51.527 95.638C51.6239 95.4209 51.5198 95.2909 51.2148 95.2481C45.9817 94.7789 34.8086 93.9716 32.1829 91.5124C31.7577 91.1555 31.6616 91.1176 32.2557 91.0194C34.0838 90.7202 43.8083 90.8662 48.0813 89.6348C48.3502 89.2635 48.234 88.9957 47.8039 88.8478C42.9092 87.2131 32.0959 83.8944 28.2614 80.3357C27.7611 79.9161 27.7361 79.8952 28.3923 79.9769C31.9119 80.2019 41.9967 82.6111 46.7817 83.2587C47.0748 83.1633 47.0546 82.9334 46.7754 82.6565C40.8667 79.233 30.384 73.3356 27.2954 69.2946C26.775 68.6447 26.8541 68.7538 27.5473 68.9945C31.7107 70.4845 42.0629 75.4199 47.3698 77.5284C47.5748 77.4873 47.7508 77.3792 47.5056 76.9602C42.4905 72.624 32.4788 64.6922 28.8724 59.2363C28.4439 58.5786 28.398 58.5825 29.0823 58.9862C32.0616 60.7188 39.1184 65.873 45.1464 69.8654C46.6232 70.8486 48.0459 71.744 49.3185 72.5137C49.7615 72.5444 50.1045 72.4911 49.7012 71.8544C44.9843 65.8929 36.0604 55.2929 33.1055 48.8065C32.9022 48.3376 32.7481 48.1656 33.2524 48.6314C37.6662 52.7187 47.169 62.7813 52.6956 67.9299C53.0507 68.0148 53.3557 68.0576 53.0984 67.5008C48.9491 60.6091 41.0724 48.2022 38.6374 41.2995C38.4511 40.7595 38.2679 40.5206 38.7593 41.1034C43.0986 46.1939 51.5113 58.3683 56.2266 64.8398C56.6187 65.0834 56.7487 64.9796 56.6413 64.5485C53.3857 56.7441 47.0284 42.6283 45.2342 35.3681C45.127 34.9371 45.0899 34.7781 45.1149 34.7991C45.1399 34.82 45.273 35.017 45.4852 35.323C49.5379 41.1107 56.4483 54.9233 60.0847 62.5785C60.36 62.8094 60.4691 62.7303 60.441 62.408C58.2881 53.696 53.8831 38.32 52.943 30.7533C52.8415 29.8583 52.8656 30.1343 53.223 30.7752C56.705 37.1923 61.8765 52.0609 64.4105 60.6238C64.5427 61.0757 64.8317 60.9347 64.7915 60.4746C63.7316 51.2727 61.2475 35.3346 61.4827 27.6883C61.4892 26.9692 61.4683 26.9943 61.7125 27.6682C64.4268 34.8479 67.161 50.9959 68.8358 60.0745C68.9981 60.3384 69.1571 60.3012 69.342 60.0301C69.3387 49.9246 69.7338 33.2479 71.0475 26.8052C71.2392 25.8149 71.1932 25.819 71.4198 26.819C72.9023 33.4342 73.7363 50.1193 73.9077 60.0246C73.9698 60.2048 74.1076 60.1927 74.2336 60.0425C75.6933 51.2924 78.1022 35.1117 80.6986 27.6992C80.9941 26.8389 80.9902 26.7929 81.0036 27.742C81.3497 35.407 79.2001 51.6347 78.3497 60.7253C78.4578 60.9013 78.5999 60.9353 78.7047 60.8102C81.0375 52.2388 85.9393 36.9989 89.3272 30.4211C89.8618 29.3776 89.676 29.9038 89.5855 30.723C88.8204 38.1375 84.7879 53.51 82.814 62.2124C82.8303 62.3963 82.9971 62.4511 83.1983 62.3643C86.6907 54.5951 93.2814 40.6445 97.198 34.8086C97.7107 34.0452 97.6264 34.1452 97.4439 34.9725C95.7847 42.2335 89.7491 56.4368 86.6829 64.3076C86.6858 64.6086 86.8321 64.6886 87.0999 64.5724C91.6294 58.0571 99.7741 45.7089 103.981 40.5429C104.506 39.9175 104.359 40.0926 104.16 40.7358C101.891 47.6561 94.2979 60.211 90.2938 67.1671C90.2301 67.4973 90.3591 67.6481 90.7023 67.5949C96.0841 62.3493 105.321 52.1539 109.617 48C110.216 47.4376 110.086 47.5417 109.817 48.168C106.985 54.7433 98.2851 65.5177 93.7748 71.452C93.6439 71.8109 93.7771 72.0082 94.103 72.0258C100.505 68.105 110.406 60.4706 114.144 58.1502C114.827 57.7427 114.672 57.8259 114.306 58.414C110.825 63.9337 101.014 72.0702 96.0737 76.5354C95.9098 76.7816 95.9509 76.9867 96.2389 77.1006C101.561 74.8733 111.814 69.6652 115.987 68.0948C116.795 67.7921 116.485 67.9583 116.095 68.5259C113.112 72.5878 102.773 78.6612 96.9619 82.183C96.7728 82.408 96.605 82.6082 96.9472 82.81C101.703 82.0694 111.743 79.4528 115.239 79.1468C115.883 79.0903 115.9 79.0194 115.409 79.5027C111.651 83.1692 100.906 86.7285 96.0498 88.4514C95.61 88.7218 95.5172 88.9846 95.7964 89.2615C100.091 90.3924 109.817 90.0283 111.626 90.3104C112.211 90.3751 112.119 90.3832 111.713 90.7663C109.213 93.187 98.3174 94.2329 92.8298 94.8288C92.3279 94.9193 92.1848 95.1404 92.3932 95.4003L105.163 99.8923C105.723 100.191 105.719 100.145 105.108 100.314C95.1306 103.111 85.761 99.3414 78.4585 92.7024C78.4337 92.6811 78.3834 92.6393 78.3334 92.5972C81.9417 93.8345 85.5021 95.5861 89.3067 95.624C90.1178 95.6227 90.1462 94.6234 89.3103 94.6038C85.5517 94.5617 81.9372 92.7223 78.4291 91.5692C82.9857 91.7266 87.8104 91.7681 92.1473 90.2066C92.9134 89.9542 92.5738 88.9873 91.8077 89.2397C87.2909 90.8633 82.107 90.6912 77.4083 90.4995C82.8636 89.5355 88.1876 87.8643 93.0306 84.9374C93.7346 84.5051 93.1939 83.625 92.4902 84.0577C87.7138 86.9555 82.4319 88.5764 76.9975 89.5156C82.5952 87.2644 87.8493 83.9999 92.3821 80.1731C93.0068 79.6317 92.3364 78.8558 91.7117 79.3972C87.2207 83.1741 82.0547 86.3843 76.524 88.6065C81.8999 85.1464 86.5555 80.8683 90.5903 75.8562C91.1151 75.2308 90.2938 74.5843 89.8151 75.2057C85.9481 80.0174 81.4895 84.1622 76.3356 87.5106C80.841 83.1065 84.5838 77.9346 87.6423 72.3592C88.0207 71.6539 87.1195 71.1533 86.7407 71.8586C83.8044 77.2381 80.2084 82.2346 75.8788 86.5306C79.5798 81.4091 82.5001 75.8454 84.7785 69.8285C85.0612 69.0852 84.1009 68.7058 83.8181 69.449C81.5528 75.349 78.6952 80.8373 75.0575 85.8841C77.8449 80.1238 79.9469 74.2146 81.6701 67.9449C81.8817 67.1844 80.8834 66.901 80.6966 67.6824C78.9568 74.0233 76.8927 79.8361 74.0593 85.6006C75.853 79.3476 77.1912 73.1808 78.0118 66.6655C78.1274 65.8675 77.0951 65.7257 77.0044 66.545C76.1968 72.9434 74.8168 79.1602 73.061 85.3169C73.6765 78.8428 74.0122 72.3465 74.2558 65.8583C74.3002 65.0433 73.2553 65.0188 73.2315 65.809C72.9751 72.4141 72.6192 78.6801 71.9906 85.2715C71.2062 78.688 70.7546 72.4692 70.3383 65.8534C70.2906 65.0465 69.2747 65.089 69.3011 65.921C69.7054 72.3987 70.1809 78.8934 70.9074 85.343C69.005 79.2281 67.5375 73.0521 66.5849 66.6685C66.4664 65.8446 65.4626 66.0252 65.5769 66.803C66.5376 73.2788 68.0051 79.4547 69.9157 85.6617C66.9582 79.9403 64.7618 74.1758 62.8891 67.8728C62.6576 67.0816 61.6867 67.3751 61.9179 68.1663C63.7616 74.4024 65.9909 80.2799 68.8985 85.9592C65.1485 80.9794 62.1942 75.5593 59.8055 69.7187C59.5071 68.9566 58.5441 69.3422 58.8425 70.1041C61.2642 76.0577 64.2936 81.541 68.0727 86.5878C63.6258 82.3874 59.9508 77.4706 56.8875 72.1296C56.48 71.4465 55.596 71.9412 56.0035 72.624C59.1498 78.1201 62.9792 83.209 67.622 87.5312C62.3777 84.2814 57.8508 80.2273 53.8908 75.4976C53.3493 74.8729 52.5736 75.5434 53.09 76.1471C57.2042 81.0486 61.9522 85.2457 67.4137 88.5925C61.8768 86.5042 56.5982 83.3964 52.0367 79.7391C51.4113 79.2144 50.7647 80.036 51.386 80.5147C56.0016 84.2598 61.3511 87.3846 66.9631 89.5358C61.514 88.7146 56.1884 87.1873 51.377 84.3862C50.6677 83.9617 50.1671 84.863 50.8514 85.2666C55.7338 88.0847 61.0634 89.658 66.5836 90.4962C61.8579 90.7937 56.6893 91.0605 52.1539 89.5567C51.3896 89.2991 51.0561 90.2552 51.8204 90.5129C56.1887 91.9618 61.0226 91.8403 65.5642 91.5588C62.0812 92.814 58.4915 94.7041 54.7701 94.821C53.938 94.8474 53.9805 95.8636 54.8126 95.8372C58.6721 95.7082 62.1527 93.8972 65.7696 92.5838C65.7278 92.6341 65.6856 92.6841 65.6435 92.734L65.5096 92.7922ZM70.9747 91.4099L70.3892 121.014C70.3827 121.733 70.2527 121.837 70.7255 121.68C71.7346 121.29 72.7087 121.298 73.6651 121.631C74.1203 121.8 74.0824 121.896 74.0429 121.181L72.8602 91.5C72.8063 90.091 70.9711 90.043 70.9538 91.435L70.9747 91.4099Z"/>
</mask>
<path fill-rule="evenodd" clip-rule="evenodd" d="M37.2658 70.9257C37.0407 70.7369 36.8155 70.5478 36.5904 70.3591C34.7563 68.7345 32.9641 67.0603 31.2809 65.3071C29.8519 63.8096 28.3648 62.1781 27.1917 60.4265C27.0876 60.2966 27.0296 60.1624 26.9255 60.0324C26.389 59.1987 26.3674 58.1574 27.1101 57.374C27.8528 56.5906 28.894 56.5691 29.7494 57.0736C29.8744 57.1784 30.0415 57.2336 30.1415 57.3175C31.8773 58.3478 33.6042 59.541 35.2811 60.6924C37.4042 62.1752 39.5273 63.6584 41.6714 65.1164C40.9678 64.2279 40.2642 63.339 39.6067 62.4462C37.9333 60.2747 36.3019 58.0532 34.7834 55.7987C33.5022 53.8711 32.2089 51.8054 31.2587 49.6866C31.2046 49.5986 31.1506 49.5107 31.1425 49.4187C30.694 48.5308 30.7894 47.5025 31.6532 46.778C32.475 46.1035 33.5992 46.2369 34.3496 46.8666C34.4497 46.9505 34.5498 47.0345 34.6748 47.1395C36.2879 48.6208 37.8379 50.1772 39.367 51.7586C40.9421 53.3361 42.5171 54.9135 44.0712 56.5158C44.0462 56.4949 44.0172 56.428 44.0132 56.382C42.5416 53.8683 41.091 51.3297 39.7745 48.733C38.6822 46.5802 37.5568 44.3145 36.7534 42.0206C36.3848 40.9866 36.0413 39.9736 37.378 39.0918C38.2998 38.5012 39.3861 38.7307 40.0526 39.4605C40.1777 39.5654 40.2358 39.6994 40.3608 39.8043C41.885 41.5948 43.3252 43.4853 44.7194 45.3799C45.9805 47.0775 47.2416 48.7751 48.4817 50.4977C47.4783 48.0358 46.4998 45.595 45.5884 43.1251C44.71 40.7682 43.8446 38.2943 43.2382 35.8672C42.9786 34.7542 42.8489 33.537 44.3018 32.9232C44.9048 32.6618 45.4229 32.7556 45.757 32.8654C46.5213 33.1231 46.7705 33.5881 47.1699 34.1789C48.6012 36.2325 49.9065 38.4361 51.1159 40.6018C52.13 42.3905 53.1231 44.2043 54.0702 46.022C53.4678 43.641 52.9115 41.2559 52.3552 38.8709C51.7827 36.3018 51.2272 33.6617 50.8808 31.0265C50.7342 29.8804 50.8345 28.6431 52.3286 28.2343C53.2115 27.9948 54.1509 28.3993 54.6334 29.1452C54.7705 29.3882 54.7455 29.3672 54.7745 29.4342C54.8326 29.5682 54.8907 29.7021 54.9948 29.8321C56.2373 32.1108 57.2908 34.6146 58.29 37.0305C59.028 38.8434 59.7451 40.6812 60.4413 42.5441C60.1771 40.319 59.9378 38.1148 59.7657 35.8815C59.5531 33.1882 59.3327 30.4029 59.3964 27.6854C59.4378 26.5693 59.6171 25.441 61.1483 25.1912C62.3362 24.9945 62.99 25.8413 63.04 25.8833C63.2189 26.0762 63.277 26.2102 63.3312 26.2981C63.4393 26.4741 63.4184 26.4991 63.4723 26.5871C63.5304 26.7211 63.5634 26.8341 63.6215 26.9681C64.562 29.505 65.2886 32.246 65.9361 34.8781C66.5755 37.4181 67.1019 39.9913 67.6495 42.5393C67.7501 39.9809 67.8758 37.4435 68.0724 34.923C68.2699 32.1475 68.5184 29.1589 69.067 26.4222C69.0971 26.2341 69.148 26.021 69.1777 25.833C69.3942 24.8638 70.0871 24.0383 71.2242 24.0547C72.3364 24.0501 73.0528 24.8218 73.3004 25.7968C73.3415 26.0018 73.4035 26.1819 73.4447 26.3869C74.0501 29.069 74.3538 32.0092 74.6415 34.7655C74.8756 37.1787 75.0679 39.642 75.2103 42.0633C75.6701 39.6357 76.1508 37.183 76.6817 34.7724C77.2676 32.1947 77.8909 29.521 78.786 27.0321C78.8409 26.8651 78.8957 26.698 78.9718 26.5059C79.0058 26.3639 78.9845 26.3889 79.1276 26.1678C79.1906 26.0927 79.2246 25.9507 79.3924 25.7506C79.4342 25.7006 80.102 24.8541 81.2762 25.0295C82.8727 25.2607 83.0272 26.4988 83.082 27.653C83.2234 30.3293 83.0719 33.1008 82.8913 35.8053C82.7333 37.9747 82.5756 40.1441 82.3676 42.2715C83.0177 40.4299 83.6679 38.5883 84.3889 36.7637C85.3339 34.3168 86.3207 31.8198 87.5325 29.5119C87.6543 29.3158 87.7304 29.1237 87.8522 28.9276C87.9574 28.8026 87.9322 28.7816 88.1001 28.5814C88.667 27.906 89.5917 27.6165 90.4313 27.9371C92.0846 28.5573 91.7963 29.7647 91.6669 30.9349C91.4073 33.5305 90.8966 36.1711 90.382 38.7658C89.914 41.1014 89.3961 43.395 88.8782 45.6886C89.7834 43.8478 90.7386 42.0491 91.6937 40.2503C92.868 38.0384 94.1089 35.7974 95.5251 33.7033C95.6299 33.5782 95.7308 33.4071 95.8108 33.2611C95.8947 33.161 95.8947 33.161 96.0417 32.9859C96.6086 32.3105 97.6084 32.084 98.4516 32.4506C99.9713 33.1289 99.729 34.3322 99.4786 35.4435C98.9267 37.8791 98.1237 40.3599 97.2881 42.7278C96.4352 45.1666 95.5362 47.6094 94.5915 50.0563C95.7847 48.3294 96.9779 46.6025 98.1753 44.9216C99.5364 42.9946 100.923 41.0886 102.409 39.2665C102.514 39.1414 102.619 39.0164 102.724 38.8913C103.375 38.1158 104.463 37.8352 105.393 38.4028C106.787 39.2312 106.44 40.3046 106.094 41.3779C105.346 43.6916 104.272 45.9876 103.211 48.1664C101.931 50.7585 100.559 53.3587 99.1582 55.8918C99.1582 55.8918 99.1161 55.9418 99.0952 55.9669C100.602 54.3747 102.087 52.8077 103.593 51.2157C105.1 49.6237 106.631 48.0526 108.167 46.5276C108.271 46.4025 108.401 46.2984 108.531 46.1943C109.261 45.5278 110.357 45.3392 111.225 45.9819C112.117 46.6455 112.256 47.6996 111.826 48.618C111.767 48.739 111.708 48.8601 111.674 49.0021C110.769 51.0979 109.537 53.1759 108.313 55.0908C106.867 57.373 105.321 59.571 103.725 61.7272C103.082 62.5948 102.419 63.4873 101.755 64.3797C103.851 62.8982 105.875 61.4 107.971 59.9188C109.63 58.7537 111.328 57.4925 113.067 56.4365C113.222 56.3535 113.352 56.2494 113.485 56.1912C114.349 55.7217 115.419 55.7671 116.114 56.5638C116.81 57.3606 116.785 58.4059 116.231 59.2193C116.146 59.3192 116.063 59.4195 115.983 59.5654C114.885 61.3301 113.433 63.0102 112.011 64.5022C110.337 66.2943 108.562 68.0028 106.784 69.6649C106.57 69.869 106.356 70.073 106.142 70.2771C107.566 69.5963 109.036 68.9115 110.484 68.2516C112.021 67.5377 113.625 66.7949 115.22 66.2149C116.275 65.8211 117.45 65.7417 118.178 66.9065C118.714 67.7402 118.523 68.7303 117.939 69.4768C117.855 69.577 117.771 69.6769 117.687 69.7772C116.486 71.4119 114.67 72.915 113.086 74.1431C111.065 75.6874 108.924 77.1728 106.77 78.5201C106.661 78.5992 106.506 78.6824 106.397 78.7615C107.807 78.4526 109.217 78.144 110.607 77.8602C112.042 77.5722 113.544 77.2554 115.016 77.1264C116.028 77.038 116.985 77.1166 117.55 78.2723C117.948 79.1184 117.728 80.0415 117.111 80.675C117.027 80.7753 116.922 80.9 116.813 80.9794C114.313 83.4 109.828 85.3917 106.63 86.7145C105.512 87.1831 104.39 87.606 103.268 88.0285C104.919 88.0925 106.566 88.1108 108.239 88.15C109.376 88.1663 110.764 88.1376 111.867 88.2959C112.828 88.4204 113.676 88.8331 113.978 89.896C114.209 90.6869 113.951 91.4514 113.398 92.0098C113.313 92.1097 113.229 92.2099 113.121 92.289C111.069 94.2763 105.488 95.3905 100.289 96.1004L105.956 98.0845L106.081 98.1896C106.081 98.1896 106.344 98.2824 106.444 98.3663C107.178 98.812 107.64 99.583 107.532 100.473C107.382 101.668 106.561 102.088 105.59 102.382C94.9768 105.326 84.9051 101.479 77.0233 94.3113C76.4979 93.8704 75.8056 93.3747 75.0291 92.9789L76.1583 121.251C76.1968 122.221 76.1312 123.061 75.1845 123.631C74.3926 124.117 73.7993 123.96 73.06 123.724C72.534 123.538 72.0699 123.532 71.555 123.74C70.7471 124.042 69.965 124.111 69.2185 123.527C68.347 122.838 68.3996 122.115 68.411 121.187L68.9413 93.0714C68.1664 93.4867 67.4666 93.9651 66.9298 94.4526C59.1665 101.622 49.1697 105.254 38.645 103.116C37.6297 102.903 36.6864 102.453 36.5317 101.215C36.4302 100.32 36.9179 99.5353 37.6677 99.0987C37.7767 99.0197 37.8897 98.9867 37.9987 98.9074L38.1327 98.8496L43.4454 96.7855C38.3633 96.1869 32.877 95.2066 30.7806 93.2346C30.6805 93.1504 30.5805 93.0665 30.4804 92.9825C29.922 92.4287 29.6486 91.6878 29.8352 90.9067C30.1107 89.8164 30.9566 89.418 31.8937 89.2664C33.0148 89.0986 34.3819 89.095 35.5151 89.0653C37.1793 89.0124 38.8185 88.9386 40.4787 88.8397C39.3554 88.4514 38.253 88.0377 37.1256 87.6033C33.8854 86.3337 29.3637 84.4581 26.8171 82.1079C26.7171 82.024 26.617 81.9401 26.4919 81.8349C25.8585 81.2184 25.573 80.3393 25.9356 79.4498C26.4331 78.2475 27.4201 78.1381 28.4443 78.1874C29.9116 78.2677 31.4199 78.5528 32.8573 78.8212C34.2696 79.0684 35.686 79.362 37.1234 79.6301C36.9983 79.5253 36.8063 79.4492 36.6812 79.3443C34.4781 78.0071 32.313 76.5743 30.2569 75.062C28.622 73.8607 26.8 72.3745 25.5469 70.7689C25.4428 70.6389 25.3388 70.509 25.2557 70.3539C24.7022 69.5911 24.6136 68.5791 25.2393 67.7827C25.865 66.9862 26.8231 66.8095 27.7084 67.1263C27.8504 67.1603 27.9964 67.2399 28.1385 67.2739C29.742 67.8522 31.3327 68.5474 32.8732 69.2008C34.3178 69.8161 35.7413 70.4564 37.1649 71.0968L37.2658 70.9257ZM65.5096 92.7922C58.3462 99.3988 49.0145 102.95 39.0329 100.926C38.3477 100.778 38.4438 100.816 39.0177 100.487L51.527 95.638C51.6239 95.4209 51.5198 95.2909 51.2148 95.2481C45.9817 94.7789 34.8086 93.9716 32.1829 91.5124C31.7577 91.1555 31.6616 91.1176 32.2557 91.0194C34.0838 90.7202 43.8083 90.8662 48.0813 89.6348C48.3502 89.2635 48.234 88.9957 47.8039 88.8478C42.9092 87.2131 32.0959 83.8944 28.2614 80.3357C27.7611 79.9161 27.7361 79.8952 28.3923 79.9769C31.9119 80.2019 41.9967 82.6111 46.7817 83.2587C47.0748 83.1633 47.0546 82.9334 46.7754 82.6565C40.8667 79.233 30.384 73.3356 27.2954 69.2946C26.775 68.6447 26.8541 68.7538 27.5473 68.9945C31.7107 70.4845 42.0629 75.4199 47.3698 77.5284C47.5748 77.4873 47.7508 77.3792 47.5056 76.9602C42.4905 72.624 32.4788 64.6922 28.8724 59.2363C28.4439 58.5786 28.398 58.5825 29.0823 58.9862C32.0616 60.7188 39.1184 65.873 45.1464 69.8654C46.6232 70.8486 48.0459 71.744 49.3185 72.5137C49.7615 72.5444 50.1045 72.4911 49.7012 71.8544C44.9843 65.8929 36.0604 55.2929 33.1055 48.8065C32.9022 48.3376 32.7481 48.1656 33.2524 48.6314C37.6662 52.7187 47.169 62.7813 52.6956 67.9299C53.0507 68.0148 53.3557 68.0576 53.0984 67.5008C48.9491 60.6091 41.0724 48.2022 38.6374 41.2995C38.4511 40.7595 38.2679 40.5206 38.7593 41.1034C43.0986 46.1939 51.5113 58.3683 56.2266 64.8398C56.6187 65.0834 56.7487 64.9796 56.6413 64.5485C53.3857 56.7441 47.0284 42.6283 45.2342 35.3681C45.127 34.9371 45.0899 34.7781 45.1149 34.7991C45.1399 34.82 45.273 35.017 45.4852 35.323C49.5379 41.1107 56.4483 54.9233 60.0847 62.5785C60.36 62.8094 60.4691 62.7303 60.441 62.408C58.2881 53.696 53.8831 38.32 52.943 30.7533C52.8415 29.8583 52.8656 30.1343 53.223 30.7752C56.705 37.1923 61.8765 52.0609 64.4105 60.6238C64.5427 61.0757 64.8317 60.9347 64.7915 60.4746C63.7316 51.2727 61.2475 35.3346 61.4827 27.6883C61.4892 26.9692 61.4683 26.9943 61.7125 27.6682C64.4268 34.8479 67.161 50.9959 68.8358 60.0745C68.9981 60.3384 69.1571 60.3012 69.342 60.0301C69.3387 49.9246 69.7338 33.2479 71.0475 26.8052C71.2392 25.8149 71.1932 25.819 71.4198 26.819C72.9023 33.4342 73.7363 50.1193 73.9077 60.0246C73.9698 60.2048 74.1076 60.1927 74.2336 60.0425C75.6933 51.2924 78.1022 35.1117 80.6986 27.6992C80.9941 26.8389 80.9902 26.7929 81.0036 27.742C81.3497 35.407 79.2001 51.6347 78.3497 60.7253C78.4578 60.9013 78.5999 60.9353 78.7047 60.8102C81.0375 52.2388 85.9393 36.9989 89.3272 30.4211C89.8618 29.3776 89.676 29.9038 89.5855 30.723C88.8204 38.1375 84.7879 53.51 82.814 62.2124C82.8303 62.3963 82.9971 62.4511 83.1983 62.3643C86.6907 54.5951 93.2814 40.6445 97.198 34.8086C97.7107 34.0452 97.6264 34.1452 97.4439 34.9725C95.7847 42.2335 89.7491 56.4368 86.6829 64.3076C86.6858 64.6086 86.8321 64.6886 87.0999 64.5724C91.6294 58.0571 99.7741 45.7089 103.981 40.5429C104.506 39.9175 104.359 40.0926 104.16 40.7358C101.891 47.6561 94.2979 60.211 90.2938 67.1671C90.2301 67.4973 90.3591 67.6481 90.7023 67.5949C96.0841 62.3493 105.321 52.1539 109.617 48C110.216 47.4376 110.086 47.5417 109.817 48.168C106.985 54.7433 98.2851 65.5177 93.7748 71.452C93.6439 71.8109 93.7771 72.0082 94.103 72.0258C100.505 68.105 110.406 60.4706 114.144 58.1502C114.827 57.7427 114.672 57.8259 114.306 58.414C110.825 63.9337 101.014 72.0702 96.0737 76.5354C95.9098 76.7816 95.9509 76.9867 96.2389 77.1006C101.561 74.8733 111.814 69.6652 115.987 68.0948C116.795 67.7921 116.485 67.9583 116.095 68.5259C113.112 72.5878 102.773 78.6612 96.9619 82.183C96.7728 82.408 96.605 82.6082 96.9472 82.81C101.703 82.0694 111.743 79.4528 115.239 79.1468C115.883 79.0903 115.9 79.0194 115.409 79.5027C111.651 83.1692 100.906 86.7285 96.0498 88.4514C95.61 88.7218 95.5172 88.9846 95.7964 89.2615C100.091 90.3924 109.817 90.0283 111.626 90.3104C112.211 90.3751 112.119 90.3832 111.713 90.7663C109.213 93.187 98.3174 94.2329 92.8298 94.8288C92.3279 94.9193 92.1848 95.1404 92.3932 95.4003L105.163 99.8923C105.723 100.191 105.719 100.145 105.108 100.314C95.1306 103.111 85.761 99.3414 78.4585 92.7024C78.4337 92.6811 78.3834 92.6393 78.3334 92.5972C81.9417 93.8345 85.5021 95.5861 89.3067 95.624C90.1178 95.6227 90.1462 94.6234 89.3103 94.6038C85.5517 94.5617 81.9372 92.7223 78.4291 91.5692C82.9857 91.7266 87.8104 91.7681 92.1473 90.2066C92.9134 89.9542 92.5738 88.9873 91.8077 89.2397C87.2909 90.8633 82.107 90.6912 77.4083 90.4995C82.8636 89.5355 88.1876 87.8643 93.0306 84.9374C93.7346 84.5051 93.1939 83.625 92.4902 84.0577C87.7138 86.9555 82.4319 88.5764 76.9975 89.5156C82.5952 87.2644 87.8493 83.9999 92.3821 80.1731C93.0068 79.6317 92.3364 78.8558 91.7117 79.3972C87.2207 83.1741 82.0547 86.3843 76.524 88.6065C81.8999 85.1464 86.5555 80.8683 90.5903 75.8562C91.1151 75.2308 90.2938 74.5843 89.8151 75.2057C85.9481 80.0174 81.4895 84.1622 76.3356 87.5106C80.841 83.1065 84.5838 77.9346 87.6423 72.3592C88.0207 71.6539 87.1195 71.1533 86.7407 71.8586C83.8044 77.2381 80.2084 82.2346 75.8788 86.5306C79.5798 81.4091 82.5001 75.8454 84.7785 69.8285C85.0612 69.0852 84.1009 68.7058 83.8181 69.449C81.5528 75.349 78.6952 80.8373 75.0575 85.8841C77.8449 80.1238 79.9469 74.2146 81.6701 67.9449C81.8817 67.1844 80.8834 66.901 80.6966 67.6824C78.9568 74.0233 76.8927 79.8361 74.0593 85.6006C75.853 79.3476 77.1912 73.1808 78.0118 66.6655C78.1274 65.8675 77.0951 65.7257 77.0044 66.545C76.1968 72.9434 74.8168 79.1602 73.061 85.3169C73.6765 78.8428 74.0122 72.3465 74.2558 65.8583C74.3002 65.0433 73.2553 65.0188 73.2315 65.809C72.9751 72.4141 72.6192 78.6801 71.9906 85.2715C71.2062 78.688 70.7546 72.4692 70.3383 65.8534C70.2906 65.0465 69.2747 65.089 69.3011 65.921C69.7054 72.3987 70.1809 78.8934 70.9074 85.343C69.005 79.2281 67.5375 73.0521 66.5849 66.6685C66.4664 65.8446 65.4626 66.0252 65.5769 66.803C66.5376 73.2788 68.0051 79.4547 69.9157 85.6617C66.9582 79.9403 64.7618 74.1758 62.8891 67.8728C62.6576 67.0816 61.6867 67.3751 61.9179 68.1663C63.7616 74.4024 65.9909 80.2799 68.8985 85.9592C65.1485 80.9794 62.1942 75.5593 59.8055 69.7187C59.5071 68.9566 58.5441 69.3422 58.8425 70.1041C61.2642 76.0577 64.2936 81.541 68.0727 86.5878C63.6258 82.3874 59.9508 77.4706 56.8875 72.1296C56.48 71.4465 55.596 71.9412 56.0035 72.624C59.1498 78.1201 62.9792 83.209 67.622 87.5312C62.3777 84.2814 57.8508 80.2273 53.8908 75.4976C53.3493 74.8729 52.5736 75.5434 53.09 76.1471C57.2042 81.0486 61.9522 85.2457 67.4137 88.5925C61.8768 86.5042 56.5982 83.3964 52.0367 79.7391C51.4113 79.2144 50.7647 80.036 51.386 80.5147C56.0016 84.2598 61.3511 87.3846 66.9631 89.5358C61.514 88.7146 56.1884 87.1873 51.377 84.3862C50.6677 83.9617 50.1671 84.863 50.8514 85.2666C55.7338 88.0847 61.0634 89.658 66.5836 90.4962C61.8579 90.7937 56.6893 91.0605 52.1539 89.5567C51.3896 89.2991 51.0561 90.2552 51.8204 90.5129C56.1887 91.9618 61.0226 91.8403 65.5642 91.5588C62.0812 92.814 58.4915 94.7041 54.7701 94.821C53.938 94.8474 53.9805 95.8636 54.8126 95.8372C58.6721 95.7082 62.1527 93.8972 65.7696 92.5838C65.7278 92.6341 65.6856 92.6841 65.6435 92.734L65.5096 92.7922ZM70.9747 91.4099L70.3892 121.014C70.3827 121.733 70.2527 121.837 70.7255 121.68C71.7346 121.29 72.7087 121.298 73.6651 121.631C74.1203 121.8 74.0824 121.896 74.0429 121.181L72.8602 91.5C72.8063 90.091 70.9711 90.043 70.9538 91.435L70.9747 91.4099Z" fill="black"/>
<path fill-rule="evenodd" clip-rule="evenodd" d="M37.2658 70.9257C37.0407 70.7369 36.8155 70.5478 36.5904 70.3591C34.7563 68.7345 32.9641 67.0603 31.2809 65.3071C29.8519 63.8096 28.3648 62.1781 27.1917 60.4265C27.0876 60.2966 27.0296 60.1624 26.9255 60.0324C26.389 59.1987 26.3674 58.1574 27.1101 57.374C27.8528 56.5906 28.894 56.5691 29.7494 57.0736C29.8744 57.1784 30.0415 57.2336 30.1415 57.3175C31.8773 58.3478 33.6042 59.541 35.2811 60.6924C37.4042 62.1752 39.5273 63.6584 41.6714 65.1164C40.9678 64.2279 40.2642 63.339 39.6067 62.4462C37.9333 60.2747 36.3019 58.0532 34.7834 55.7987C33.5022 53.8711 32.2089 51.8054 31.2587 49.6866C31.2046 49.5986 31.1506 49.5107 31.1425 49.4187C30.694 48.5308 30.7894 47.5025 31.6532 46.778C32.475 46.1035 33.5992 46.2369 34.3496 46.8666C34.4497 46.9505 34.5498 47.0345 34.6748 47.1395C36.2879 48.6208 37.8379 50.1772 39.367 51.7586C40.9421 53.3361 42.5171 54.9135 44.0712 56.5158C44.0462 56.4949 44.0172 56.428 44.0132 56.382C42.5416 53.8683 41.091 51.3297 39.7745 48.733C38.6822 46.5802 37.5568 44.3145 36.7534 42.0206C36.3848 40.9866 36.0413 39.9736 37.378 39.0918C38.2998 38.5012 39.3861 38.7307 40.0526 39.4605C40.1777 39.5654 40.2358 39.6994 40.3608 39.8043C41.885 41.5948 43.3252 43.4853 44.7194 45.3799C45.9805 47.0775 47.2416 48.7751 48.4817 50.4977C47.4783 48.0358 46.4998 45.595 45.5884 43.1251C44.71 40.7682 43.8446 38.2943 43.2382 35.8672C42.9786 34.7542 42.8489 33.537 44.3018 32.9232C44.9048 32.6618 45.4229 32.7556 45.757 32.8654C46.5213 33.1231 46.7705 33.5881 47.1699 34.1789C48.6012 36.2325 49.9065 38.4361 51.1159 40.6018C52.13 42.3905 53.1231 44.2043 54.0702 46.022C53.4678 43.641 52.9115 41.2559 52.3552 38.8709C51.7827 36.3018 51.2272 33.6617 50.8808 31.0265C50.7342 29.8804 50.8345 28.6431 52.3286 28.2343C53.2115 27.9948 54.1509 28.3993 54.6334 29.1452C54.7705 29.3882 54.7455 29.3672 54.7745 29.4342C54.8326 29.5682 54.8907 29.7021 54.9948 29.8321C56.2373 32.1108 57.2908 34.6146 58.29 37.0305C59.028 38.8434 59.7451 40.6812 60.4413 42.5441C60.1771 40.319 59.9378 38.1148 59.7657 35.8815C59.5531 33.1882 59.3327 30.4029 59.3964 27.6854C59.4378 26.5693 59.6171 25.441 61.1483 25.1912C62.3362 24.9945 62.99 25.8413 63.04 25.8833C63.2189 26.0762 63.277 26.2102 63.3312 26.2981C63.4393 26.4741 63.4184 26.4991 63.4723 26.5871C63.5304 26.7211 63.5634 26.8341 63.6215 26.9681C64.562 29.505 65.2886 32.246 65.9361 34.8781C66.5755 37.4181 67.1019 39.9913 67.6495 42.5393C67.7501 39.9809 67.8758 37.4435 68.0724 34.923C68.2699 32.1475 68.5184 29.1589 69.067 26.4222C69.0971 26.2341 69.148 26.021 69.1777 25.833C69.3942 24.8638 70.0871 24.0383 71.2242 24.0547C72.3364 24.0501 73.0528 24.8218 73.3004 25.7968C73.3415 26.0018 73.4035 26.1819 73.4447 26.3869C74.0501 29.069 74.3538 32.0092 74.6415 34.7655C74.8756 37.1787 75.0679 39.642 75.2103 42.0633C75.6701 39.6357 76.1508 37.183 76.6817 34.7724C77.2676 32.1947 77.8909 29.521 78.786 27.0321C78.8409 26.8651 78.8957 26.698 78.9718 26.5059C79.0058 26.3639 78.9845 26.3889 79.1276 26.1678C79.1906 26.0927 79.2246 25.9507 79.3924 25.7506C79.4342 25.7006 80.102 24.8541 81.2762 25.0295C82.8727 25.2607 83.0272 26.4988 83.082 27.653C83.2234 30.3293 83.0719 33.1008 82.8913 35.8053C82.7333 37.9747 82.5756 40.1441 82.3676 42.2715C83.0177 40.4299 83.6679 38.5883 84.3889 36.7637C85.3339 34.3168 86.3207 31.8198 87.5325 29.5119C87.6543 29.3158 87.7304 29.1237 87.8522 28.9276C87.9574 28.8026 87.9322 28.7816 88.1001 28.5814C88.667 27.906 89.5917 27.6165 90.4313 27.9371C92.0846 28.5573 91.7963 29.7647 91.6669 30.9349C91.4073 33.5305 90.8966 36.1711 90.382 38.7658C89.914 41.1014 89.3961 43.395 88.8782 45.6886C89.7834 43.8478 90.7386 42.0491 91.6937 40.2503C92.868 38.0384 94.1089 35.7974 95.5251 33.7033C95.6299 33.5782 95.7308 33.4071 95.8108 33.2611C95.8947 33.161 95.8947 33.161 96.0417 32.9859C96.6086 32.3105 97.6084 32.084 98.4516 32.4506C99.9713 33.1289 99.729 34.3322 99.4786 35.4435C98.9267 37.8791 98.1237 40.3599 97.2881 42.7278C96.4352 45.1666 95.5362 47.6094 94.5915 50.0563C95.7847 48.3294 96.9779 46.6025 98.1753 44.9216C99.5364 42.9946 100.923 41.0886 102.409 39.2665C102.514 39.1414 102.619 39.0164 102.724 38.8913C103.375 38.1158 104.463 37.8352 105.393 38.4028C106.787 39.2312 106.44 40.3046 106.094 41.3779C105.346 43.6916 104.272 45.9876 103.211 48.1664C101.931 50.7585 100.559 53.3587 99.1582 55.8918C99.1582 55.8918 99.1161 55.9418 99.0952 55.9669C100.602 54.3747 102.087 52.8077 103.593 51.2157C105.1 49.6237 106.631 48.0526 108.167 46.5276C108.271 46.4025 108.401 46.2984 108.531 46.1943C109.261 45.5278 110.357 45.3392 111.225 45.9819C112.117 46.6455 112.256 47.6996 111.826 48.618C111.767 48.739 111.708 48.8601 111.674 49.0021C110.769 51.0979 109.537 53.1759 108.313 55.0908C106.867 57.373 105.321 59.571 103.725 61.7272C103.082 62.5948 102.419 63.4873 101.755 64.3797C103.851 62.8982 105.875 61.4 107.971 59.9188C109.63 58.7537 111.328 57.4925 113.067 56.4365C113.222 56.3535 113.352 56.2494 113.485 56.1912C114.349 55.7217 115.419 55.7671 116.114 56.5638C116.81 57.3606 116.785 58.4059 116.231 59.2193C116.146 59.3192 116.063 59.4195 115.983 59.5654C114.885 61.3301 113.433 63.0102 112.011 64.5022C110.337 66.2943 108.562 68.0028 106.784 69.6649C106.57 69.869 106.356 70.073 106.142 70.2771C107.566 69.5963 109.036 68.9115 110.484 68.2516C112.021 67.5377 113.625 66.7949 115.22 66.2149C116.275 65.8211 117.45 65.7417 118.178 66.9065C118.714 67.7402 118.523 68.7303 117.939 69.4768C117.855 69.577 117.771 69.6769 117.687 69.7772C116.486 71.4119 114.67 72.915 113.086 74.1431C111.065 75.6874 108.924 77.1728 106.77 78.5201C106.661 78.5992 106.506 78.6824 106.397 78.7615C107.807 78.4526 109.217 78.144 110.607 77.8602C112.042 77.5722 113.544 77.2554 115.016 77.1264C116.028 77.038 116.985 77.1166 117.55 78.2723C117.948 79.1184 117.728 80.0415 117.111 80.675C117.027 80.7753 116.922 80.9 116.813 80.9794C114.313 83.4 109.828 85.3917 106.63 86.7145C105.512 87.1831 104.39 87.606 103.268 88.0285C104.919 88.0925 106.566 88.1108 108.239 88.15C109.376 88.1663 110.764 88.1376 111.867 88.2959C112.828 88.4204 113.676 88.8331 113.978 89.896C114.209 90.6869 113.951 91.4514 113.398 92.0098C113.313 92.1097 113.229 92.2099 113.121 92.289C111.069 94.2763 105.488 95.3905 100.289 96.1004L105.956 98.0845L106.081 98.1896C106.081 98.1896 106.344 98.2824 106.444 98.3663C107.178 98.812 107.64 99.583 107.532 100.473C107.382 101.668 106.561 102.088 105.59 102.382C94.9768 105.326 84.9051 101.479 77.0233 94.3113C76.4979 93.8704 75.8056 93.3747 75.0291 92.9789L76.1583 121.251C76.1968 122.221 76.1312 123.061 75.1845 123.631C74.3926 124.117 73.7993 123.96 73.06 123.724C72.534 123.538 72.0699 123.532 71.555 123.74C70.7471 124.042 69.965 124.111 69.2185 123.527C68.347 122.838 68.3996 122.115 68.411 121.187L68.9413 93.0714C68.1664 93.4867 67.4666 93.9651 66.9298 94.4526C59.1665 101.622 49.1697 105.254 38.645 103.116C37.6297 102.903 36.6864 102.453 36.5317 101.215C36.4302 100.32 36.9179 99.5353 37.6677 99.0987C37.7767 99.0197 37.8897 98.9867 37.9987 98.9074L38.1327 98.8496L43.4454 96.7855C38.3633 96.1869 32.877 95.2066 30.7806 93.2346C30.6805 93.1504 30.5805 93.0665 30.4804 92.9825C29.922 92.4287 29.6486 91.6878 29.8352 90.9067C30.1107 89.8164 30.9566 89.418 31.8937 89.2664C33.0148 89.0986 34.3819 89.095 35.5151 89.0653C37.1793 89.0124 38.8185 88.9386 40.4787 88.8397C39.3554 88.4514 38.253 88.0377 37.1256 87.6033C33.8854 86.3337 29.3637 84.4581 26.8171 82.1079C26.7171 82.024 26.617 81.9401 26.4919 81.8349C25.8585 81.2184 25.573 80.3393 25.9356 79.4498C26.4331 78.2475 27.4201 78.1381 28.4443 78.1874C29.9116 78.2677 31.4199 78.5528 32.8573 78.8212C34.2696 79.0684 35.686 79.362 37.1234 79.6301C36.9983 79.5253 36.8063 79.4492 36.6812 79.3443C34.4781 78.0071 32.313 76.5743 30.2569 75.062C28.622 73.8607 26.8 72.3745 25.5469 70.7689C25.4428 70.6389 25.3388 70.509 25.2557 70.3539C24.7022 69.5911 24.6136 68.5791 25.2393 67.7827C25.865 66.9862 26.8231 66.8095 27.7084 67.1263C27.8504 67.1603 27.9964 67.2399 28.1385 67.2739C29.742 67.8522 31.3327 68.5474 32.8732 69.2008C34.3178 69.8161 35.7413 70.4564 37.1649 71.0968L37.2658 70.9257ZM65.5096 92.7922C58.3462 99.3988 49.0145 102.95 39.0329 100.926C38.3477 100.778 38.4438 100.816 39.0177 100.487L51.527 95.638C51.6239 95.4209 51.5198 95.2909 51.2148 95.2481C45.9817 94.7789 34.8086 93.9716 32.1829 91.5124C31.7577 91.1555 31.6616 91.1176 32.2557 91.0194C34.0838 90.7202 43.8083 90.8662 48.0813 89.6348C48.3502 89.2635 48.234 88.9957 47.8039 88.8478C42.9092 87.2131 32.0959 83.8944 28.2614 80.3357C27.7611 79.9161 27.7361 79.8952 28.3923 79.9769C31.9119 80.2019 41.9967 82.6111 46.7817 83.2587C47.0748 83.1633 47.0546 82.9334 46.7754 82.6565C40.8667 79.233 30.384 73.3356 27.2954 69.2946C26.775 68.6447 26.8541 68.7538 27.5473 68.9945C31.7107 70.4845 42.0629 75.4199 47.3698 77.5284C47.5748 77.4873 47.7508 77.3792 47.5056 76.9602C42.4905 72.624 32.4788 64.6922 28.8724 59.2363C28.4439 58.5786 28.398 58.5825 29.0823 58.9862C32.0616 60.7188 39.1184 65.873 45.1464 69.8654C46.6232 70.8486 48.0459 71.744 49.3185 72.5137C49.7615 72.5444 50.1045 72.4911 49.7012 71.8544C44.9843 65.8929 36.0604 55.2929 33.1055 48.8065C32.9022 48.3376 32.7481 48.1656 33.2524 48.6314C37.6662 52.7187 47.169 62.7813 52.6956 67.9299C53.0507 68.0148 53.3557 68.0576 53.0984 67.5008C48.9491 60.6091 41.0724 48.2022 38.6374 41.2995C38.4511 40.7595 38.2679 40.5206 38.7593 41.1034C43.0986 46.1939 51.5113 58.3683 56.2266 64.8398C56.6187 65.0834 56.7487 64.9796 56.6413 64.5485C53.3857 56.7441 47.0284 42.6283 45.2342 35.3681C45.127 34.9371 45.0899 34.7781 45.1149 34.7991C45.1399 34.82 45.273 35.017 45.4852 35.323C49.5379 41.1107 56.4483 54.9233 60.0847 62.5785C60.36 62.8094 60.4691 62.7303 60.441 62.408C58.2881 53.696 53.8831 38.32 52.943 30.7533C52.8415 29.8583 52.8656 30.1343 53.223 30.7752C56.705 37.1923 61.8765 52.0609 64.4105 60.6238C64.5427 61.0757 64.8317 60.9347 64.7915 60.4746C63.7316 51.2727 61.2475 35.3346 61.4827 27.6883C61.4892 26.9692 61.4683 26.9943 61.7125 27.6682C64.4268 34.8479 67.161 50.9959 68.8358 60.0745C68.9981 60.3384 69.1571 60.3012 69.342 60.0301C69.3387 49.9246 69.7338 33.2479 71.0475 26.8052C71.2392 25.8149 71.1932 25.819 71.4198 26.819C72.9023 33.4342 73.7363 50.1193 73.9077 60.0246C73.9698 60.2048 74.1076 60.1927 74.2336 60.0425C75.6933 51.2924 78.1022 35.1117 80.6986 27.6992C80.9941 26.8389 80.9902 26.7929 81.0036 27.742C81.3497 35.407 79.2001 51.6347 78.3497 60.7253C78.4578 60.9013 78.5999 60.9353 78.7047 60.8102C81.0375 52.2388 85.9393 36.9989 89.3272 30.4211C89.8618 29.3776 89.676 29.9038 89.5855 30.723C88.8204 38.1375 84.7879 53.51 82.814 62.2124C82.8303 62.3963 82.9971 62.4511 83.1983 62.3643C86.6907 54.5951 93.2814 40.6445 97.198 34.8086C97.7107 34.0452 97.6264 34.1452 97.4439 34.9725C95.7847 42.2335 89.7491 56.4368 86.6829 64.3076C86.6858 64.6086 86.8321 64.6886 87.0999 64.5724C91.6294 58.0571 99.7741 45.7089 103.981 40.5429C104.506 39.9175 104.359 40.0926 104.16 40.7358C101.891 47.6561 94.2979 60.211 90.2938 67.1671C90.2301 67.4973 90.3591 67.6481 90.7023 67.5949C96.0841 62.3493 105.321 52.1539 109.617 48C110.216 47.4376 110.086 47.5417 109.817 48.168C106.985 54.7433 98.2851 65.5177 93.7748 71.452C93.6439 71.8109 93.7771 72.0082 94.103 72.0258C100.505 68.105 110.406 60.4706 114.144 58.1502C114.827 57.7427 114.672 57.8259 114.306 58.414C110.825 63.9337 101.014 72.0702 96.0737 76.5354C95.9098 76.7816 95.9509 76.9867 96.2389 77.1006C101.561 74.8733 111.814 69.6652 115.987 68.0948C116.795 67.7921 116.485 67.9583 116.095 68.5259C113.112 72.5878 102.773 78.6612 96.9619 82.183C96.7728 82.408 96.605 82.6082 96.9472 82.81C101.703 82.0694 111.743 79.4528 115.239 79.1468C115.883 79.0903 115.9 79.0194 115.409 79.5027C111.651 83.1692 100.906 86.7285 96.0498 88.4514C95.61 88.7218 95.5172 88.9846 95.7964 89.2615C100.091 90.3924 109.817 90.0283 111.626 90.3104C112.211 90.3751 112.119 90.3832 111.713 90.7663C109.213 93.187 98.3174 94.2329 92.8298 94.8288C92.3279 94.9193 92.1848 95.1404 92.3932 95.4003L105.163 99.8923C105.723 100.191 105.719 100.145 105.108 100.314C95.1306 103.111 85.761 99.3414 78.4585 92.7024C78.4337 92.6811 78.3834 92.6393 78.3334 92.5972C81.9417 93.8345 85.5021 95.5861 89.3067 95.624C90.1178 95.6227 90.1462 94.6234 89.3103 94.6038C85.5517 94.5617 81.9372 92.7223 78.4291 91.5692C82.9857 91.7266 87.8104 91.7681 92.1473 90.2066C92.9134 89.9542 92.5738 88.9873 91.8077 89.2397C87.2909 90.8633 82.107 90.6912 77.4083 90.4995C82.8636 89.5355 88.1876 87.8643 93.0306 84.9374C93.7346 84.5051 93.1939 83.625 92.4902 84.0577C87.7138 86.9555 82.4319 88.5764 76.9975 89.5156C82.5952 87.2644 87.8493 83.9999 92.3821 80.1731C93.0068 79.6317 92.3364 78.8558 91.7117 79.3972C87.2207 83.1741 82.0547 86.3843 76.524 88.6065C81.8999 85.1464 86.5555 80.8683 90.5903 75.8562C91.1151 75.2308 90.2938 74.5843 89.8151 75.2057C85.9481 80.0174 81.4895 84.1622 76.3356 87.5106C80.841 83.1065 84.5838 77.9346 87.6423 72.3592C88.0207 71.6539 87.1195 71.1533 86.7407 71.8586C83.8044 77.2381 80.2084 82.2346 75.8788 86.5306C79.5798 81.4091 82.5001 75.8454 84.7785 69.8285C85.0612 69.0852 84.1009 68.7058 83.8181 69.449C81.5528 75.349 78.6952 80.8373 75.0575 85.8841C77.8449 80.1238 79.9469 74.2146 81.6701 67.9449C81.8817 67.1844 80.8834 66.901 80.6966 67.6824C78.9568 74.0233 76.8927 79.8361 74.0593 85.6006C75.853 79.3476 77.1912 73.1808 78.0118 66.6655C78.1274 65.8675 77.0951 65.7257 77.0044 66.545C76.1968 72.9434 74.8168 79.1602 73.061 85.3169C73.6765 78.8428 74.0122 72.3465 74.2558 65.8583C74.3002 65.0433 73.2553 65.0188 73.2315 65.809C72.9751 72.4141 72.6192 78.6801 71.9906 85.2715C71.2062 78.688 70.7546 72.4692 70.3383 65.8534C70.2906 65.0465 69.2747 65.089 69.3011 65.921C69.7054 72.3987 70.1809 78.8934 70.9074 85.343C69.005 79.2281 67.5375 73.0521 66.5849 66.6685C66.4664 65.8446 65.4626 66.0252 65.5769 66.803C66.5376 73.2788 68.0051 79.4547 69.9157 85.6617C66.9582 79.9403 64.7618 74.1758 62.8891 67.8728C62.6576 67.0816 61.6867 67.3751 61.9179 68.1663C63.7616 74.4024 65.9909 80.2799 68.8985 85.9592C65.1485 80.9794 62.1942 75.5593 59.8055 69.7187C59.5071 68.9566 58.5441 69.3422 58.8425 70.1041C61.2642 76.0577 64.2936 81.541 68.0727 86.5878C63.6258 82.3874 59.9508 77.4706 56.8875 72.1296C56.48 71.4465 55.596 71.9412 56.0035 72.624C59.1498 78.1201 62.9792 83.209 67.622 87.5312C62.3777 84.2814 57.8508 80.2273 53.8908 75.4976C53.3493 74.8729 52.5736 75.5434 53.09 76.1471C57.2042 81.0486 61.9522 85.2457 67.4137 88.5925C61.8768 86.5042 56.5982 83.3964 52.0367 79.7391C51.4113 79.2144 50.7647 80.036 51.386 80.5147C56.0016 84.2598 61.3511 87.3846 66.9631 89.5358C61.514 88.7146 56.1884 87.1873 51.377 84.3862C50.6677 83.9617 50.1671 84.863 50.8514 85.2666C55.7338 88.0847 61.0634 89.658 66.5836 90.4962C61.8579 90.7937 56.6893 91.0605 52.1539 89.5567C51.3896 89.2991 51.0561 90.2552 51.8204 90.5129C56.1887 91.9618 61.0226 91.8403 65.5642 91.5588C62.0812 92.814 58.4915 94.7041 54.7701 94.821C53.938 94.8474 53.9805 95.8636 54.8126 95.8372C58.6721 95.7082 62.1527 93.8972 65.7696 92.5838C65.7278 92.6341 65.6856 92.6841 65.6435 92.734L65.5096 92.7922ZM70.9747 91.4099L70.3892 121.014C70.3827 121.733 70.2527 121.837 70.7255 121.68C71.7346 121.29 72.7087 121.298 73.6651 121.631C74.1203 121.8 74.0824 121.896 74.0429 121.181L72.8602 91.5C72.8063 90.091 70.9711 90.043 70.9538 91.435L70.9747 91.4099Z" stroke="black" stroke-width="1.0727" mask="url(#path-2-outside-1_181_232)"/>
</mask>
<g mask="url(#mask0_181_232)">
<path d="M16.7601 14.137H129.377V134.467H16.7601V14.137Z" fill="white"/>
</g>
<g clip-path="url(#clip0_181_232)">
<rect x="157.441" y="3.05762" width="142.559" height="142.559" rx="35.6396" fill="#FFB800"/>
<mask id="mask1_181_232" style="mask-type:alpha" maskUnits="userSpaceOnUse" x="192" y="19" width="72" height="129">
<path fill-rule="evenodd" clip-rule="evenodd" d="M250.603 146.305L250.971 133.35C251.741 133.101 252.421 132.648 252.988 132.013C253.939 130.926 254.143 129.906 254.211 128.682C264.114 124.784 263.661 109.805 253.214 107.086L253.056 107.018H252.897C251.039 106.701 249.181 106.429 247.322 106.179L246.892 105.59C253.169 101.556 259.31 95.7552 260.375 88.4355C261.146 83.2008 259.084 78.4192 255.73 74.4762C255.571 74.2495 255.344 73.9096 255.39 73.6377C255.681 72.1378 256.702 70.1293 257.404 68.7481L257.429 68.6975C257.622 68.3167 257.82 67.9347 258.018 67.5513C258.704 66.2245 259.4 64.8789 259.945 63.508C262.913 56.8683 263.503 50.4324 260.806 43.634L260.749 43.4802L260.748 43.4775C260.678 43.2873 260.61 43.1051 260.557 42.9089C260.058 41.4586 258.993 40.3481 257.316 40.3481C255.095 40.3255 254.211 41.9798 253.826 43.77C253.192 46.8066 251.243 49.0274 248.886 50.8177C248.523 50.0245 248.365 49.1634 248.501 48.1437C248.709 46.7083 249.337 45.3302 249.947 43.9919L250.11 43.634C251.288 41.028 252.104 38.7165 252.013 35.8159C251.832 30.1505 248.818 26.1395 245.464 21.9018C245.283 21.698 245.124 21.4943 244.966 21.2905C243.969 20.0895 242.405 19.5677 240.887 20.3155C239.368 21.0633 238.87 22.559 239.142 24.0773C239.154 24.1876 239.173 24.2918 239.191 24.3924C239.207 24.4777 239.222 24.5608 239.232 24.6438C240.048 31.125 235.992 38.4673 230.281 41.5039C226.633 43.4301 223.46 45.3336 220.514 48.2796C217.455 51.3389 214.939 54.8741 212.877 58.6585C212.826 58.5917 212.773 58.5218 212.719 58.4511C212.536 58.2105 212.339 57.9516 212.129 57.7067C212.059 57.6283 211.99 57.5491 211.923 57.4717C211.797 57.326 211.673 57.1823 211.54 57.0496C210.611 56.0978 209.229 55.6899 207.937 56.1431C206.623 56.5963 205.875 57.7294 205.716 59.0664C205.705 59.1798 205.693 59.2874 205.682 59.3951L205.682 59.4005C205.67 59.5063 205.659 59.6122 205.648 59.7236L205.58 60.3355C204.991 64.5958 203.291 67.0885 200.436 70.3065C200.12 70.6703 199.808 71.0369 199.497 71.4024C198.781 72.2432 198.067 73.0816 197.309 73.887C194.657 76.6743 192.867 80.0735 193.139 83.9939C193.366 87.1438 194.839 89.9538 196.765 92.4013C197.263 93.1717 197.807 93.9423 198.351 94.6674C201.388 98.7238 205.014 102.214 208.798 105.545L208.277 106.225C206.577 106.451 204.878 106.701 203.178 107.018H203.019L202.861 107.063C192.55 109.737 191.961 124.354 201.478 128.501C201.546 129.77 201.705 130.858 202.702 131.991C203.269 132.648 203.971 133.078 204.742 133.35L205.117 146.305H209.418L209.002 131.923C221.557 130.608 234.179 130.608 246.711 131.923L246.733 131.968L246.309 146.305H250.603ZM200.957 92.6959C203.88 96.6163 207.348 99.9702 210.996 103.143L211.019 103.165C212.779 102.163 215.636 101.949 217.454 101.813L217.545 101.806C220.99 101.534 224.48 101.489 227.947 101.489C231.459 101.511 234.972 101.602 238.462 101.942L238.712 101.965C240.411 102.122 242.876 102.349 244.58 103.233C255.208 96.5937 262.188 86.9399 253.214 76.4704C252.489 75.4733 251.945 74.4309 252.217 73.0259C252.591 71.015 253.893 68.476 255.119 66.0841C255.828 64.7027 256.511 63.3695 256.976 62.2164C260.126 55.1914 259.967 49.3901 257.203 43.4301C256.523 48.7556 253.305 51.9508 249.384 54.4662C248.6 55.0729 247.755 55.6799 246.895 56.2971C244.896 57.7313 242.817 59.2229 241.249 60.902C240.956 58.3247 243.574 55.5286 245.405 53.572C245.7 53.2578 245.973 52.9652 246.212 52.6986C245.441 51.2936 245.033 49.6847 245.305 47.7131C245.563 45.833 246.282 44.238 247 42.6471C247.926 40.5948 248.849 38.549 248.773 35.9066C248.625 31.0809 245.773 27.4891 242.932 23.9117L242.928 23.9066C242.715 23.6388 242.503 23.3711 242.291 23.1029C243.923 31.1703 239.096 40.5295 231.822 44.3819C228.468 46.1722 225.567 47.8264 222.825 50.5911C219.199 54.2396 215.188 59.8143 212.288 68.1083L212.282 68.0567C211.811 63.6335 211.666 62.2719 209.025 59.0665C208.991 59.3177 208.959 59.5663 208.927 59.8133C208.469 63.3772 208.053 66.6102 202.861 72.4593C202.398 72.9762 201.983 73.4677 201.576 73.9498C200.965 74.6724 200.372 75.3738 199.665 76.1078C197.445 78.4193 196.176 80.9347 196.38 83.7447C196.515 85.8069 197.445 88.0503 199.393 90.4751C199.892 91.2456 200.413 91.9708 200.957 92.6959ZM203.858 110.53C211.993 109.148 220.061 108.491 228.06 108.514C236.06 108.514 244.127 109.148 252.263 110.53C259.197 112.321 259.65 123.13 252.263 125.487C244.331 124.127 236.264 123.719 228.06 123.742C219.857 123.719 211.79 124.105 203.858 125.487C196.47 123.13 196.924 112.321 203.858 110.53ZM244.241 107.245L244.239 107.242L244.263 107.245H244.241ZM244.239 107.242L243.425 106.157C241.884 104.095 214.282 103.981 212.469 105.908L211.427 107.313C216.956 106.678 222.508 106.383 228.083 106.383C233.491 106.383 238.876 106.655 244.239 107.242ZM207.416 129.997C221.081 128.456 234.723 128.478 248.365 129.997C250.448 130.221 250.47 129.287 250.503 127.873C250.507 127.718 250.511 127.557 250.518 127.391C243.108 126.212 235.584 125.872 228.038 125.917C220.378 125.895 212.741 126.235 205.195 127.458C205.198 127.53 205.2 127.6 205.202 127.669C205.205 127.748 205.207 127.826 205.209 127.902C205.247 129.347 205.271 130.246 207.416 130.019V129.997Z" fill="black"/>
<path d="M238.697 146.305L238.757 140.307C238.757 138.744 240.116 137.452 241.793 137.452C242.042 137.452 242.269 137.475 242.496 137.52C242.156 136.296 240.955 135.413 239.55 135.413C237.873 135.413 236.536 136.704 236.513 138.268L236.416 146.305H238.697Z" fill="black"/>
<path d="M227.33 146.305L227.29 140.285C227.29 138.721 228.65 137.429 230.327 137.429C230.576 137.429 230.802 137.452 231.029 137.497C230.689 136.274 229.488 135.39 228.083 135.39C226.406 135.39 225.024 136.682 225.046 138.245L225.091 146.305H227.33Z" fill="black"/>
<path d="M215.981 146.305L215.823 140.262C215.801 138.699 217.183 137.407 218.86 137.407C219.109 137.407 219.336 137.429 219.562 137.475C219.222 136.251 218.021 135.367 216.639 135.367C214.962 135.367 213.58 136.659 213.602 138.223L213.791 146.305H215.981Z" fill="black"/>
<path d="M244.239 107.242L244.241 107.245H244.263L244.239 107.242ZM244.239 107.242L243.425 106.157C241.884 104.095 214.282 103.981 212.469 105.908L211.427 107.313C216.956 106.678 222.508 106.383 228.083 106.383C233.491 106.383 238.876 106.655 244.239 107.242ZM250.603 146.305L250.971 133.35C251.741 133.101 252.421 132.648 252.988 132.013C253.939 130.926 254.143 129.906 254.211 128.682C264.114 124.784 263.661 109.805 253.214 107.086L253.056 107.018H252.897C251.039 106.701 249.181 106.429 247.322 106.179L246.892 105.59C253.169 101.556 259.31 95.7552 260.375 88.4355C261.146 83.2008 259.084 78.4192 255.73 74.4762C255.571 74.2495 255.344 73.9096 255.39 73.6377C255.681 72.1378 256.702 70.1293 257.404 68.7481L257.429 68.6975C257.622 68.3167 257.82 67.9347 258.018 67.5513C258.704 66.2245 259.4 64.8789 259.945 63.508C262.913 56.8683 263.503 50.4324 260.806 43.634L260.749 43.4802L260.748 43.4775C260.678 43.2873 260.61 43.1051 260.557 42.9089C260.058 41.4586 258.993 40.3481 257.316 40.3481C255.095 40.3255 254.211 41.9798 253.826 43.77C253.192 46.8066 251.243 49.0274 248.886 50.8177C248.523 50.0245 248.365 49.1634 248.501 48.1437C248.709 46.7083 249.337 45.3302 249.947 43.9919L250.11 43.634C251.288 41.028 252.104 38.7165 252.013 35.8159C251.832 30.1505 248.818 26.1395 245.464 21.9018C245.283 21.698 245.124 21.4943 244.966 21.2905C243.969 20.0895 242.405 19.5677 240.887 20.3155C239.368 21.0633 238.87 22.559 239.142 24.0773C239.154 24.1876 239.173 24.2918 239.191 24.3924C239.207 24.4777 239.222 24.5608 239.232 24.6438C240.048 31.125 235.992 38.4673 230.281 41.5039C226.633 43.4301 223.46 45.3336 220.514 48.2796C217.455 51.3389 214.939 54.8741 212.877 58.6585C212.826 58.5917 212.773 58.5218 212.719 58.4511C212.536 58.2105 212.339 57.9516 212.129 57.7067C212.059 57.6283 211.99 57.5491 211.923 57.4717C211.797 57.326 211.673 57.1823 211.54 57.0496C210.611 56.0978 209.229 55.6899 207.937 56.1431C206.623 56.5963 205.875 57.7294 205.716 59.0664C205.705 59.1798 205.693 59.2874 205.682 59.3951L205.682 59.4005C205.67 59.5063 205.659 59.6122 205.648 59.7236L205.58 60.3355C204.991 64.5958 203.291 67.0885 200.436 70.3065C200.12 70.6703 199.808 71.0369 199.497 71.4024C198.781 72.2432 198.067 73.0816 197.309 73.887C194.657 76.6743 192.867 80.0735 193.139 83.9939C193.366 87.1438 194.839 89.9538 196.765 92.4013C197.263 93.1717 197.807 93.9423 198.351 94.6674C201.388 98.7238 205.014 102.214 208.798 105.545L208.277 106.225C206.577 106.451 204.878 106.701 203.178 107.018H203.019L202.861 107.063C192.55 109.737 191.961 124.354 201.478 128.501C201.546 129.77 201.705 130.858 202.702 131.991C203.269 132.648 203.971 133.078 204.742 133.35L205.117 146.305H209.418L209.002 131.923C221.557 130.608 234.179 130.608 246.711 131.923L246.733 131.968L246.309 146.305H250.603ZM238.757 140.307L238.697 146.305H236.416L236.513 138.268C236.536 136.704 237.873 135.413 239.55 135.413C240.955 135.413 242.156 136.296 242.496 137.52C242.269 137.475 242.042 137.452 241.793 137.452C240.116 137.452 238.757 138.744 238.757 140.307ZM227.29 140.285L227.33 146.305H225.091L225.046 138.245C225.024 136.682 226.406 135.39 228.083 135.39C229.488 135.39 230.689 136.274 231.029 137.497C230.802 137.452 230.576 137.429 230.327 137.429C228.65 137.429 227.29 138.721 227.29 140.285ZM215.823 140.262L215.981 146.305H213.791L213.602 138.223C213.58 136.659 214.962 135.367 216.639 135.367C218.021 135.367 219.222 136.251 219.562 137.475C219.336 137.429 219.109 137.407 218.86 137.407C217.183 137.407 215.801 138.699 215.823 140.262ZM210.996 103.143C207.348 99.9702 203.88 96.6163 200.957 92.6959C200.413 91.9708 199.892 91.2456 199.393 90.4751C197.445 88.0503 196.515 85.8069 196.38 83.7447C196.176 80.9347 197.445 78.4193 199.665 76.1078C200.372 75.3738 200.965 74.6724 201.576 73.9498C201.983 73.4677 202.398 72.9762 202.861 72.4593C208.053 66.6102 208.469 63.3772 208.927 59.8133C208.959 59.5663 208.991 59.3177 209.025 59.0665C211.666 62.2719 211.811 63.6335 212.282 68.0567L212.288 68.1083C215.188 59.8143 219.199 54.2396 222.825 50.5911C225.567 47.8264 228.468 46.1722 231.822 44.3819C239.096 40.5295 243.923 31.1703 242.291 23.1029C242.503 23.3711 242.715 23.6388 242.928 23.9066L242.932 23.9117C245.773 27.4891 248.625 31.0809 248.773 35.9066C248.849 38.549 247.926 40.5948 247 42.6471C246.282 44.238 245.563 45.833 245.305 47.7131C245.033 49.6847 245.441 51.2936 246.212 52.6986C245.973 52.9652 245.7 53.2578 245.405 53.572C243.574 55.5286 240.956 58.3247 241.249 60.902C242.817 59.2229 244.896 57.7313 246.895 56.2971C247.755 55.6799 248.6 55.0729 249.384 54.4662C253.305 51.9508 256.523 48.7556 257.203 43.4301C259.967 49.3901 260.126 55.1914 256.976 62.2164C256.511 63.3695 255.828 64.7027 255.119 66.0841C253.893 68.476 252.591 71.015 252.217 73.0259C251.945 74.4309 252.489 75.4733 253.214 76.4704C262.188 86.9399 255.208 96.5937 244.58 103.233C242.876 102.349 240.411 102.122 238.712 101.965L238.462 101.942C234.972 101.602 231.459 101.511 227.947 101.489C224.48 101.489 220.99 101.534 217.545 101.806L217.454 101.813C215.636 101.949 212.779 102.163 211.019 103.165L210.996 103.143ZM228.06 108.514C220.061 108.491 211.993 109.148 203.858 110.53C196.924 112.321 196.47 123.13 203.858 125.487C211.79 124.105 219.857 123.719 228.06 123.742C236.264 123.719 244.331 124.127 252.263 125.487C259.65 123.13 259.197 112.321 252.263 110.53C244.127 109.148 236.06 108.514 228.06 108.514ZM248.365 129.997C234.723 128.478 221.081 128.456 207.416 129.997V130.019C205.271 130.246 205.247 129.347 205.209 127.902C205.207 127.826 205.205 127.748 205.202 127.669C205.2 127.6 205.198 127.53 205.195 127.458C212.741 126.235 220.378 125.895 228.038 125.917C235.584 125.872 243.108 126.212 250.518 127.391C250.511 127.557 250.507 127.718 250.503 127.873C250.47 129.287 250.448 130.221 248.365 129.997Z" stroke="black" stroke-width="1.86035"/>
</mask>
<g mask="url(#mask1_181_232)">
<rect x="176.442" y="14.8225" width="99.2187" height="135.186" fill="white"/>
</g>
</g>
<g clip-path="url(#clip1_181_232)">
<rect y="160.499" width="142.559" height="142.559" rx="35.6396" fill="#22D3EE"/>
<path d="M30.7101 227.779L26.1236 231.712L23.8334 233.676L25.7961 235.967L37.3149 249.413L39.2795 251.707L41.572 249.741L46.1547 245.812L55.1293 256.295L50.5428 260.228L48.2526 262.192L50.2153 264.483L61.7341 277.929L63.6946 280.218L65.9864 278.261L70.5834 274.336L79.5645 284.827L74.9781 288.76L72.6879 290.723L74.6506 293.015L86.1694 306.461L88.1313 308.751L90.4233 306.791L95.0007 302.877L105.703 315.392L106.963 316.865L108.828 316.332C121.765 312.628 130.626 306.691 136.323 299.431C142.016 292.177 144.359 283.845 144.685 275.679C144.686 275.675 144.686 275.672 144.686 275.668L144.749 274.342L144.806 273.145L144.027 272.235L138.438 265.707L143.024 261.774L145.313 259.811L143.353 257.52L131.834 244.058L129.87 241.762L127.576 243.729L122.989 247.661L114.02 237.179L118.602 233.261L120.896 231.299L118.934 229.005L107.415 215.542L105.453 213.249L103.16 215.21L98.5765 219.129L89.6019 208.646L94.1826 204.729L96.4772 202.767L94.5144 200.473L82.9956 187.01L81.0338 184.717L78.7405 186.678L74.1573 190.598L65.1801 180.111L69.7665 176.178L72.0554 174.216L70.0952 171.925L58.5764 158.462L56.612 156.166L54.3182 158.133L49.735 162.063L38.9599 149.481L37.9703 148.325L36.4528 148.433C24.4989 149.285 12.4672 150.551 0.263049 152.249H-2.69667L-2.55933 155.399L-1.06526 189.666L-1.0199 190.706L-0.342767 191.497L6.29099 199.247L1.70446 203.18L-0.585767 205.144L1.37693 207.435L12.8957 220.882L14.8577 223.172L17.1497 221.212L21.7329 217.293L30.7101 227.779Z" stroke="url(#paint0_linear_181_232)" stroke-width="6.03674"/>
<path d="M30.7101 227.779L26.1236 231.712L23.8334 233.676L25.7961 235.967L37.3149 249.413L39.2795 251.707L41.572 249.741L46.1547 245.812L55.1293 256.295L50.5428 260.228L48.2526 262.192L50.2153 264.483L61.7341 277.929L63.6946 280.218L65.9864 278.261L70.5834 274.336L79.5645 284.827L74.9781 288.76L72.6879 290.723L74.6506 293.015L86.1694 306.461L88.1313 308.751L90.4233 306.791L95.0007 302.877L105.703 315.392L106.963 316.865L108.828 316.332C121.765 312.628 130.626 306.691 136.323 299.431C142.016 292.177 144.359 283.845 144.685 275.679C144.686 275.675 144.686 275.672 144.686 275.668L144.749 274.342L144.806 273.145L144.027 272.235L138.438 265.707L143.024 261.774L145.313 259.811L143.353 257.52L131.834 244.058L129.87 241.762L127.576 243.729L122.989 247.661L114.02 237.179L118.602 233.261L120.896 231.299L118.934 229.005L107.415 215.542L105.453 213.249L103.16 215.21L98.5765 219.129L89.6019 208.646L94.1826 204.729L96.4772 202.767L94.5144 200.473L82.9956 187.01L81.0338 184.717L78.7405 186.678L74.1573 190.598L65.1801 180.111L69.7665 176.178L72.0554 174.216L70.0952 171.925L58.5764 158.462L56.612 156.166L54.3182 158.133L49.735 162.063L38.9599 149.481L37.9703 148.325L36.4528 148.433C24.4989 149.285 12.4672 150.551 0.263049 152.249H-2.69667L-2.55933 155.399L-1.06526 189.666L-1.0199 190.706L-0.342767 191.497L6.29099 199.247L1.70446 203.18L-0.585767 205.144L1.37693 207.435L12.8957 220.882L14.8577 223.172L17.1497 221.212L21.7329 217.293L30.7101 227.779Z" stroke="white" stroke-width="6.03674"/>
</g>
<rect x="157.441" y="160.499" width="142.559" height="142.559" rx="35.6396" fill="#64748B"/>
<path d="M380.737 124.385C371.877 124.385 364.153 122.795 357.565 119.615C350.977 116.434 345.866 111.72 342.231 105.473C338.596 99.112 336.779 91.3312 336.779 82.1306V2.73245H350.92V82.3009C350.92 92.0695 353.533 99.396 358.758 104.28C363.983 109.165 371.309 111.607 380.737 111.607C390.165 111.607 397.492 109.165 402.717 104.28C407.942 99.396 410.554 92.0695 410.554 82.3009V2.73245H424.866V82.1306C424.866 91.3312 423.049 99.112 419.414 105.473C415.779 111.72 410.611 116.434 403.909 119.615C397.321 122.795 389.597 124.385 380.737 124.385ZM451.108 122V2.73245H523.179V15.6815H465.42V55.7213H518.579V68.6704H465.42V122H451.108ZM585.063 124.385C570.864 124.385 559.562 120.296 551.157 112.118C542.751 103.826 538.548 91.7856 538.548 75.9968V48.7357C538.548 32.9469 542.751 20.9634 551.157 12.785C559.562 4.49307 570.864 0.3471 585.063 0.3471C599.148 0.3471 609.939 4.26589 617.435 12.1035C625.046 19.9411 628.851 30.6751 628.851 44.3057V45.1576H614.709V43.7946C614.709 34.8211 612.267 27.4947 607.383 21.8153C602.612 16.0223 595.172 13.1258 585.063 13.1258C574.953 13.1258 567.059 16.2494 561.38 22.4968C555.7 28.6305 552.861 37.2632 552.861 48.3949V76.3376C552.861 87.4692 555.7 96.1587 561.38 102.406C567.059 108.54 574.953 111.607 585.063 111.607C595.172 111.607 602.612 108.767 607.383 103.088C612.267 97.2946 614.709 89.9114 614.709 80.9379V78.2118H628.851V80.4267C628.851 94.0573 625.046 104.791 617.435 112.629C609.939 120.467 599.148 124.385 585.063 124.385Z" fill="currentColor" class="fill-white"/>
<path d="M337.309 303.115V161.96H426.035V186.158H363.927V220.237H421.196V244.435H363.927V303.115H337.309ZM445.027 303.115V161.96H471.645V278.917H536.173V303.115H445.027ZM604.246 305.939C586.501 305.939 572.385 301.099 561.9 291.42C551.414 281.606 546.171 267.625 546.171 249.476V215.599C546.171 197.45 551.414 183.536 561.9 173.857C572.385 164.043 586.501 159.137 604.246 159.137C621.992 159.137 636.107 164.043 646.593 173.857C657.079 183.536 662.322 197.45 662.322 215.599V249.476C662.322 267.625 657.079 281.606 646.593 291.42C636.107 301.099 621.992 305.939 604.246 305.939ZM604.246 282.144C614.194 282.144 621.924 279.253 627.436 273.473C632.948 267.692 635.704 259.962 635.704 250.283V214.792C635.704 205.113 632.948 197.383 627.436 191.602C621.924 185.822 614.194 182.931 604.246 182.931C594.433 182.931 586.703 185.822 581.056 191.602C575.545 197.383 572.789 205.113 572.789 214.792V250.283C572.789 259.962 575.545 267.692 581.056 273.473C586.703 279.253 594.433 282.144 604.246 282.144ZM695.78 303.115L677.228 161.96H703.645L717.357 284.564H720.987L738.732 161.96H784.708L802.454 284.564H806.083L819.796 161.96H846.212L827.66 303.115H781.684L763.535 177.688H759.905L741.757 303.115H695.78Z" fill="#334155"/>
<defs>
<linearGradient id="paint0_linear_181_232" x1="-17.2036" y1="141.32" x2="127.391" y2="359.91" gradientUnits="userSpaceOnUse">
<stop stop-color="white"/>
<stop offset="1" stop-color="white" stop-opacity="0.7"/>
</linearGradient>
<clipPath id="clip0_181_232">
<rect x="157.441" y="3.05762" width="142.559" height="142.559" rx="35.6396" fill="white"/>
</clipPath>
<clipPath id="clip1_181_232">
<rect y="160.499" width="142.559" height="142.559" rx="35.6396" fill="white"/>
</clipPath>
</defs>
</svg>
